STARTFONT 2.1
FONT -bjh21-Bedstead-Medium-R-Normal--193-20-75-75-C-120-ISO10646-1
SIZE 19 75 75
FONTBOUNDINGBOX 12 20 0 -4
STARTPROPERTIES 23
FOUNDRY "bjh21"
FAMILY_NAME "Bedstead"
WEIGHT_NAME "Medium"
SLANT "R"
SETWIDTH_NAME "Normal"
ADD_STYLE_NAME ""
PIXEL_SIZE 20
POINT_SIZE 193
RESOLUTION_X 75
RESOLUTION_Y 75
SPACING "C"
AVERAGE_WIDTH 120
CHARSET_REGISTRY "ISO10646"
CHARSET_ENCODING "1"
UNDERLINE_POSITION 2
UNDERLINE_THICKNESS 2
RELATIVE_SETWIDTH 50
RELATIVE_WEIGHT 50
FACE_NAME "Bedstead"
FONT_VERSION "3.252"
FONT_ASCENT 16
FONT_DESCENT 4
DEFAULT_CHAR 61951
ENDPROPERTIES
CHARS 2818
STARTCHAR space
ENCODING 32
SWIDTH 600 0
DWIDTH 12 0
BBX 12 20 0 -4
BITMAP
0000
0000
0000
0000
0000
0000
0000
0000
0000
0000
0000
0000
0000
0000
0000
0000
0000
0000
0000
0000
ENDCHAR
STARTCHAR exclam
ENCODING 33
SWIDTH 600 0
DWIDTH 12 0
BBX 12 20 0 -4
BITMAP
0000
0000
0300
0300
0300
0300
0300
0300
0300
0300
0300
0300
0000
0000
0300
0300
0000
0000
0000
0000
ENDCHAR
STARTCHAR quotedbl
ENCODING 34
SWIDTH 600 0
DWIDTH 12 0
BBX 12 20 0 -4
BITMAP
0000
0000
0cc0
0cc0
0cc0
0cc0
0cc0
0cc0
0000
0000
0000
0000
0000
0000
0000
0000
0000
0000
0000
0000
ENDCHAR
STARTCHAR numbersign
ENCODING 35
SWIDTH 600 0
DWIDTH 12 0
BBX 12 20 0 -4
BITMAP
0000
0000
0cc0
0cc0
0cc0
0cc0
3ff0
3ff0
0cc0
0cc0
3ff0
3ff0
0cc0
0cc0
0cc0
0cc0
0000
0000
0000
0000
ENDCHAR
STARTCHAR dollar
ENCODING 36
SWIDTH 600 0
DWIDTH 12 0
BBX 12 20 0 -4
BITMAP
0000
0000
0fc0
1fe0
3b70
3330
3300
3b00
1fc0
0fe0
0370
0330
3330
3b70
1fe0
0fc0
0000
0000
0000
0000
ENDCHAR
STARTCHAR percent
ENCODING 37
SWIDTH 600 0
DWIDTH 12 0
BBX 12 20 0 -4
BITMAP
0000
0000
3c00
3c00
3c30
3c70
00e0
01c0
0380
0700
0e00
1c00
38f0
30f0
00f0
00f0
0000
0000
0000
0000
ENDCHAR
STARTCHAR ampersand
ENCODING 38
SWIDTH 600 0
DWIDTH 12 0
BBX 12 20 0 -4
BITMAP
0000
0000
0c00
1e00
3f00
3300
3300
3f00
1e00
1e00
3f30
33f0
31e0
39e0
1ff0
0f30
0000
0000
0000
0000
ENDCHAR
STARTCHAR quoteright
ENCODING 8217
SWIDTH 600 0
DWIDTH 12 0
BBX 12 20 0 -4
BITMAP
0000
0000
0300
0300
0300
0700
0e00
0c00
0000
0000
0000
0000
0000
0000
0000
0000
0000
0000
0000
0000
ENDCHAR
STARTCHAR parenleft
ENCODING 40
SWIDTH 600 0
DWIDTH 12 0
BBX 12 20 0 -4
BITMAP
0000
0000
00c0
01c0
0380
0700
0e00
0c00
0c00
0c00
0c00
0e00
0700
0380
01c0
00c0
0000
0000
0000
0000
ENDCHAR
STARTCHAR parenright
ENCODING 41
SWIDTH 600 0
DWIDTH 12 0
BBX 12 20 0 -4
BITMAP
0000
0000
0c00
0e00
0700
0380
01c0
00c0
00c0
00c0
00c0
01c0
0380
0700
0e00
0c00
0000
0000
0000
0000
ENDCHAR
STARTCHAR asterisk
ENCODING 42
SWIDTH 600 0
DWIDTH 12 0
BBX 12 20 0 -4
BITMAP
0000
0000
0300
0300
3330
3b70
1fe0
0fc0
0300
0300
0fc0
1fe0
3b70
3330
0300
0300
0000
0000
0000
0000
ENDCHAR
STARTCHAR plus
ENCODING 43
SWIDTH 600 0
DWIDTH 12 0
BBX 12 20 0 -4
BITMAP
0000
0000
0000
0000
0300
0300
0300
0300
3ff0
3ff0
0300
0300
0300
0300
0000
0000
0000
0000
0000
0000
ENDCHAR
STARTCHAR comma
ENCODING 44
SWIDTH 600 0
DWIDTH 12 0
BBX 12 20 0 -4
BITMAP
0000
0000
0000
0000
0000
0000
0000
0000
0000
0000
0000
0000
0300
0300
0300
0700
0e00
0c00
0000
0000
ENDCHAR
STARTCHAR hyphen
ENCODING 45
SWIDTH 600 0
DWIDTH 12 0
BBX 12 20 0 -4
BITMAP
0000
0000
0000
0000
0000
0000
0000
0000
0fc0
0fc0
0000
0000
0000
0000
0000
0000
0000
0000
0000
0000
ENDCHAR
STARTCHAR period
ENCODING 46
SWIDTH 600 0
DWIDTH 12 0
BBX 12 20 0 -4
BITMAP
0000
0000
0000
0000
0000
0000
0000
0000
0000
0000
0000
0000
0000
0000
0300
0300
0000
0000
0000
0000
ENDCHAR
STARTCHAR slash
ENCODING 47
SWIDTH 600 0
DWIDTH 12 0
BBX 12 20 0 -4
BITMAP
0000
0000
0000
0000
0030
0070
00e0
01c0
0380
0700
0e00
1c00
3800
3000
0000
0000
0000
0000
0000
0000
ENDCHAR
STARTCHAR zero
ENCODING 48
SWIDTH 600 0
DWIDTH 12 0
BBX 12 20 0 -4
BITMAP
0000
0000
0300
0780
0fc0
1ce0
3870
3030
3030
3030
3030
3870
1ce0
0fc0
0780
0300
0000
0000
0000
0000
ENDCHAR
STARTCHAR one
ENCODING 49
SWIDTH 600 0
DWIDTH 12 0
BBX 12 20 0 -4
BITMAP
0000
0000
0300
0300
0f00
0f00
0300
0300
0300
0300
0300
0300
0300
0300
0fc0
0fc0
0000
0000
0000
0000
ENDCHAR
STARTCHAR two
ENCODING 50
SWIDTH 600 0
DWIDTH 12 0
BBX 12 20 0 -4
BITMAP
0000
0000
0fc0
1fe0
3870
3030
0030
0070
03e0
07c0
0e00
1c00
3800
3000
3ff0
3ff0
0000
0000
0000
0000
ENDCHAR
STARTCHAR three
ENCODING 51
SWIDTH 600 0
DWIDTH 12 0
BBX 12 20 0 -4
BITMAP
0000
0000
3ff0
3ff0
0030
0070
00e0
00c0
03c0
03e0
0070
0030
3030
3870
1fe0
0fc0
0000
0000
0000
0000
ENDCHAR
STARTCHAR four
ENCODING 52
SWIDTH 600 0
DWIDTH 12 0
BBX 12 20 0 -4
BITMAP
0000
0000
00c0
00c0
03c0
07c0
0ec0
1cc0
38c0
30c0
3ff0
3ff0
00c0
00c0
00c0
00c0
0000
0000
0000
0000
ENDCHAR
STARTCHAR five
ENCODING 53
SWIDTH 600 0
DWIDTH 12 0
BBX 12 20 0 -4
BITMAP
0000
0000
3ff0
3ff0
3000
3000
3fc0
3fe0
0070
0030
0030
0030
3030
3870
1fe0
0fc0
0000
0000
0000
0000
ENDCHAR
STARTCHAR six
ENCODING 54
SWIDTH 600 0
DWIDTH 12 0
BBX 12 20 0 -4
BITMAP
0000
0000
03c0
07c0
0e00
1c00
3800
3000
3fc0
3fe0
3070
3030
3030
3870
1fe0
0fc0
0000
0000
0000
0000
ENDCHAR
STARTCHAR seven
ENCODING 55
SWIDTH 600 0
DWIDTH 12 0
BBX 12 20 0 -4
BITMAP
0000
0000
3ff0
3ff0
0030
0070
00e0
01c0
0380
0700
0e00
0c00
0c00
0c00
0c00
0c00
0000
0000
0000
0000
ENDCHAR
STARTCHAR eight
ENCODING 56
SWIDTH 600 0
DWIDTH 12 0
BBX 12 20 0 -4
BITMAP
0000
0000
0fc0
1fe0
3870
3030
3030
3870
1fe0
1fe0
3870
3030
3030
3870
1fe0
0fc0
0000
0000
0000
0000
ENDCHAR
STARTCHAR nine
ENCODING 57
SWIDTH 600 0
DWIDTH 12 0
BBX 12 20 0 -4
BITMAP
0000
0000
0fc0
1fe0
3870
3030
3030
3830
1ff0
0ff0
0030
0070
00e0
01c0
0f80
0f00
0000
0000
0000
0000
ENDCHAR
STARTCHAR colon
ENCODING 58
SWIDTH 600 0
DWIDTH 12 0
BBX 12 20 0 -4
BITMAP
0000
0000
0000
0000
0000
0000
0300
0300
0000
0000
0000
0000
0000
0000
0300
0300
0000
0000
0000
0000
ENDCHAR
STARTCHAR semicolon
ENCODING 59
SWIDTH 600 0
DWIDTH 12 0
BBX 12 20 0 -4
BITMAP
0000
0000
0000
0000
0000
0000
0300
0300
0000
0000
0000
0000
0300
0300
0300
0700
0e00
0c00
0000
0000
ENDCHAR
STARTCHAR less
ENCODING 60
SWIDTH 600 0
DWIDTH 12 0
BBX 12 20 0 -4
BITMAP
0000
0000
00c0
01c0
0380
0700
0e00
1c00
3800
3800
1c00
0e00
0700
0380
01c0
00c0
0000
0000
0000
0000
ENDCHAR
STARTCHAR equal
ENCODING 61
SWIDTH 600 0
DWIDTH 12 0
BBX 12 20 0 -4
BITMAP
0000
0000
0000
0000
0000
0000
3ff0
3ff0
0000
0000
3ff0
3ff0
0000
0000
0000
0000
0000
0000
0000
0000
ENDCHAR
STARTCHAR greater
ENCODING 62
SWIDTH 600 0
DWIDTH 12 0
BBX 12 20 0 -4
BITMAP
0000
0000
0c00
0e00
0700
0380
01c0
00e0
0070
0070
00e0
01c0
0380
0700
0e00
0c00
0000
0000
0000
0000
ENDCHAR
STARTCHAR question
ENCODING 63
SWIDTH 600 0
DWIDTH 12 0
BBX 12 20 0 -4
BITMAP
0000
0000
0fc0
1fe0
3870
3070
00e0
01c0
0380
0300
0300
0300
0000
0000
0300
0300
0000
0000
0000
0000
ENDCHAR
STARTCHAR at
ENCODING 64
SWIDTH 600 0
DWIDTH 12 0
BBX 12 20 0 -4
BITMAP
0000
0000
0fc0
1fe0
3870
3030
33f0
33f0
3330
3330
33f0
33f0
3000
3800
1fc0
0fc0
0000
0000
0000
0000
ENDCHAR
STARTCHAR A
ENCODING 65
SWIDTH 600 0
DWIDTH 12 0
BBX 12 20 0 -4
BITMAP
0000
0000
0300
0780
0fc0
1ce0
3870
3030
3030
3030
3ff0
3ff0
3030
3030
3030
3030
0000
0000
0000
0000
ENDCHAR
STARTCHAR B
ENCODING 66
SWIDTH 600 0
DWIDTH 12 0
BBX 12 20 0 -4
BITMAP
0000
0000
3fc0
3fe0
3070
3030
3030
3070
3fe0
3fe0
3070
3030
3030
3070
3fe0
3fc0
0000
0000
0000
0000
ENDCHAR
STARTCHAR C
ENCODING 67
SWIDTH 600 0
DWIDTH 12 0
BBX 12 20 0 -4
BITMAP
0000
0000
0fc0
1fe0
3870
3030
3000
3000
3000
3000
3000
3000
3030
3870
1fe0
0fc0
0000
0000
0000
0000
ENDCHAR
STARTCHAR D
ENCODING 68
SWIDTH 600 0
DWIDTH 12 0
BBX 12 20 0 -4
BITMAP
0000
0000
3fc0
3fe0
3070
3030
3030
3030
3030
3030
3030
3030
3030
3070
3fe0
3fc0
0000
0000
0000
0000
ENDCHAR
STARTCHAR E
ENCODING 69
SWIDTH 600 0
DWIDTH 12 0
BBX 12 20 0 -4
BITMAP
0000
0000
3ff0
3ff0
3000
3000
3000
3000
3fc0
3fc0
3000
3000
3000
3000
3ff0
3ff0
0000
0000
0000
0000
ENDCHAR
STARTCHAR F
ENCODING 70
SWIDTH 600 0
DWIDTH 12 0
BBX 12 20 0 -4
BITMAP
0000
0000
3ff0
3ff0
3000
3000
3000
3000
3fc0
3fc0
3000
3000
3000
3000
3000
3000
0000
0000
0000
0000
ENDCHAR
STARTCHAR G
ENCODING 71
SWIDTH 600 0
DWIDTH 12 0
BBX 12 20 0 -4
BITMAP
0000
0000
0fc0
1fe0
3870
3030
3000
3000
3000
3000
30f0
30f0
3030
3830
1ff0
0ff0
0000
0000
0000
0000
ENDCHAR
STARTCHAR H
ENCODING 72
SWIDTH 600 0
DWIDTH 12 0
BBX 12 20 0 -4
BITMAP
0000
0000
3030
3030
3030
3030
3030
3030
3ff0
3ff0
3030
3030
3030
3030
3030
3030
0000
0000
0000
0000
ENDCHAR
STARTCHAR I
ENCODING 73
SWIDTH 600 0
DWIDTH 12 0
BBX 12 20 0 -4
BITMAP
0000
0000
0fc0
0fc0
0300
0300
0300
0300
0300
0300
0300
0300
0300
0300
0fc0
0fc0
0000
0000
0000
0000
ENDCHAR
STARTCHAR J
ENCODING 74
SWIDTH 600 0
DWIDTH 12 0
BBX 12 20 0 -4
BITMAP
0000
0000
0030
0030
0030
0030
0030
0030
0030
0030
0030
0030
3030
3870
1fe0
0fc0
0000
0000
0000
0000
ENDCHAR
STARTCHAR K
ENCODING 75
SWIDTH 600 0
DWIDTH 12 0
BBX 12 20 0 -4
BITMAP
0000
0000
3030
3070
30e0
31c0
3380
3700
3e00
3e00
3700
3380
31c0
30e0
3070
3030
0000
0000
0000
0000
ENDCHAR
STARTCHAR L
ENCODING 76
SWIDTH 600 0
DWIDTH 12 0
BBX 12 20 0 -4
BITMAP
0000
0000
3000
3000
3000
3000
3000
3000
3000
3000
3000
3000
3000
3000
3ff0
3ff0
0000
0000
0000
0000
ENDCHAR
STARTCHAR M
ENCODING 77
SWIDTH 600 0
DWIDTH 12 0
BBX 12 20 0 -4
BITMAP
0000
0000
3030
3030
3cf0
3ff0
37b0
3330
3330
3330
3030
3030
3030
3030
3030
3030
0000
0000
0000
0000
ENDCHAR
STARTCHAR N
ENCODING 78
SWIDTH 600 0
DWIDTH 12 0
BBX 12 20 0 -4
BITMAP
0000
0000
3030
3030
3030
3030
3c30
3e30
3730
33b0
31f0
30f0
3030
3030
3030
3030
0000
0000
0000
0000
ENDCHAR
STARTCHAR O
ENCODING 79
SWIDTH 600 0
DWIDTH 12 0
BBX 12 20 0 -4
BITMAP
0000
0000
0fc0
1fe0
3870
3030
3030
3030
3030
3030
3030
3030
3030
3870
1fe0
0fc0
0000
0000
0000
0000
ENDCHAR
STARTCHAR P
ENCODING 80
SWIDTH 600 0
DWIDTH 12 0
BBX 12 20 0 -4
BITMAP
0000
0000
3fc0
3fe0
3070
3030
3030
3070
3fe0
3fc0
3000
3000
3000
3000
3000
3000
0000
0000
0000
0000
ENDCHAR
STARTCHAR Q
ENCODING 81
SWIDTH 600 0
DWIDTH 12 0
BBX 12 20 0 -4
BITMAP
0000
0000
0fc0
1fe0
3870
3030
3030
3030
3030
3030
3330
33f0
31e0
39e0
1ff0
0f30
0000
0000
0000
0000
ENDCHAR
STARTCHAR R
ENCODING 82
SWIDTH 600 0
DWIDTH 12 0
BBX 12 20 0 -4
BITMAP
0000
0000
3fc0
3fe0
3070
3030
3030
3070
3fe0
3fc0
3300
3380
31c0
30e0
3070
3030
0000
0000
0000
0000
ENDCHAR
STARTCHAR S
ENCODING 83
SWIDTH 600 0
DWIDTH 12 0
BBX 12 20 0 -4
BITMAP
0000
0000
0fc0
1fe0
3870
3030
3000
3800
1fc0
0fe0
0070
0030
3030
3870
1fe0
0fc0
0000
0000
0000
0000
ENDCHAR
STARTCHAR T
ENCODING 84
SWIDTH 600 0
DWIDTH 12 0
BBX 12 20 0 -4
BITMAP
0000
0000
3ff0
3ff0
0300
0300
0300
0300
0300
0300
0300
0300
0300
0300
0300
0300
0000
0000
0000
0000
ENDCHAR
STARTCHAR U
ENCODING 85
SWIDTH 600 0
DWIDTH 12 0
BBX 12 20 0 -4
BITMAP
0000
0000
3030
3030
3030
3030
3030
3030
3030
3030
3030
3030
3030
3870
1fe0
0fc0
0000
0000
0000
0000
ENDCHAR
STARTCHAR V
ENCODING 86
SWIDTH 600 0
DWIDTH 12 0
BBX 12 20 0 -4
BITMAP
0000
0000
3030
3030
3030
3030
3030
3870
1ce0
0cc0
0cc0
0fc0
0780
0300
0300
0300
0000
0000
0000
0000
ENDCHAR
STARTCHAR W
ENCODING 87
SWIDTH 600 0
DWIDTH 12 0
BBX 12 20 0 -4
BITMAP
0000
0000
3030
3030
3030
3030
3030
3030
3330
3330
3330
3330
3330
3ff0
1fe0
0cc0
0000
0000
0000
0000
ENDCHAR
STARTCHAR X
ENCODING 88
SWIDTH 600 0
DWIDTH 12 0
BBX 12 20 0 -4
BITMAP
0000
0000
3030
3030
3030
3870
1ce0
0fc0
0780
0780
0fc0
1ce0
3870
3030
3030
3030
0000
0000
0000
0000
ENDCHAR
STARTCHAR Y
ENCODING 89
SWIDTH 600 0
DWIDTH 12 0
BBX 12 20 0 -4
BITMAP
0000
0000
3030
3030
3030
3870
1ce0
0fc0
0780
0300
0300
0300
0300
0300
0300
0300
0000
0000
0000
0000
ENDCHAR
STARTCHAR Z
ENCODING 90
SWIDTH 600 0
DWIDTH 12 0
BBX 12 20 0 -4
BITMAP
0000
0000
3ff0
3ff0
0030
0070
00e0
01c0
0380
0700
0e00
1c00
3800
3000
3ff0
3ff0
0000
0000
0000
0000
ENDCHAR
STARTCHAR bracketleft
ENCODING 91
SWIDTH 600 0
DWIDTH 12 0
BBX 12 20 0 -4
BITMAP
0000
0000
0ff0
0ff0
0c00
0c00
0c00
0c00
0c00
0c00
0c00
0c00
0c00
0c00
0ff0
0ff0
0000
0000
0000
0000
ENDCHAR
STARTCHAR backslash
ENCODING 92
SWIDTH 600 0
DWIDTH 12 0
BBX 12 20 0 -4
BITMAP
0000
0000
0000
0000
3000
3800
1c00
0e00
0700
0380
01c0
00e0
0070
0030
0000
0000
0000
0000
0000
0000
ENDCHAR
STARTCHAR bracketright
ENCODING 93
SWIDTH 600 0
DWIDTH 12 0
BBX 12 20 0 -4
BITMAP
0000
0000
3fc0
3fc0
00c0
00c0
00c0
00c0
00c0
00c0
00c0
00c0
00c0
00c0
3fc0
3fc0
0000
0000
0000
0000
ENDCHAR
STARTCHAR asciicircum
ENCODING 94
SWIDTH 600 0
DWIDTH 12 0
BBX 12 20 0 -4
BITMAP
0000
0000
0300
0780
0fc0
1ce0
3870
3030
0000
0000
0000
0000
0000
0000
0000
0000
0000
0000
0000
0000
ENDCHAR
STARTCHAR underscore
ENCODING 95
SWIDTH 600 0
DWIDTH 12 0
BBX 12 20 0 -4
BITMAP
0000
0000
0000
0000
0000
0000
0000
0000
0000
0000
0000
0000
0000
0000
3ff0
3ff0
0000
0000
0000
0000
ENDCHAR
STARTCHAR quotereversed
ENCODING 8219
SWIDTH 600 0
DWIDTH 12 0
BBX 12 20 0 -4
BITMAP
0000
0000
0300
0300
0300
0380
01c0
00c0
0000
0000
0000
0000
0000
0000
0000
0000
0000
0000
0000
0000
ENDCHAR
STARTCHAR a
ENCODING 97
SWIDTH 600 0
DWIDTH 12 0
BBX 12 20 0 -4
BITMAP
0000
0000
0000
0000
0000
0000
0fc0
0fe0
0070
0030
0ff0
1ff0
3830
3830
1ff0
0ff0
0000
0000
0000
0000
ENDCHAR
STARTCHAR b
ENCODING 98
SWIDTH 600 0
DWIDTH 12 0
BBX 12 20 0 -4
BITMAP
0000
0000
3000
3000
3000
3000
3fc0
3fe0
3070
3030
3030
3030
3030
3070
3fe0
3fc0
0000
0000
0000
0000
ENDCHAR
STARTCHAR c
ENCODING 99
SWIDTH 600 0
DWIDTH 12 0
BBX 12 20 0 -4
BITMAP
0000
0000
0000
0000
0000
0000
0ff0
1ff0
3800
3000
3000
3000
3000
3800
1ff0
0ff0
0000
0000
0000
0000
ENDCHAR
STARTCHAR d
ENCODING 100
SWIDTH 600 0
DWIDTH 12 0
BBX 12 20 0 -4
BITMAP
0000
0000
0030
0030
0030
0030
0ff0
1ff0
3830
3030
3030
3030
3030
3830
1ff0
0ff0
0000
0000
0000
0000
ENDCHAR
STARTCHAR e
ENCODING 101
SWIDTH 600 0
DWIDTH 12 0
BBX 12 20 0 -4
BITMAP
0000
0000
0000
0000
0000
0000
0fc0
1fe0
3870
3030
3ff0
3ff0
3000
3800
1fc0
0fc0
0000
0000
0000
0000
ENDCHAR
STARTCHAR f
ENCODING 102
SWIDTH 600 0
DWIDTH 12 0
BBX 12 20 0 -4
BITMAP
0000
0000
00c0
01c0
0380
0300
0300
0300
0fc0
0fc0
0300
0300
0300
0300
0300
0300
0000
0000
0000
0000
ENDCHAR
STARTCHAR g
ENCODING 103
SWIDTH 600 0
DWIDTH 12 0
BBX 12 20 0 -4
BITMAP
0000
0000
0000
0000
0000
0000
0ff0
1ff0
3830
3030
3030
3030
3030
3830
1ff0
0ff0
0030
0070
0fe0
0fc0
ENDCHAR
STARTCHAR h
ENCODING 104
SWIDTH 600 0
DWIDTH 12 0
BBX 12 20 0 -4
BITMAP
0000
0000
3000
3000
3000
3000
3fc0
3fe0
3070
3030
3030
3030
3030
3030
3030
3030
0000
0000
0000
0000
ENDCHAR
STARTCHAR i
ENCODING 105
SWIDTH 600 0
DWIDTH 12 0
BBX 12 20 0 -4
BITMAP
0000
0000
0300
0300
0000
0000
0f00
0f00
0300
0300
0300
0300
0300
0300
0fc0
0fc0
0000
0000
0000
0000
ENDCHAR
STARTCHAR j
ENCODING 106
SWIDTH 600 0
DWIDTH 12 0
BBX 12 20 0 -4
BITMAP
0000
0000
0300
0300
0000
0000
0300
0300
0300
0300
0300
0300
0300
0300
0300
0300
0300
0700
0e00
0c00
ENDCHAR
STARTCHAR k
ENCODING 107
SWIDTH 600 0
DWIDTH 12 0
BBX 12 20 0 -4
BITMAP
0000
0000
0c00
0c00
0c00
0c00
0c30
0c70
0ce0
0dc0
0f80
0f80
0dc0
0ce0
0c70
0c30
0000
0000
0000
0000
ENDCHAR
STARTCHAR l
ENCODING 108
SWIDTH 600 0
DWIDTH 12 0
BBX 12 20 0 -4
BITMAP
0000
0000
0f00
0f00
0300
0300
0300
0300
0300
0300
0300
0300
0300
0300
0fc0
0fc0
0000
0000
0000
0000
ENDCHAR
STARTCHAR m
ENCODING 109
SWIDTH 600 0
DWIDTH 12 0
BBX 12 20 0 -4
BITMAP
0000
0000
0000
0000
0000
0000
3cc0
3fe0
37f0
3330
3330
3330
3330
3330
3330
3330
0000
0000
0000
0000
ENDCHAR
STARTCHAR n
ENCODING 110
SWIDTH 600 0
DWIDTH 12 0
BBX 12 20 0 -4
BITMAP
0000
0000
0000
0000
0000
0000
3fc0
3fe0
3070
3030
3030
3030
3030
3030
3030
3030
0000
0000
0000
0000
ENDCHAR
STARTCHAR o
ENCODING 111
SWIDTH 600 0
DWIDTH 12 0
BBX 12 20 0 -4
BITMAP
0000
0000
0000
0000
0000
0000
0fc0
1fe0
3870
3030
3030
3030
3030
3870
1fe0
0fc0
0000
0000
0000
0000
ENDCHAR
STARTCHAR p
ENCODING 112
SWIDTH 600 0
DWIDTH 12 0
BBX 12 20 0 -4
BITMAP
0000
0000
0000
0000
0000
0000
3fc0
3fe0
3070
3030
3030
3030
3030
3070
3fe0
3fc0
3000
3000
3000
3000
ENDCHAR
STARTCHAR q
ENCODING 113
SWIDTH 600 0
DWIDTH 12 0
BBX 12 20 0 -4
BITMAP
0000
0000
0000
0000
0000
0000
0ff0
1ff0
3830
3030
3030
3030
3030
3830
1ff0
0ff0
0030
0030
0030
0030
ENDCHAR
STARTCHAR r
ENCODING 114
SWIDTH 600 0
DWIDTH 12 0
BBX 12 20 0 -4
BITMAP
0000
0000
0000
0000
0000
0000
0cf0
0df0
0f80
0f00
0c00
0c00
0c00
0c00
0c00
0c00
0000
0000
0000
0000
ENDCHAR
STARTCHAR s
ENCODING 115
SWIDTH 600 0
DWIDTH 12 0
BBX 12 20 0 -4
BITMAP
0000
0000
0000
0000
0000
0000
0ff0
1ff0
3800
3800
1fc0
0fe0
0070
0070
3fe0
3fc0
0000
0000
0000
0000
ENDCHAR
STARTCHAR t
ENCODING 116
SWIDTH 600 0
DWIDTH 12 0
BBX 12 20 0 -4
BITMAP
0000
0000
0300
0300
0300
0300
0fc0
0fc0
0300
0300
0300
0300
0300
0380
01c0
00c0
0000
0000
0000
0000
ENDCHAR
STARTCHAR u
ENCODING 117
SWIDTH 600 0
DWIDTH 12 0
BBX 12 20 0 -4
BITMAP
0000
0000
0000
0000
0000
0000
3030
3030
3030
3030
3030
3030
3030
3830
1ff0
0ff0
0000
0000
0000
0000
ENDCHAR
STARTCHAR v
ENCODING 118
SWIDTH 600 0
DWIDTH 12 0
BBX 12 20 0 -4
BITMAP
0000
0000
0000
0000
0000
0000
3030
3030
3030
3870
1ce0
0cc0
0cc0
0fc0
0780
0300
0000
0000
0000
0000
ENDCHAR
STARTCHAR w
ENCODING 119
SWIDTH 600 0
DWIDTH 12 0
BBX 12 20 0 -4
BITMAP
0000
0000
0000
0000
0000
0000
3030
3030
3030
3030
3330
3330
3330
3ff0
1fe0
0cc0
0000
0000
0000
0000
ENDCHAR
STARTCHAR x
ENCODING 120
SWIDTH 600 0
DWIDTH 12 0
BBX 12 20 0 -4
BITMAP
0000
0000
0000
0000
0000
0000
3030
3870
1ce0
0fc0
0780
0780
0fc0
1ce0
3870
3030
0000
0000
0000
0000
ENDCHAR
STARTCHAR y
ENCODING 121
SWIDTH 600 0
DWIDTH 12 0
BBX 12 20 0 -4
BITMAP
0000
0000
0000
0000
0000
0000
3030
3030
3030
3030
3030
3030
3030
3830
1ff0
0ff0
0030
0070
0fe0
0fc0
ENDCHAR
STARTCHAR z
ENCODING 122
SWIDTH 600 0
DWIDTH 12 0
BBX 12 20 0 -4
BITMAP
0000
0000
0000
0000
0000
0000
3ff0
3ff0
00c0
01c0
0380
0700
0e00
0c00
3ff0
3ff0
0000
0000
0000
0000
ENDCHAR
STARTCHAR braceleft
ENCODING 123
SWIDTH 600 0
DWIDTH 12 0
BBX 12 20 0 -4
BITMAP
0000
0000
00f0
01f0
0380
0300
0300
0700
0e00
0e00
0700
0300
0300
0380
01f0
00f0
0000
0000
0000
0000
ENDCHAR
STARTCHAR brokenbar
ENCODING 166
SWIDTH 600 0
DWIDTH 12 0
BBX 12 20 0 -4
BITMAP
0000
0000
0300
0300
0300
0300
0300
0300
0000
0000
0300
0300
0300
0300
0300
0300
0000
0000
0000
0000
ENDCHAR
STARTCHAR braceright
ENCODING 125
SWIDTH 600 0
DWIDTH 12 0
BBX 12 20 0 -4
BITMAP
0000
0000
3c00
3e00
0700
0300
0300
0380
01c0
01c0
0380
0300
0300
0700
3e00
3c00
0000
0000
0000
0000
ENDCHAR
STARTCHAR asciitilde
ENCODING 126
SWIDTH 600 0
DWIDTH 12 0
BBX 12 20 0 -4
BITMAP
0000
0000
0c00
1e00
3f30
33f0
01e0
00c0
0000
0000
0000
0000
0000
0000
0000
0000
0000
0000
0000
0000
ENDCHAR
STARTCHAR filledbox
ENCODING 9632
SWIDTH 600 0
DWIDTH 12 0
BBX 12 20 0 -4
BITMAP
0000
0000
3ff0
3ff0
3ff0
3ff0
3ff0
3ff0
3ff0
3ff0
3ff0
3ff0
3ff0
3ff0
3ff0
3ff0
0000
0000
0000
0000
ENDCHAR
STARTCHAR sterling
ENCODING 163
SWIDTH 600 0
DWIDTH 12 0
BBX 12 20 0 -4
BITMAP
0000
0000
03c0
07e0
0e70
0c30
0c00
0c00
3f00
3f00
0c00
0c00
0c00
0c00
3ff0
3ff0
0000
0000
0000
0000
ENDCHAR
STARTCHAR quotesingle
ENCODING 39
SWIDTH 600 0
DWIDTH 12 0
BBX 12 20 0 -4
BITMAP
0000
0000
0300
0300
0300
0300
0300
0300
0000
0000
0000
0000
0000
0000
0000
0000
0000
0000
0000
0000
ENDCHAR
STARTCHAR arrowleft
ENCODING 8592
SWIDTH 600 0
DWIDTH 12 0
BBX 12 20 0 -4
BITMAP
0000
0000
0000
0000
0300
0700
0e00
0c00
3ff0
3ff0
0c00
0e00
0700
0300
0000
0000
0000
0000
0000
0000
ENDCHAR
STARTCHAR onehalf
ENCODING 189
SWIDTH 600 0
DWIDTH 12 0
BBX 12 20 0 -4
BITMAP
0000
0000
3000
3000
3000
3000
3000
3000
3000
3000
33c0
33e0
0070
0070
00e0
01c0
0380
0300
03f0
03f0
ENDCHAR
STARTCHAR arrowright
ENCODING 8594
SWIDTH 600 0
DWIDTH 12 0
BBX 12 20 0 -4
BITMAP
0000
0000
0000
0000
0300
0380
01c0
00c0
3ff0
3ff0
00c0
01c0
0380
0300
0000
0000
0000
0000
0000
0000
ENDCHAR
STARTCHAR arrowup
ENCODING 8593
SWIDTH 600 0
DWIDTH 12 0
BBX 12 20 0 -4
BITMAP
0000
0000
0000
0000
0300
0300
0fc0
1fe0
3b70
3330
0300
0300
0300
0300
0000
0000
0000
0000
0000
0000
ENDCHAR
STARTCHAR emdash
ENCODING 8212
SWIDTH 600 0
DWIDTH 12 0
BBX 12 20 0 -4
BITMAP
0000
0000
0000
0000
0000
0000
0000
0000
3ff0
3ff0
0000
0000
0000
0000
0000
0000
0000
0000
0000
0000
ENDCHAR
STARTCHAR onequarter
ENCODING 188
SWIDTH 600 0
DWIDTH 12 0
BBX 12 20 0 -4
BITMAP
0000
0000
0c00
0c00
0c00
0c00
0c00
0c00
0c00
0c00
0c30
0c30
00f0
01f0
03b0
0330
03f0
03f0
0030
0030
ENDCHAR
STARTCHAR dblverticalbar
ENCODING 8214
SWIDTH 600 0
DWIDTH 12 0
BBX 12 20 0 -4
BITMAP
0000
0000
0cc0
0cc0
0cc0
0cc0
0cc0
0cc0
0cc0
0cc0
0cc0
0cc0
0cc0
0cc0
0cc0
0cc0
0000
0000
0000
0000
ENDCHAR
STARTCHAR threequarters
ENCODING 190
SWIDTH 600 0
DWIDTH 12 0
BBX 12 20 0 -4
BITMAP
0000
0000
3c00
3e00
0700
0700
3e00
3e00
0700
0700
3e30
3c30
00f0
01f0
03b0
0330
03f0
03f0
0030
0030
ENDCHAR
STARTCHAR divide
ENCODING 247
SWIDTH 600 0
DWIDTH 12 0
BBX 12 20 0 -4
BITMAP
0000
0000
0000
0000
0300
0300
0000
0000
3ff0
3ff0
0000
0000
0300
0300
0000
0000
0000
0000
0000
0000
ENDCHAR
STARTCHAR comma.left
ENCODING 61904
SWIDTH 600 0
DWIDTH 12 0
BBX 12 20 0 -4
BITMAP
0000
0000
0000
0000
0000
0000
0000
0000
0000
0000
0000
0000
0c00
0c00
0c00
1c00
3800
3000
0000
0000
ENDCHAR
STARTCHAR period.large
ENCODING 61905
SWIDTH 600 0
DWIDTH 12 0
BBX 12 20 0 -4
BITMAP
0000
0000
0000
0000
0000
0000
0000
0000
0000
0000
0000
0000
0f00
0f00
0f00
0f00
0000
0000
0000
0000
ENDCHAR
STARTCHAR colon.leftsmall
ENCODING 61906
SWIDTH 600 0
DWIDTH 12 0
BBX 12 20 0 -4
BITMAP
0000
0000
0000
0000
0000
0000
0000
0000
0c00
0c00
0000
0000
0000
0000
0c00
0c00
0000
0000
0000
0000
ENDCHAR
STARTCHAR semicolon.left
ENCODING 61907
SWIDTH 600 0
DWIDTH 12 0
BBX 12 20 0 -4
BITMAP
0000
0000
0000
0000
0000
0000
0c00
0c00
0000
0000
0000
0000
0c00
0c00
0c00
1c00
3800
3000
0000
0000
ENDCHAR
STARTCHAR question.open
ENCODING 61914
SWIDTH 600 0
DWIDTH 12 0
BBX 12 20 0 -4
BITMAP
0000
0000
0fc0
1fe0
3870
3030
0030
0070
00e0
01c0
0380
0300
0000
0000
0300
0300
0000
0000
0000
0000
ENDCHAR
STARTCHAR section
ENCODING 167
SWIDTH 600 0
DWIDTH 12 0
BBX 12 20 0 -4
BITMAP
0000
0000
0fc0
1fe0
3870
3030
3000
3800
1fc0
1fe0
3870
3870
1fe0
0fe0
0070
0030
3030
3870
1fe0
0fc0
ENDCHAR
STARTCHAR D.serif
ENCODING 61915
SWIDTH 600 0
DWIDTH 12 0
BBX 12 20 0 -4
BITMAP
0000
0000
3fc0
3fe0
0c70
0c30
0c30
0c30
0c30
0c30
0c30
0c30
0c30
0c70
3fe0
3fc0
0000
0000
0000
0000
ENDCHAR
STARTCHAR J.narrow
ENCODING 61916
SWIDTH 600 0
DWIDTH 12 0
BBX 12 20 0 -4
BITMAP
0000
0000
00c0
00c0
00c0
00c0
00c0
00c0
00c0
00c0
00c0
00c0
30c0
39c0
1f80
0f00
0000
0000
0000
0000
ENDCHAR
STARTCHAR L.narrow
ENCODING 61909
SWIDTH 600 0
DWIDTH 12 0
BBX 12 20 0 -4
BITMAP
0000
0000
0c00
0c00
0c00
0c00
0c00
0c00
0c00
0c00
0c00
0c00
0c00
0c00
0ff0
0ff0
0000
0000
0000
0000
ENDCHAR
STARTCHAR Adieresis
ENCODING 196
SWIDTH 600 0
DWIDTH 12 0
BBX 12 20 0 -4
BITMAP
0000
0000
0cc0
0cc0
0000
0000
0fc0
1fe0
3870
3030
3ff0
3ff0
3030
3030
3030
3030
0000
0000
0000
0000
ENDCHAR
STARTCHAR Odieresis
ENCODING 214
SWIDTH 600 0
DWIDTH 12 0
BBX 12 20 0 -4
BITMAP
0000
0000
0cc0
0cc0
0000
0000
0fc0
1fe0
3870
3030
3030
3030
3030
3870
1fe0
0fc0
0000
0000
0000
0000
ENDCHAR
STARTCHAR Udieresis
ENCODING 220
SWIDTH 600 0
DWIDTH 12 0
BBX 12 20 0 -4
BITMAP
0000
0000
0cc0
0cc0
0000
0000
3030
3030
3030
3030
3030
3030
3030
3870
1fe0
0fc0
0000
0000
0000
0000
ENDCHAR
STARTCHAR degree
ENCODING 176
SWIDTH 600 0
DWIDTH 12 0
BBX 12 20 0 -4
BITMAP
0000
0000
03c0
07e0
0e70
0e70
07e0
03c0
0000
0000
0000
0000
0000
0000
0000
0000
0000
0000
0000
0000
ENDCHAR
STARTCHAR j.serif
ENCODING 61917
SWIDTH 600 0
DWIDTH 12 0
BBX 12 20 0 -4
BITMAP
0000
0000
0300
0300
0000
0000
0f00
0f00
0300
0300
0300
0300
0300
0300
0300
0300
0300
0700
0e00
0c00
ENDCHAR
STARTCHAR t.small
ENCODING 61918
SWIDTH 600 0
DWIDTH 12 0
BBX 12 20 0 -4
BITMAP
0000
0000
0000
0000
0300
0300
0fc0
0fc0
0300
0300
0300
0300
0300
0380
01c0
00c0
0000
0000
0000
0000
ENDCHAR
STARTCHAR adieresis
ENCODING 228
SWIDTH 600 0
DWIDTH 12 0
BBX 12 20 0 -4
BITMAP
0000
0000
0cc0
0cc0
0000
0000
0fc0
0fe0
0070
0030
0ff0
1ff0
3830
3830
1ff0
0ff0
0000
0000
0000
0000
ENDCHAR
STARTCHAR odieresis
ENCODING 246
SWIDTH 600 0
DWIDTH 12 0
BBX 12 20 0 -4
BITMAP
0000
0000
0000
0000
0cc0
0cc0
0000
0000
0fc0
1fe0
3870
3030
3030
3870
1fe0
0fc0
0000
0000
0000
0000
ENDCHAR
STARTCHAR udieresis
ENCODING 252
SWIDTH 600 0
DWIDTH 12 0
BBX 12 20 0 -4
BITMAP
0000
0000
0000
0000
0cc0
0cc0
0000
0000
3030
3030
3030
3030
3030
3830
1ff0
0ff0
0000
0000
0000
0000
ENDCHAR
STARTCHAR germandbls
ENCODING 223
SWIDTH 600 0
DWIDTH 12 0
BBX 12 20 0 -4
BITMAP
0000
0000
0f00
1f80
39c0
30c0
30c0
30c0
33c0
33e0
3070
3030
3030
3070
33e0
33c0
3000
3000
3000
3000
ENDCHAR
STARTCHAR currency
ENCODING 164
SWIDTH 600 0
DWIDTH 12 0
BBX 12 20 0 -4
BITMAP
0000
0000
0000
0000
0000
0000
3030
3870
1fe0
0fc0
0cc0
0cc0
0fc0
1fe0
3870
3030
0000
0000
0000
0000
ENDCHAR
STARTCHAR Eacute
ENCODING 201
SWIDTH 600 0
DWIDTH 12 0
BBX 12 20 0 -4
BITMAP
0000
0000
00c0
01c0
0380
0300
3ff0
3ff0
3000
3000
3fc0
3fc0
3000
3000
3ff0
3ff0
0000
0000
0000
0000
ENDCHAR
STARTCHAR D.narrow
ENCODING 61908
SWIDTH 600 0
DWIDTH 12 0
BBX 12 20 0 -4
BITMAP
0000
0000
0fc0
0fe0
0c70
0c30
0c30
0c30
0c30
0c30
0c30
0c30
0c30
0c70
0fe0
0fc0
0000
0000
0000
0000
ENDCHAR
STARTCHAR Aring
ENCODING 197
SWIDTH 600 0
DWIDTH 12 0
BBX 12 20 0 -4
BITMAP
0000
0000
0300
0300
0000
0000
0fc0
1fe0
3870
3030
3ff0
3ff0
3030
3030
3030
3030
0000
0000
0000
0000
ENDCHAR
STARTCHAR eacute
ENCODING 233
SWIDTH 600 0
DWIDTH 12 0
BBX 12 20 0 -4
BITMAP
0000
0000
00c0
01c0
0380
0300
0fc0
1fe0
3870
3030
3ff0
3ff0
3000
3800
1fc0
0fc0
0000
0000
0000
0000
ENDCHAR
STARTCHAR aring
ENCODING 229
SWIDTH 600 0
DWIDTH 12 0
BBX 12 20 0 -4
BITMAP
0000
0000
0300
0300
0000
0000
0fc0
0fe0
0070
0030
0ff0
1ff0
3830
3830
1ff0
0ff0
0000
0000
0000
0000
ENDCHAR
STARTCHAR ccedilla
ENCODING 231
SWIDTH 600 0
DWIDTH 12 0
BBX 12 20 0 -4
BITMAP
0000
0000
0000
0000
0000
0000
0ff0
1ff0
3800
3000
3000
3000
3000
3800
1ff0
0ff0
00c0
01c0
0380
0300
ENDCHAR
STARTCHAR ugrave
ENCODING 249
SWIDTH 600 0
DWIDTH 12 0
BBX 12 20 0 -4
BITMAP
0000
0000
0c00
0e00
0700
0300
3030
3030
3030
3030
3030
3030
3030
3830
1ff0
0ff0
0000
0000
0000
0000
ENDCHAR
STARTCHAR agrave
ENCODING 224
SWIDTH 600 0
DWIDTH 12 0
BBX 12 20 0 -4
BITMAP
0000
0000
0c00
0e00
0700
0300
0fc0
0fe0
0070
0030
0ff0
1ff0
3830
3830
1ff0
0ff0
0000
0000
0000
0000
ENDCHAR
STARTCHAR ograve
ENCODING 242
SWIDTH 600 0
DWIDTH 12 0
BBX 12 20 0 -4
BITMAP
0000
0000
0c00
0e00
0700
0300
0000
0000
0fc0
1fe0
3870
3030
3030
3870
1fe0
0fc0
0000
0000
0000
0000
ENDCHAR
STARTCHAR egrave
ENCODING 232
SWIDTH 600 0
DWIDTH 12 0
BBX 12 20 0 -4
BITMAP
0000
0000
0c00
0e00
0700
0300
0fc0
1fe0
3870
3030
3ff0
3ff0
3000
3800
1fc0
0fc0
0000
0000
0000
0000
ENDCHAR
STARTCHAR igrave
ENCODING 236
SWIDTH 600 0
DWIDTH 12 0
BBX 12 20 0 -4
BITMAP
0000
0000
0c00
0e00
0700
0300
0000
0000
0f00
0f00
0300
0300
0300
0300
0fc0
0fc0
0000
0000
0000
0000
ENDCHAR
STARTCHAR idieresis
ENCODING 239
SWIDTH 600 0
DWIDTH 12 0
BBX 12 20 0 -4
BITMAP
0000
0000
0cc0
0cc0
0000
0000
0f00
0f00
0300
0300
0300
0300
0300
0300
0fc0
0fc0
0000
0000
0000
0000
ENDCHAR
STARTCHAR edieresis
ENCODING 235
SWIDTH 600 0
DWIDTH 12 0
BBX 12 20 0 -4
BITMAP
0000
0000
0cc0
0cc0
0000
0000
0fc0
1fe0
3870
3030
3ff0
3ff0
3000
3800
1fc0
0fc0
0000
0000
0000
0000
ENDCHAR
STARTCHAR ecircumflex
ENCODING 234
SWIDTH 600 0
DWIDTH 12 0
BBX 12 20 0 -4
BITMAP
0000
0000
0300
0780
0fc0
0cc0
0fc0
1fe0
3870
3030
3ff0
3ff0
3000
3800
1fc0
0fc0
0000
0000
0000
0000
ENDCHAR
STARTCHAR ugrave.roundjoined
ENCODING 61910
SWIDTH 600 0
DWIDTH 12 0
BBX 12 20 0 -4
BITMAP
0000
0000
0300
0380
01c0
00e0
3070
3030
3030
3030
3030
3030
3030
3870
1fe0
0fc0
0000
0000
0000
0000
ENDCHAR
STARTCHAR icircumflex
ENCODING 238
SWIDTH 600 0
DWIDTH 12 0
BBX 12 20 0 -4
BITMAP
0000
0000
0300
0780
0fc0
0cc0
0000
0000
0f00
0f00
0300
0300
0300
0300
0fc0
0fc0
0000
0000
0000
0000
ENDCHAR
STARTCHAR acircumflex
ENCODING 226
SWIDTH 600 0
DWIDTH 12 0
BBX 12 20 0 -4
BITMAP
0000
0000
0300
0780
0fc0
0cc0
0fc0
0fe0
0070
0030
0ff0
1ff0
3830
3830
1ff0
0ff0
0000
0000
0000
0000
ENDCHAR
STARTCHAR ocircumflex.large
ENCODING 61911
SWIDTH 600 0
DWIDTH 12 0
BBX 12 20 0 -4
BITMAP
0000
0000
0300
0780
0fc0
0cc0
0fc0
1fe0
3870
3030
3030
3030
3030
3870
1fe0
0fc0
0000
0000
0000
0000
ENDCHAR
STARTCHAR ucircumflex
ENCODING 251
SWIDTH 600 0
DWIDTH 12 0
BBX 12 20 0 -4
BITMAP
0000
0000
0300
0780
0fc0
0cc0
0000
0000
3030
3030
3030
3030
3030
3830
1ff0
0ff0
0000
0000
0000
0000
ENDCHAR
STARTCHAR ccedilla.square
ENCODING 61912
SWIDTH 600 0
DWIDTH 12 0
BBX 12 20 0 -4
BITMAP
0000
0000
0000
0000
0000
0000
0ff0
1ff0
3800
3000
3000
3000
3000
3800
1ff0
0ff0
00c0
00c0
03c0
03c0
ENDCHAR
STARTCHAR uni05D0
ENCODING 1488
SWIDTH 600 0
DWIDTH 12 0
BBX 12 20 0 -4
BITMAP
0000
0000
0000
0000
3030
3830
1c30
1e30
3f30
33f0
31e0
30e0
3070
3030
3030
3030
0000
0000
0000
0000
ENDCHAR
STARTCHAR uni05D1
ENCODING 1489
SWIDTH 600 0
DWIDTH 12 0
BBX 12 20 0 -4
BITMAP
0000
0000
0000
0000
0fc0
0fc0
00c0
00c0
00c0
00c0
00c0
00c0
00c0
00c0
3ff0
3ff0
0000
0000
0000
0000
ENDCHAR
STARTCHAR uni05D2
ENCODING 1490
SWIDTH 600 0
DWIDTH 12 0
BBX 12 20 0 -4
BITMAP
0000
0000
0000
0000
00f0
00f0
0030
0030
0030
0030
00f0
01f0
03b0
0730
0e30
0c30
0000
0000
0000
0000
ENDCHAR
STARTCHAR uni05D3
ENCODING 1491
SWIDTH 600 0
DWIDTH 12 0
BBX 12 20 0 -4
BITMAP
0000
0000
0000
0000
3ff0
3ff0
00c0
00c0
00c0
00c0
00c0
00c0
00c0
00c0
00c0
00c0
0000
0000
0000
0000
ENDCHAR
STARTCHAR uni05D4
ENCODING 1492
SWIDTH 600 0
DWIDTH 12 0
BBX 12 20 0 -4
BITMAP
0000
0000
0000
0000
3ff0
3ff0
0030
0030
0030
0030
3030
3030
3030
3030
3030
3030
0000
0000
0000
0000
ENDCHAR
STARTCHAR uni05D5
ENCODING 1493
SWIDTH 600 0
DWIDTH 12 0
BBX 12 20 0 -4
BITMAP
0000
0000
0000
0000
0f00
0f00
0300
0300
0300
0300
0300
0300
0300
0300
0300
0300
0000
0000
0000
0000
ENDCHAR
STARTCHAR uni05D6
ENCODING 1494
SWIDTH 600 0
DWIDTH 12 0
BBX 12 20 0 -4
BITMAP
0000
0000
0000
0000
0fc0
0fc0
0300
0700
0e00
0e00
0700
0300
0300
0300
0300
0300
0000
0000
0000
0000
ENDCHAR
STARTCHAR uni05D7
ENCODING 1495
SWIDTH 600 0
DWIDTH 12 0
BBX 12 20 0 -4
BITMAP
0000
0000
0000
0000
3ff0
3ff0
3030
3030
3030
3030
3030
3030
3030
3030
3030
3030
0000
0000
0000
0000
ENDCHAR
STARTCHAR uni05D8
ENCODING 1496
SWIDTH 600 0
DWIDTH 12 0
BBX 12 20 0 -4
BITMAP
0000
0000
0000
0000
3030
3030
30f0
31f0
33b0
3330
3030
3030
3030
3030
3ff0
3ff0
0000
0000
0000
0000
ENDCHAR
STARTCHAR uni05D9
ENCODING 1497
SWIDTH 600 0
DWIDTH 12 0
BBX 12 20 0 -4
BITMAP
0000
0000
0000
0000
0f00
0f00
0300
0300
0000
0000
0000
0000
0000
0000
0000
0000
0000
0000
0000
0000
ENDCHAR
STARTCHAR uni05DA
ENCODING 1498
SWIDTH 600 0
DWIDTH 12 0
BBX 12 20 0 -4
BITMAP
0000
0000
0000
0000
3ff0
3ff0
0030
0030
0030
0030
0030
0030
0030
0030
0030
0030
0030
0030
0000
0000
ENDCHAR
STARTCHAR uni05DB
ENCODING 1499
SWIDTH 600 0
DWIDTH 12 0
BBX 12 20 0 -4
BITMAP
0000
0000
0000
0000
3ff0
3ff0
0030
0030
0030
0030
0030
0030
0030
0030
3ff0
3ff0
0000
0000
0000
0000
ENDCHAR
STARTCHAR uni05DC
ENCODING 1500
SWIDTH 600 0
DWIDTH 12 0
BBX 12 20 0 -4
BITMAP
0000
0000
3000
3000
3ff0
3ff0
0030
0030
0030
0030
0030
0070
00e0
01c0
0f80
0f00
0000
0000
0000
0000
ENDCHAR
STARTCHAR uni05DD
ENCODING 1501
SWIDTH 600 0
DWIDTH 12 0
BBX 12 20 0 -4
BITMAP
0000
0000
0000
0000
3ff0
3ff0
3030
3030
3030
3030
3030
3030
3030
3030
3ff0
3ff0
0000
0000
0000
0000
ENDCHAR
STARTCHAR uni05DE
ENCODING 1502
SWIDTH 600 0
DWIDTH 12 0
BBX 12 20 0 -4
BITMAP
0000
0000
0000
0000
33c0
3fe0
1e70
1c30
3830
3030
3030
3030
3030
3030
33f0
33f0
0000
0000
0000
0000
ENDCHAR
STARTCHAR uni05DF
ENCODING 1503
SWIDTH 600 0
DWIDTH 12 0
BBX 12 20 0 -4
BITMAP
0000
0000
0000
0000
0f00
0f00
0300
0300
0300
0300
0300
0300
0300
0300
0300
0300
0300
0300
0300
0300
ENDCHAR
STARTCHAR uni05E0
ENCODING 1504
SWIDTH 600 0
DWIDTH 12 0
BBX 12 20 0 -4
BITMAP
0000
0000
0000
0000
03c0
03c0
00c0
00c0
00c0
00c0
00c0
00c0
00c0
00c0
0fc0
0fc0
0000
0000
0000
0000
ENDCHAR
STARTCHAR uni05E1
ENCODING 1505
SWIDTH 600 0
DWIDTH 12 0
BBX 12 20 0 -4
BITMAP
0000
0000
0000
0000
3ff0
3ff0
0c30
1c30
3830
3030
3030
3030
3030
3870
1fe0
0fc0
0000
0000
0000
0000
ENDCHAR
STARTCHAR uni05E2
ENCODING 1506
SWIDTH 600 0
DWIDTH 12 0
BBX 12 20 0 -4
BITMAP
0000
0000
0000
0000
0c30
0c30
0c30
0c30
0c30
0c30
0c30
0c70
0ce0
0dc0
3f80
3f00
0000
0000
0000
0000
ENDCHAR
STARTCHAR uni05E3
ENCODING 1507
SWIDTH 600 0
DWIDTH 12 0
BBX 12 20 0 -4
BITMAP
0000
0000
0000
0000
3ff0
3ff0
0c30
0c30
0f30
0f30
0030
0030
0030
0030
0030
0030
0030
0030
0000
0000
ENDCHAR
STARTCHAR uni05E4
ENCODING 1508
SWIDTH 600 0
DWIDTH 12 0
BBX 12 20 0 -4
BITMAP
0000
0000
0000
0000
3ff0
3ff0
0c30
0c30
0f30
0f30
0030
0030
0030
0030
3ff0
3ff0
0000
0000
0000
0000
ENDCHAR
STARTCHAR uni05E5
ENCODING 1509
SWIDTH 600 0
DWIDTH 12 0
BBX 12 20 0 -4
BITMAP
0000
0000
0000
0000
3c30
3c70
0ce0
0dc0
0f80
0f00
0c00
0c00
0c00
0c00
0c00
0c00
0c00
0c00
0000
0000
ENDCHAR
STARTCHAR uni05E6
ENCODING 1510
SWIDTH 600 0
DWIDTH 12 0
BBX 12 20 0 -4
BITMAP
0000
0000
0000
0000
3030
3030
3030
3870
1ce0
0fc0
0780
0380
01c0
00c0
3ff0
3ff0
0000
0000
0000
0000
ENDCHAR
STARTCHAR uni05E7
ENCODING 1511
SWIDTH 600 0
DWIDTH 12 0
BBX 12 20 0 -4
BITMAP
0000
0000
0000
0000
3ff0
3ff0
0030
0030
0c30
0c30
0c30
0c70
0ce0
0cc0
0c00
0c00
0c00
0c00
0000
0000
ENDCHAR
STARTCHAR uni05E8
ENCODING 1512
SWIDTH 600 0
DWIDTH 12 0
BBX 12 20 0 -4
BITMAP
0000
0000
0000
0000
3ff0
3ff0
0030
0030
0030
0030
0030
0030
0030
0030
0030
0030
0000
0000
0000
0000
ENDCHAR
STARTCHAR uni05E9
ENCODING 1513
SWIDTH 600 0
DWIDTH 12 0
BBX 12 20 0 -4
BITMAP
0000
0000
0000
0000
3330
3330
3330
3330
3330
3730
3e30
3c30
3030
3070
3fe0
3fc0
0000
0000
0000
0000
ENDCHAR
STARTCHAR uni05EA
ENCODING 1514
SWIDTH 600 0
DWIDTH 12 0
BBX 12 20 0 -4
BITMAP
0000
0000
0000
0000
0ff0
0ff0
0c30
0c30
0c30
0c30
0c30
0c30
0c30
0c30
3c30
3c30
0000
0000
0000
0000
ENDCHAR
STARTCHAR oldsheqel
ENCODING 61913
SWIDTH 600 0
DWIDTH 12 0
BBX 12 20 0 -4
BITMAP
0000
0000
0000
0000
0000
0000
3330
3330
3330
3b70
1fe0
0fc0
0000
0000
0000
0000
0000
0000
0000
0000
ENDCHAR
STARTCHAR uni044B
ENCODING 1099
SWIDTH 600 0
DWIDTH 12 0
BBX 12 20 0 -4
BITMAP
0000
0000
0000
0000
0000
0000
3030
3030
3030
3030
3f30
3f30
3330
3330
3f30
3f30
0000
0000
0000
0000
ENDCHAR
STARTCHAR uni042E
ENCODING 1070
SWIDTH 600 0
DWIDTH 12 0
BBX 12 20 0 -4
BITMAP
0000
0000
30c0
31e0
33f0
3330
3330
3330
3f30
3f30
3330
3330
3330
33f0
31e0
30c0
0000
0000
0000
0000
ENDCHAR
STARTCHAR uni0410
ENCODING 1040
SWIDTH 600 0
DWIDTH 12 0
BBX 12 20 0 -4
BITMAP
0000
0000
0fc0
1fe0
3870
3030
3030
3030
3030
3030
3ff0
3ff0
3030
3030
3030
3030
0000
0000
0000
0000
ENDCHAR
STARTCHAR uni0411
ENCODING 1041
SWIDTH 600 0
DWIDTH 12 0
BBX 12 20 0 -4
BITMAP
0000
0000
3ff0
3ff0
3000
3000
3000
3000
3ff0
3ff0
3030
3030
3030
3030
3ff0
3ff0
0000
0000
0000
0000
ENDCHAR
STARTCHAR uni0426
ENCODING 1062
SWIDTH 600 0
DWIDTH 12 0
BBX 12 20 0 -4
BITMAP
0000
0000
30c0
30c0
30c0
30c0
30c0
30c0
30c0
30c0
30c0
30c0
30c0
30c0
3ff0
3ff0
0030
0030
0000
0000
ENDCHAR
STARTCHAR uni0414
ENCODING 1044
SWIDTH 600 0
DWIDTH 12 0
BBX 12 20 0 -4
BITMAP
0000
0000
03c0
07c0
0ec0
0cc0
0cc0
0cc0
0cc0
0cc0
0cc0
0cc0
0cc0
0cc0
3ff0
3ff0
3030
3030
0000
0000
ENDCHAR
STARTCHAR uni0415
ENCODING 1045
SWIDTH 600 0
DWIDTH 12 0
BBX 12 20 0 -4
BITMAP
0000
0000
3ff0
3ff0
3000
3000
3000
3000
3fc0
3fc0
3000
3000
3000
3000
3ff0
3ff0
0000
0000
0000
0000
ENDCHAR
STARTCHAR uni0424
ENCODING 1060
SWIDTH 600 0
DWIDTH 12 0
BBX 12 20 0 -4
BITMAP
0000
0000
0300
0300
3ff0
3ff0
3330
3330
3330
3330
3330
3330
3ff0
3ff0
0300
0300
0000
0000
0000
0000
ENDCHAR
STARTCHAR uni0413
ENCODING 1043
SWIDTH 600 0
DWIDTH 12 0
BBX 12 20 0 -4
BITMAP
0000
0000
3ff0
3ff0
3000
3000
3000
3000
3000
3000
3000
3000
3000
3000
3000
3000
0000
0000
0000
0000
ENDCHAR
STARTCHAR uni0425
ENCODING 1061
SWIDTH 600 0
DWIDTH 12 0
BBX 12 20 0 -4
BITMAP
0000
0000
3030
3030
3030
3870
1ce0
0fc0
0780
0780
0fc0
1ce0
3870
3030
3030
3030
0000
0000
0000
0000
ENDCHAR
STARTCHAR uni0418
ENCODING 1048
SWIDTH 600 0
DWIDTH 12 0
BBX 12 20 0 -4
BITMAP
0000
0000
3030
3030
3030
3030
30f0
31f0
33b0
3730
3e30
3c30
3030
3030
3030
3030
0000
0000
0000
0000
ENDCHAR
STARTCHAR uni0419
ENCODING 1049
SWIDTH 600 0
DWIDTH 12 0
BBX 12 20 0 -4
BITMAP
0000
0000
3330
3330
3030
3030
30f0
31f0
33b0
3730
3e30
3c30
3030
3030
3030
3030
0000
0000
0000
0000
ENDCHAR
STARTCHAR uni041A
ENCODING 1050
SWIDTH 600 0
DWIDTH 12 0
BBX 12 20 0 -4
BITMAP
0000
0000
3030
3070
30e0
31c0
3380
3700
3e00
3e00
3700
3380
31c0
30e0
3070
3030
0000
0000
0000
0000
ENDCHAR
STARTCHAR uni041B
ENCODING 1051
SWIDTH 600 0
DWIDTH 12 0
BBX 12 20 0 -4
BITMAP
0000
0000
03f0
07f0
0e30
0c30
0c30
0c30
0c30
0c30
0c30
0c30
0c30
0c30
3c30
3c30
0000
0000
0000
0000
ENDCHAR
STARTCHAR uni041C
ENCODING 1052
SWIDTH 600 0
DWIDTH 12 0
BBX 12 20 0 -4
BITMAP
0000
0000
3030
3030
3cf0
3ff0
37b0
3330
3330
3330
3030
3030
3030
3030
3030
3030
0000
0000
0000
0000
ENDCHAR
STARTCHAR uni041D
ENCODING 1053
SWIDTH 600 0
DWIDTH 12 0
BBX 12 20 0 -4
BITMAP
0000
0000
3030
3030
3030
3030
3030
3030
3ff0
3ff0
3030
3030
3030
3030
3030
3030
0000
0000
0000
0000
ENDCHAR
STARTCHAR uni041E
ENCODING 1054
SWIDTH 600 0
DWIDTH 12 0
BBX 12 20 0 -4
BITMAP
0000
0000
0fc0
1fe0
3870
3030
3030
3030
3030
3030
3030
3030
3030
3870
1fe0
0fc0
0000
0000
0000
0000
ENDCHAR
STARTCHAR uni041F
ENCODING 1055
SWIDTH 600 0
DWIDTH 12 0
BBX 12 20 0 -4
BITMAP
0000
0000
3ff0
3ff0
3030
3030
3030
3030
3030
3030
3030
3030
3030
3030
3030
3030
0000
0000
0000
0000
ENDCHAR
STARTCHAR uni042F
ENCODING 1071
SWIDTH 600 0
DWIDTH 12 0
BBX 12 20 0 -4
BITMAP
0000
0000
0ff0
1ff0
3830
3030
3030
3830
1ff0
0ff0
0330
0730
0e30
1c30
3830
3030
0000
0000
0000
0000
ENDCHAR
STARTCHAR uni0420
ENCODING 1056
SWIDTH 600 0
DWIDTH 12 0
BBX 12 20 0 -4
BITMAP
0000
0000
3fc0
3fe0
3070
3030
3030
3070
3fe0
3fc0
3000
3000
3000
3000
3000
3000
0000
0000
0000
0000
ENDCHAR
STARTCHAR uni0421
ENCODING 1057
SWIDTH 600 0
DWIDTH 12 0
BBX 12 20 0 -4
BITMAP
0000
0000
0fc0
1fe0
3870
3030
3000
3000
3000
3000
3000
3000
3030
3870
1fe0
0fc0
0000
0000
0000
0000
ENDCHAR
STARTCHAR uni0422
ENCODING 1058
SWIDTH 600 0
DWIDTH 12 0
BBX 12 20 0 -4
BITMAP
0000
0000
3ff0
3ff0
0300
0300
0300
0300
0300
0300
0300
0300
0300
0300
0300
0300
0000
0000
0000
0000
ENDCHAR
STARTCHAR uni0423
ENCODING 1059
SWIDTH 600 0
DWIDTH 12 0
BBX 12 20 0 -4
BITMAP
0000
0000
3030
3030
3030
3030
3030
3030
3ff0
3ff0
0030
0030
0030
0030
3ff0
3ff0
0000
0000
0000
0000
ENDCHAR
STARTCHAR uni0416
ENCODING 1046
SWIDTH 600 0
DWIDTH 12 0
BBX 12 20 0 -4
BITMAP
0000
0000
3330
3330
3330
3330
3330
3b70
1fe0
1fe0
3b70
3330
3330
3330
3330
3330
0000
0000
0000
0000
ENDCHAR
STARTCHAR uni0412
ENCODING 1042
SWIDTH 600 0
DWIDTH 12 0
BBX 12 20 0 -4
BITMAP
0000
0000
3fc0
3fe0
3070
3030
3030
3070
3fe0
3fe0
3070
3030
3030
3070
3fe0
3fc0
0000
0000
0000
0000
ENDCHAR
STARTCHAR uni042C
ENCODING 1068
SWIDTH 600 0
DWIDTH 12 0
BBX 12 20 0 -4
BITMAP
0000
0000
3000
3000
3000
3000
3000
3000
3ff0
3ff0
3030
3030
3030
3030
3ff0
3ff0
0000
0000
0000
0000
ENDCHAR
STARTCHAR uni042A
ENCODING 1066
SWIDTH 600 0
DWIDTH 12 0
BBX 12 20 0 -4
BITMAP
0000
0000
3c00
3c00
0c00
0c00
0c00
0c00
0ff0
0ff0
0c30
0c30
0c30
0c30
0ff0
0ff0
0000
0000
0000
0000
ENDCHAR
STARTCHAR uni0417
ENCODING 1047
SWIDTH 600 0
DWIDTH 12 0
BBX 12 20 0 -4
BITMAP
0000
0000
0fc0
1fe0
3870
3030
0030
0070
03e0
03e0
0070
0030
3030
3870
1fe0
0fc0
0000
0000
0000
0000
ENDCHAR
STARTCHAR uni0428
ENCODING 1064
SWIDTH 600 0
DWIDTH 12 0
BBX 12 20 0 -4
BITMAP
0000
0000
3330
3330
3330
3330
3330
3330
3330
3330
3330
3330
3330
3330
3ff0
3ff0
0000
0000
0000
0000
ENDCHAR
STARTCHAR uni042D
ENCODING 1069
SWIDTH 600 0
DWIDTH 12 0
BBX 12 20 0 -4
BITMAP
0000
0000
0f00
1f80
39c0
30e0
0070
0030
03f0
03f0
0030
0070
30e0
39c0
1f80
0f00
0000
0000
0000
0000
ENDCHAR
STARTCHAR uni0429
ENCODING 1065
SWIDTH 600 0
DWIDTH 12 0
BBX 12 20 0 -4
BITMAP
0000
0000
3330
3330
3330
3330
3330
3330
3330
3330
3330
3330
3330
3330
3ff0
3ff0
0030
0030
0000
0000
ENDCHAR
STARTCHAR uni0427
ENCODING 1063
SWIDTH 600 0
DWIDTH 12 0
BBX 12 20 0 -4
BITMAP
0000
0000
3030
3030
3030
3030
3030
3030
3ff0
3ff0
0030
0030
0030
0030
0030
0030
0000
0000
0000
0000
ENDCHAR
STARTCHAR uni042B
ENCODING 1067
SWIDTH 600 0
DWIDTH 12 0
BBX 12 20 0 -4
BITMAP
0000
0000
3030
3030
3030
3030
3030
3030
3f30
3f30
3330
3330
3330
3330
3f30
3f30
0000
0000
0000
0000
ENDCHAR
STARTCHAR uni044E
ENCODING 1102
SWIDTH 600 0
DWIDTH 12 0
BBX 12 20 0 -4
BITMAP
0000
0000
0000
0000
0000
0000
30c0
31e0
33f0
3330
3f30
3f30
3330
33f0
31e0
30c0
0000
0000
0000
0000
ENDCHAR
STARTCHAR uni0430
ENCODING 1072
SWIDTH 600 0
DWIDTH 12 0
BBX 12 20 0 -4
BITMAP
0000
0000
0000
0000
0000
0000
0fc0
0fe0
0070
0030
0ff0
1ff0
3830
3830
1ff0
0ff0
0000
0000
0000
0000
ENDCHAR
STARTCHAR uni0431
ENCODING 1073
SWIDTH 600 0
DWIDTH 12 0
BBX 12 20 0 -4
BITMAP
0000
0000
0fc0
1fc0
3800
3000
3fc0
3fe0
3070
3030
3030
3030
3030
3070
3fe0
3fc0
0000
0000
0000
0000
ENDCHAR
STARTCHAR uni0446
ENCODING 1094
SWIDTH 600 0
DWIDTH 12 0
BBX 12 20 0 -4
BITMAP
0000
0000
0000
0000
0000
0000
30c0
30c0
30c0
30c0
30c0
30c0
30c0
30c0
3ff0
3ff0
0030
0030
0000
0000
ENDCHAR
STARTCHAR uni0434
ENCODING 1076
SWIDTH 600 0
DWIDTH 12 0
BBX 12 20 0 -4
BITMAP
0000
0000
0000
0000
0000
0000
03c0
07c0
0ec0
0cc0
0cc0
0cc0
0cc0
0cc0
3ff0
3ff0
3030
3030
0000
0000
ENDCHAR
STARTCHAR uni0435
ENCODING 1077
SWIDTH 600 0
DWIDTH 12 0
BBX 12 20 0 -4
BITMAP
0000
0000
0000
0000
0000
0000
0fc0
1fe0
3870
3030
3ff0
3ff0
3000
3800
1fc0
0fc0
0000
0000
0000
0000
ENDCHAR
STARTCHAR uni0444
ENCODING 1092
SWIDTH 600 0
DWIDTH 12 0
BBX 12 20 0 -4
BITMAP
0000
0000
0000
0000
0300
0300
0fc0
1fe0
3b70
3330
3330
3330
3330
3b70
1fe0
0fc0
0300
0300
0000
0000
ENDCHAR
STARTCHAR uni0433
ENCODING 1075
SWIDTH 600 0
DWIDTH 12 0
BBX 12 20 0 -4
BITMAP
0000
0000
0000
0000
0000
0000
3ff0
3ff0
3000
3000
3000
3000
3000
3000
3000
3000
0000
0000
0000
0000
ENDCHAR
STARTCHAR uni0445
ENCODING 1093
SWIDTH 600 0
DWIDTH 12 0
BBX 12 20 0 -4
BITMAP
0000
0000
0000
0000
0000
0000
3030
3870
1ce0
0fc0
0780
0780
0fc0
1ce0
3870
3030
0000
0000
0000
0000
ENDCHAR
STARTCHAR uni0438
ENCODING 1080
SWIDTH 600 0
DWIDTH 12 0
BBX 12 20 0 -4
BITMAP
0000
0000
0000
0000
0000
0000
3030
3030
30f0
31f0
33b0
3730
3e30
3c30
3030
3030
0000
0000
0000
0000
ENDCHAR
STARTCHAR uni0439
ENCODING 1081
SWIDTH 600 0
DWIDTH 12 0
BBX 12 20 0 -4
BITMAP
0000
0000
0000
0000
0300
0300
3030
3030
30f0
31f0
33b0
3730
3e30
3c30
3030
3030
0000
0000
0000
0000
ENDCHAR
STARTCHAR uni043A
ENCODING 1082
SWIDTH 600 0
DWIDTH 12 0
BBX 12 20 0 -4
BITMAP
0000
0000
0000
0000
0000
0000
3030
3070
30e0
31c0
3f80
3f80
31c0
30e0
3070
3030
0000
0000
0000
0000
ENDCHAR
STARTCHAR uni043B
ENCODING 1083
SWIDTH 600 0
DWIDTH 12 0
BBX 12 20 0 -4
BITMAP
0000
0000
0000
0000
0000
0000
03f0
07f0
0e30
0c30
0c30
0c30
0c30
0c30
3c30
3c30
0000
0000
0000
0000
ENDCHAR
STARTCHAR uni043C
ENCODING 1084
SWIDTH 600 0
DWIDTH 12 0
BBX 12 20 0 -4
BITMAP
0000
0000
0000
0000
0000
0000
3030
3030
3cf0
3ff0
37b0
3330
3030
3030
3030
3030
0000
0000
0000
0000
ENDCHAR
STARTCHAR uni043D
ENCODING 1085
SWIDTH 600 0
DWIDTH 12 0
BBX 12 20 0 -4
BITMAP
0000
0000
0000
0000
0000
0000
3030
3030
3030
3030
3ff0
3ff0
3030
3030
3030
3030
0000
0000
0000
0000
ENDCHAR
STARTCHAR uni043E
ENCODING 1086
SWIDTH 600 0
DWIDTH 12 0
BBX 12 20 0 -4
BITMAP
0000
0000
0000
0000
0000
0000
0fc0
1fe0
3870
3030
3030
3030
3030
3870
1fe0
0fc0
0000
0000
0000
0000
ENDCHAR
STARTCHAR uni043F
ENCODING 1087
SWIDTH 600 0
DWIDTH 12 0
BBX 12 20 0 -4
BITMAP
0000
0000
0000
0000
0000
0000
3ff0
3ff0
3030
3030
3030
3030
3030
3030
3030
3030
0000
0000
0000
0000
ENDCHAR
STARTCHAR uni044F
ENCODING 1103
SWIDTH 600 0
DWIDTH 12 0
BBX 12 20 0 -4
BITMAP
0000
0000
0000
0000
0000
0000
0ff0
1ff0
3830
3830
1ff0
0ff0
0330
0730
3e30
3c30
0000
0000
0000
0000
ENDCHAR
STARTCHAR uni0440
ENCODING 1088
SWIDTH 600 0
DWIDTH 12 0
BBX 12 20 0 -4
BITMAP
0000
0000
0000
0000
0000
0000
3fc0
3fe0
3070
3030
3030
3030
3030
3070
3fe0
3fc0
3000
3000
3000
3000
ENDCHAR
STARTCHAR uni0441
ENCODING 1089
SWIDTH 600 0
DWIDTH 12 0
BBX 12 20 0 -4
BITMAP
0000
0000
0000
0000
0000
0000
0fc0
1fe0
3870
3030
3000
3000
3030
3870
1fe0
0fc0
0000
0000
0000
0000
ENDCHAR
STARTCHAR uni0442
ENCODING 1090
SWIDTH 600 0
DWIDTH 12 0
BBX 12 20 0 -4
BITMAP
0000
0000
0000
0000
0000
0000
3ff0
3ff0
0300
0300
0300
0300
0300
0300
0300
0300
0000
0000
0000
0000
ENDCHAR
STARTCHAR uni0443
ENCODING 1091
SWIDTH 600 0
DWIDTH 12 0
BBX 12 20 0 -4
BITMAP
0000
0000
0000
0000
0000
0000
3030
3030
3030
3030
3030
3030
3030
3830
1ff0
0ff0
0030
0070
0fe0
0fc0
ENDCHAR
STARTCHAR uni0436
ENCODING 1078
SWIDTH 600 0
DWIDTH 12 0
BBX 12 20 0 -4
BITMAP
0000
0000
0000
0000
0000
0000
3330
3330
3330
3b70
1fe0
1fe0
3b70
3330
3330
3330
0000
0000
0000
0000
ENDCHAR
STARTCHAR uni0432
ENCODING 1074
SWIDTH 600 0
DWIDTH 12 0
BBX 12 20 0 -4
BITMAP
0000
0000
0000
0000
0000
0000
3fc0
3fe0
3070
3070
3fe0
3fe0
3070
3070
3fe0
3fc0
0000
0000
0000
0000
ENDCHAR
STARTCHAR uni044C
ENCODING 1100
SWIDTH 600 0
DWIDTH 12 0
BBX 12 20 0 -4
BITMAP
0000
0000
0000
0000
0000
0000
3000
3000
3000
3000
3fc0
3fe0
3070
3070
3fe0
3fc0
0000
0000
0000
0000
ENDCHAR
STARTCHAR uni044A
ENCODING 1098
SWIDTH 600 0
DWIDTH 12 0
BBX 12 20 0 -4
BITMAP
0000
0000
0000
0000
0000
0000
3c00
3c00
0c00
0c00
0fc0
0fe0
0c70
0c70
0fe0
0fc0
0000
0000
0000
0000
ENDCHAR
STARTCHAR uni0437
ENCODING 1079
SWIDTH 600 0
DWIDTH 12 0
BBX 12 20 0 -4
BITMAP
0000
0000
0000
0000
0000
0000
0fc0
1fe0
3870
3070
03e0
03e0
3070
3870
1fe0
0fc0
0000
0000
0000
0000
ENDCHAR
STARTCHAR uni0448
ENCODING 1096
SWIDTH 600 0
DWIDTH 12 0
BBX 12 20 0 -4
BITMAP
0000
0000
0000
0000
0000
0000
3330
3330
3330
3330
3330
3330
3330
3330
3ff0
3ff0
0000
0000
0000
0000
ENDCHAR
STARTCHAR uni044D
ENCODING 1101
SWIDTH 600 0
DWIDTH 12 0
BBX 12 20 0 -4
BITMAP
0000
0000
0000
0000
0000
0000
0f00
1f80
39c0
30c0
03c0
03c0
30c0
39c0
1f80
0f00
0000
0000
0000
0000
ENDCHAR
STARTCHAR uni0449
ENCODING 1097
SWIDTH 600 0
DWIDTH 12 0
BBX 12 20 0 -4
BITMAP
0000
0000
0000
0000
0000
0000
3330
3330
3330
3330
3330
3330
3330
3330
3ff0
3ff0
0030
0030
0000
0000
ENDCHAR
STARTCHAR uni0447
ENCODING 1095
SWIDTH 600 0
DWIDTH 12 0
BBX 12 20 0 -4
BITMAP
0000
0000
0000
0000
0000
0000
3030
3030
3030
3030
3030
3830
1ff0
0ff0
0030
0030
0000
0000
0000
0000
ENDCHAR
STARTCHAR uni2003
ENCODING 8195
SWIDTH 600 0
DWIDTH 12 0
BBX 12 20 0 -4
BITMAP
0000
0000
0000
0000
0000
0000
0000
0000
0000
0000
0000
0000
0000
0000
0000
0000
0000
0000
0000
0000
ENDCHAR
STARTCHAR lfblock
ENCODING 9612
SWIDTH 600 0
DWIDTH 12 0
BBX 12 20 0 -4
BITMAP
fc00
fc00
fc00
fc00
fc00
fc00
fc00
fc00
fc00
fc00
fc00
fc00
fc00
fc00
fc00
fc00
fc00
fc00
fc00
fc00
ENDCHAR
STARTCHAR rtblock
ENCODING 9616
SWIDTH 600 0
DWIDTH 12 0
BBX 12 20 0 -4
BITMAP
03f0
03f0
03f0
03f0
03f0
03f0
03f0
03f0
03f0
03f0
03f0
03f0
03f0
03f0
03f0
03f0
03f0
03f0
03f0
03f0
ENDCHAR
STARTCHAR block
ENCODING 9608
SWIDTH 600 0
DWIDTH 12 0
BBX 12 20 0 -4
BITMAP
fff0
fff0
fff0
fff0
fff0
fff0
fff0
fff0
fff0
fff0
fff0
fff0
fff0
fff0
fff0
fff0
fff0
fff0
fff0
fff0
ENDCHAR
STARTCHAR u1FB00
ENCODING 129792
SWIDTH 600 0
DWIDTH 12 0
BBX 12 20 0 -4
BITMAP
fc00
fc00
fc00
fc00
fc00
fc00
0000
0000
0000
0000
0000
0000
0000
0000
0000
0000
0000
0000
0000
0000
ENDCHAR
STARTCHAR u1FB01
ENCODING 129793
SWIDTH 600 0
DWIDTH 12 0
BBX 12 20 0 -4
BITMAP
03f0
03f0
03f0
03f0
03f0
03f0
0000
0000
0000
0000
0000
0000
0000
0000
0000
0000
0000
0000
0000
0000
ENDCHAR
STARTCHAR u1FB02
ENCODING 129794
SWIDTH 600 0
DWIDTH 12 0
BBX 12 20 0 -4
BITMAP
fff0
fff0
fff0
fff0
fff0
fff0
0000
0000
0000
0000
0000
0000
0000
0000
0000
0000
0000
0000
0000
0000
ENDCHAR
STARTCHAR u1FB03
ENCODING 129795
SWIDTH 600 0
DWIDTH 12 0
BBX 12 20 0 -4
BITMAP
0000
0000
0000
0000
0000
0000
fc00
fc00
fc00
fc00
fc00
fc00
fc00
fc00
0000
0000
0000
0000
0000
0000
ENDCHAR
STARTCHAR u1FB04
ENCODING 129796
SWIDTH 600 0
DWIDTH 12 0
BBX 12 20 0 -4
BITMAP
fc00
fc00
fc00
fc00
fc00
fc00
fc00
fc00
fc00
fc00
fc00
fc00
fc00
fc00
0000
0000
0000
0000
0000
0000
ENDCHAR
STARTCHAR u1FB05
ENCODING 129797
SWIDTH 600 0
DWIDTH 12 0
BBX 12 20 0 -4
BITMAP
03f0
03f0
03f0
03f0
03f0
03f0
fc00
fc00
fc00
fc00
fc00
fc00
fc00
fc00
0000
0000
0000
0000
0000
0000
ENDCHAR
STARTCHAR u1FB06
ENCODING 129798
SWIDTH 600 0
DWIDTH 12 0
BBX 12 20 0 -4
BITMAP
fff0
fff0
fff0
fff0
fff0
fff0
fc00
fc00
fc00
fc00
fc00
fc00
fc00
fc00
0000
0000
0000
0000
0000
0000
ENDCHAR
STARTCHAR u1FB07
ENCODING 129799
SWIDTH 600 0
DWIDTH 12 0
BBX 12 20 0 -4
BITMAP
0000
0000
0000
0000
0000
0000
03f0
03f0
03f0
03f0
03f0
03f0
03f0
03f0
0000
0000
0000
0000
0000
0000
ENDCHAR
STARTCHAR u1FB08
ENCODING 129800
SWIDTH 600 0
DWIDTH 12 0
BBX 12 20 0 -4
BITMAP
fc00
fc00
fc00
fc00
fc00
fc00
03f0
03f0
03f0
03f0
03f0
03f0
03f0
03f0
0000
0000
0000
0000
0000
0000
ENDCHAR
STARTCHAR u1FB09
ENCODING 129801
SWIDTH 600 0
DWIDTH 12 0
BBX 12 20 0 -4
BITMAP
03f0
03f0
03f0
03f0
03f0
03f0
03f0
03f0
03f0
03f0
03f0
03f0
03f0
03f0
0000
0000
0000
0000
0000
0000
ENDCHAR
STARTCHAR u1FB0A
ENCODING 129802
SWIDTH 600 0
DWIDTH 12 0
BBX 12 20 0 -4
BITMAP
fff0
fff0
fff0
fff0
fff0
fff0
03f0
03f0
03f0
03f0
03f0
03f0
03f0
03f0
0000
0000
0000
0000
0000
0000
ENDCHAR
STARTCHAR u1FB0B
ENCODING 129803
SWIDTH 600 0
DWIDTH 12 0
BBX 12 20 0 -4
BITMAP
0000
0000
0000
0000
0000
0000
fff0
fff0
fff0
fff0
fff0
fff0
fff0
fff0
0000
0000
0000
0000
0000
0000
ENDCHAR
STARTCHAR u1FB0C
ENCODING 129804
SWIDTH 600 0
DWIDTH 12 0
BBX 12 20 0 -4
BITMAP
fc00
fc00
fc00
fc00
fc00
fc00
fff0
fff0
fff0
fff0
fff0
fff0
fff0
fff0
0000
0000
0000
0000
0000
0000
ENDCHAR
STARTCHAR u1FB0D
ENCODING 129805
SWIDTH 600 0
DWIDTH 12 0
BBX 12 20 0 -4
BITMAP
03f0
03f0
03f0
03f0
03f0
03f0
fff0
fff0
fff0
fff0
fff0
fff0
fff0
fff0
0000
0000
0000
0000
0000
0000
ENDCHAR
STARTCHAR u1FB0E
ENCODING 129806
SWIDTH 600 0
DWIDTH 12 0
BBX 12 20 0 -4
BITMAP
fff0
fff0
fff0
fff0
fff0
fff0
fff0
fff0
fff0
fff0
fff0
fff0
fff0
fff0
0000
0000
0000
0000
0000
0000
ENDCHAR
STARTCHAR u1FB0F
ENCODING 129807
SWIDTH 600 0
DWIDTH 12 0
BBX 12 20 0 -4
BITMAP
0000
0000
0000
0000
0000
0000
0000
0000
0000
0000
0000
0000
0000
0000
fc00
fc00
fc00
fc00
fc00
fc00
ENDCHAR
STARTCHAR u1FB10
ENCODING 129808
SWIDTH 600 0
DWIDTH 12 0
BBX 12 20 0 -4
BITMAP
fc00
fc00
fc00
fc00
fc00
fc00
0000
0000
0000
0000
0000
0000
0000
0000
fc00
fc00
fc00
fc00
fc00
fc00
ENDCHAR
STARTCHAR u1FB11
ENCODING 129809
SWIDTH 600 0
DWIDTH 12 0
BBX 12 20 0 -4
BITMAP
03f0
03f0
03f0
03f0
03f0
03f0
0000
0000
0000
0000
0000
0000
0000
0000
fc00
fc00
fc00
fc00
fc00
fc00
ENDCHAR
STARTCHAR u1FB12
ENCODING 129810
SWIDTH 600 0
DWIDTH 12 0
BBX 12 20 0 -4
BITMAP
fff0
fff0
fff0
fff0
fff0
fff0
0000
0000
0000
0000
0000
0000
0000
0000
fc00
fc00
fc00
fc00
fc00
fc00
ENDCHAR
STARTCHAR u1FB13
ENCODING 129811
SWIDTH 600 0
DWIDTH 12 0
BBX 12 20 0 -4
BITMAP
0000
0000
0000
0000
0000
0000
fc00
fc00
fc00
fc00
fc00
fc00
fc00
fc00
fc00
fc00
fc00
fc00
fc00
fc00
ENDCHAR
STARTCHAR u1FB14
ENCODING 129812
SWIDTH 600 0
DWIDTH 12 0
BBX 12 20 0 -4
BITMAP
03f0
03f0
03f0
03f0
03f0
03f0
fc00
fc00
fc00
fc00
fc00
fc00
fc00
fc00
fc00
fc00
fc00
fc00
fc00
fc00
ENDCHAR
STARTCHAR u1FB15
ENCODING 129813
SWIDTH 600 0
DWIDTH 12 0
BBX 12 20 0 -4
BITMAP
fff0
fff0
fff0
fff0
fff0
fff0
fc00
fc00
fc00
fc00
fc00
fc00
fc00
fc00
fc00
fc00
fc00
fc00
fc00
fc00
ENDCHAR
STARTCHAR u1FB16
ENCODING 129814
SWIDTH 600 0
DWIDTH 12 0
BBX 12 20 0 -4
BITMAP
0000
0000
0000
0000
0000
0000
03f0
03f0
03f0
03f0
03f0
03f0
03f0
03f0
fc00
fc00
fc00
fc00
fc00
fc00
ENDCHAR
STARTCHAR u1FB17
ENCODING 129815
SWIDTH 600 0
DWIDTH 12 0
BBX 12 20 0 -4
BITMAP
fc00
fc00
fc00
fc00
fc00
fc00
03f0
03f0
03f0
03f0
03f0
03f0
03f0
03f0
fc00
fc00
fc00
fc00
fc00
fc00
ENDCHAR
STARTCHAR u1FB18
ENCODING 129816
SWIDTH 600 0
DWIDTH 12 0
BBX 12 20 0 -4
BITMAP
03f0
03f0
03f0
03f0
03f0
03f0
03f0
03f0
03f0
03f0
03f0
03f0
03f0
03f0
fc00
fc00
fc00
fc00
fc00
fc00
ENDCHAR
STARTCHAR u1FB19
ENCODING 129817
SWIDTH 600 0
DWIDTH 12 0
BBX 12 20 0 -4
BITMAP
fff0
fff0
fff0
fff0
fff0
fff0
03f0
03f0
03f0
03f0
03f0
03f0
03f0
03f0
fc00
fc00
fc00
fc00
fc00
fc00
ENDCHAR
STARTCHAR u1FB1A
ENCODING 129818
SWIDTH 600 0
DWIDTH 12 0
BBX 12 20 0 -4
BITMAP
0000
0000
0000
0000
0000
0000
fff0
fff0
fff0
fff0
fff0
fff0
fff0
fff0
fc00
fc00
fc00
fc00
fc00
fc00
ENDCHAR
STARTCHAR u1FB1B
ENCODING 129819
SWIDTH 600 0
DWIDTH 12 0
BBX 12 20 0 -4
BITMAP
fc00
fc00
fc00
fc00
fc00
fc00
fff0
fff0
fff0
fff0
fff0
fff0
fff0
fff0
fc00
fc00
fc00
fc00
fc00
fc00
ENDCHAR
STARTCHAR u1FB1C
ENCODING 129820
SWIDTH 600 0
DWIDTH 12 0
BBX 12 20 0 -4
BITMAP
03f0
03f0
03f0
03f0
03f0
03f0
fff0
fff0
fff0
fff0
fff0
fff0
fff0
fff0
fc00
fc00
fc00
fc00
fc00
fc00
ENDCHAR
STARTCHAR u1FB1D
ENCODING 129821
SWIDTH 600 0
DWIDTH 12 0
BBX 12 20 0 -4
BITMAP
fff0
fff0
fff0
fff0
fff0
fff0
fff0
fff0
fff0
fff0
fff0
fff0
fff0
fff0
fc00
fc00
fc00
fc00
fc00
fc00
ENDCHAR
STARTCHAR u1FB1E
ENCODING 129822
SWIDTH 600 0
DWIDTH 12 0
BBX 12 20 0 -4
BITMAP
0000
0000
0000
0000
0000
0000
0000
0000
0000
0000
0000
0000
0000
0000
03f0
03f0
03f0
03f0
03f0
03f0
ENDCHAR
STARTCHAR u1FB1F
ENCODING 129823
SWIDTH 600 0
DWIDTH 12 0
BBX 12 20 0 -4
BITMAP
fc00
fc00
fc00
fc00
fc00
fc00
0000
0000
0000
0000
0000
0000
0000
0000
03f0
03f0
03f0
03f0
03f0
03f0
ENDCHAR
STARTCHAR u1FB20
ENCODING 129824
SWIDTH 600 0
DWIDTH 12 0
BBX 12 20 0 -4
BITMAP
03f0
03f0
03f0
03f0
03f0
03f0
0000
0000
0000
0000
0000
0000
0000
0000
03f0
03f0
03f0
03f0
03f0
03f0
ENDCHAR
STARTCHAR u1FB21
ENCODING 129825
SWIDTH 600 0
DWIDTH 12 0
BBX 12 20 0 -4
BITMAP
fff0
fff0
fff0
fff0
fff0
fff0
0000
0000
0000
0000
0000
0000
0000
0000
03f0
03f0
03f0
03f0
03f0
03f0
ENDCHAR
STARTCHAR u1FB22
ENCODING 129826
SWIDTH 600 0
DWIDTH 12 0
BBX 12 20 0 -4
BITMAP
0000
0000
0000
0000
0000
0000
fc00
fc00
fc00
fc00
fc00
fc00
fc00
fc00
03f0
03f0
03f0
03f0
03f0
03f0
ENDCHAR
STARTCHAR u1FB23
ENCODING 129827
SWIDTH 600 0
DWIDTH 12 0
BBX 12 20 0 -4
BITMAP
fc00
fc00
fc00
fc00
fc00
fc00
fc00
fc00
fc00
fc00
fc00
fc00
fc00
fc00
03f0
03f0
03f0
03f0
03f0
03f0
ENDCHAR
STARTCHAR u1FB24
ENCODING 129828
SWIDTH 600 0
DWIDTH 12 0
BBX 12 20 0 -4
BITMAP
03f0
03f0
03f0
03f0
03f0
03f0
fc00
fc00
fc00
fc00
fc00
fc00
fc00
fc00
03f0
03f0
03f0
03f0
03f0
03f0
ENDCHAR
STARTCHAR u1FB25
ENCODING 129829
SWIDTH 600 0
DWIDTH 12 0
BBX 12 20 0 -4
BITMAP
fff0
fff0
fff0
fff0
fff0
fff0
fc00
fc00
fc00
fc00
fc00
fc00
fc00
fc00
03f0
03f0
03f0
03f0
03f0
03f0
ENDCHAR
STARTCHAR u1FB26
ENCODING 129830
SWIDTH 600 0
DWIDTH 12 0
BBX 12 20 0 -4
BITMAP
0000
0000
0000
0000
0000
0000
03f0
03f0
03f0
03f0
03f0
03f0
03f0
03f0
03f0
03f0
03f0
03f0
03f0
03f0
ENDCHAR
STARTCHAR u1FB27
ENCODING 129831
SWIDTH 600 0
DWIDTH 12 0
BBX 12 20 0 -4
BITMAP
fc00
fc00
fc00
fc00
fc00
fc00
03f0
03f0
03f0
03f0
03f0
03f0
03f0
03f0
03f0
03f0
03f0
03f0
03f0
03f0
ENDCHAR
STARTCHAR u1FB28
ENCODING 129832
SWIDTH 600 0
DWIDTH 12 0
BBX 12 20 0 -4
BITMAP
fff0
fff0
fff0
fff0
fff0
fff0
03f0
03f0
03f0
03f0
03f0
03f0
03f0
03f0
03f0
03f0
03f0
03f0
03f0
03f0
ENDCHAR
STARTCHAR u1FB29
ENCODING 129833
SWIDTH 600 0
DWIDTH 12 0
BBX 12 20 0 -4
BITMAP
0000
0000
0000
0000
0000
0000
fff0
fff0
fff0
fff0
fff0
fff0
fff0
fff0
03f0
03f0
03f0
03f0
03f0
03f0
ENDCHAR
STARTCHAR u1FB2A
ENCODING 129834
SWIDTH 600 0
DWIDTH 12 0
BBX 12 20 0 -4
BITMAP
fc00
fc00
fc00
fc00
fc00
fc00
fff0
fff0
fff0
fff0
fff0
fff0
fff0
fff0
03f0
03f0
03f0
03f0
03f0
03f0
ENDCHAR
STARTCHAR u1FB2B
ENCODING 129835
SWIDTH 600 0
DWIDTH 12 0
BBX 12 20 0 -4
BITMAP
03f0
03f0
03f0
03f0
03f0
03f0
fff0
fff0
fff0
fff0
fff0
fff0
fff0
fff0
03f0
03f0
03f0
03f0
03f0
03f0
ENDCHAR
STARTCHAR u1FB2C
ENCODING 129836
SWIDTH 600 0
DWIDTH 12 0
BBX 12 20 0 -4
BITMAP
fff0
fff0
fff0
fff0
fff0
fff0
fff0
fff0
fff0
fff0
fff0
fff0
fff0
fff0
03f0
03f0
03f0
03f0
03f0
03f0
ENDCHAR
STARTCHAR u1FB2D
ENCODING 129837
SWIDTH 600 0
DWIDTH 12 0
BBX 12 20 0 -4
BITMAP
0000
0000
0000
0000
0000
0000
0000
0000
0000
0000
0000
0000
0000
0000
fff0
fff0
fff0
fff0
fff0
fff0
ENDCHAR
STARTCHAR u1FB2E
ENCODING 129838
SWIDTH 600 0
DWIDTH 12 0
BBX 12 20 0 -4
BITMAP
fc00
fc00
fc00
fc00
fc00
fc00
0000
0000
0000
0000
0000
0000
0000
0000
fff0
fff0
fff0
fff0
fff0
fff0
ENDCHAR
STARTCHAR u1FB2F
ENCODING 129839
SWIDTH 600 0
DWIDTH 12 0
BBX 12 20 0 -4
BITMAP
03f0
03f0
03f0
03f0
03f0
03f0
0000
0000
0000
0000
0000
0000
0000
0000
fff0
fff0
fff0
fff0
fff0
fff0
ENDCHAR
STARTCHAR u1FB30
ENCODING 129840
SWIDTH 600 0
DWIDTH 12 0
BBX 12 20 0 -4
BITMAP
fff0
fff0
fff0
fff0
fff0
fff0
0000
0000
0000
0000
0000
0000
0000
0000
fff0
fff0
fff0
fff0
fff0
fff0
ENDCHAR
STARTCHAR u1FB31
ENCODING 129841
SWIDTH 600 0
DWIDTH 12 0
BBX 12 20 0 -4
BITMAP
0000
0000
0000
0000
0000
0000
fc00
fc00
fc00
fc00
fc00
fc00
fc00
fc00
fff0
fff0
fff0
fff0
fff0
fff0
ENDCHAR
STARTCHAR u1FB32
ENCODING 129842
SWIDTH 600 0
DWIDTH 12 0
BBX 12 20 0 -4
BITMAP
fc00
fc00
fc00
fc00
fc00
fc00
fc00
fc00
fc00
fc00
fc00
fc00
fc00
fc00
fff0
fff0
fff0
fff0
fff0
fff0
ENDCHAR
STARTCHAR u1FB33
ENCODING 129843
SWIDTH 600 0
DWIDTH 12 0
BBX 12 20 0 -4
BITMAP
03f0
03f0
03f0
03f0
03f0
03f0
fc00
fc00
fc00
fc00
fc00
fc00
fc00
fc00
fff0
fff0
fff0
fff0
fff0
fff0
ENDCHAR
STARTCHAR u1FB34
ENCODING 129844
SWIDTH 600 0
DWIDTH 12 0
BBX 12 20 0 -4
BITMAP
fff0
fff0
fff0
fff0
fff0
fff0
fc00
fc00
fc00
fc00
fc00
fc00
fc00
fc00
fff0
fff0
fff0
fff0
fff0
fff0
ENDCHAR
STARTCHAR u1FB35
ENCODING 129845
SWIDTH 600 0
DWIDTH 12 0
BBX 12 20 0 -4
BITMAP
0000
0000
0000
0000
0000
0000
03f0
03f0
03f0
03f0
03f0
03f0
03f0
03f0
fff0
fff0
fff0
fff0
fff0
fff0
ENDCHAR
STARTCHAR u1FB36
ENCODING 129846
SWIDTH 600 0
DWIDTH 12 0
BBX 12 20 0 -4
BITMAP
fc00
fc00
fc00
fc00
fc00
fc00
03f0
03f0
03f0
03f0
03f0
03f0
03f0
03f0
fff0
fff0
fff0
fff0
fff0
fff0
ENDCHAR
STARTCHAR u1FB37
ENCODING 129847
SWIDTH 600 0
DWIDTH 12 0
BBX 12 20 0 -4
BITMAP
03f0
03f0
03f0
03f0
03f0
03f0
03f0
03f0
03f0
03f0
03f0
03f0
03f0
03f0
fff0
fff0
fff0
fff0
fff0
fff0
ENDCHAR
STARTCHAR u1FB38
ENCODING 129848
SWIDTH 600 0
DWIDTH 12 0
BBX 12 20 0 -4
BITMAP
fff0
fff0
fff0
fff0
fff0
fff0
03f0
03f0
03f0
03f0
03f0
03f0
03f0
03f0
fff0
fff0
fff0
fff0
fff0
fff0
ENDCHAR
STARTCHAR u1FB39
ENCODING 129849
SWIDTH 600 0
DWIDTH 12 0
BBX 12 20 0 -4
BITMAP
0000
0000
0000
0000
0000
0000
fff0
fff0
fff0
fff0
fff0
fff0
fff0
fff0
fff0
fff0
fff0
fff0
fff0
fff0
ENDCHAR
STARTCHAR u1FB3A
ENCODING 129850
SWIDTH 600 0
DWIDTH 12 0
BBX 12 20 0 -4
BITMAP
fc00
fc00
fc00
fc00
fc00
fc00
fff0
fff0
fff0
fff0
fff0
fff0
fff0
fff0
fff0
fff0
fff0
fff0
fff0
fff0
ENDCHAR
STARTCHAR u1FB3B
ENCODING 129851
SWIDTH 600 0
DWIDTH 12 0
BBX 12 20 0 -4
BITMAP
03f0
03f0
03f0
03f0
03f0
03f0
fff0
fff0
fff0
fff0
fff0
fff0
fff0
fff0
fff0
fff0
fff0
fff0
fff0
fff0
ENDCHAR
STARTCHAR u1CE51
ENCODING 118353
SWIDTH 600 0
DWIDTH 12 0
BBX 12 20 0 -4
BITMAP
3c00
3c00
3c00
3c00
0000
0000
0000
0000
0000
0000
0000
0000
0000
0000
0000
0000
0000
0000
0000
0000
ENDCHAR
STARTCHAR u1CE52
ENCODING 118354
SWIDTH 600 0
DWIDTH 12 0
BBX 12 20 0 -4
BITMAP
00f0
00f0
00f0
00f0
0000
0000
0000
0000
0000
0000
0000
0000
0000
0000
0000
0000
0000
0000
0000
0000
ENDCHAR
STARTCHAR u1CE53
ENCODING 118355
SWIDTH 600 0
DWIDTH 12 0
BBX 12 20 0 -4
BITMAP
3cf0
3cf0
3cf0
3cf0
0000
0000
0000
0000
0000
0000
0000
0000
0000
0000
0000
0000
0000
0000
0000
0000
ENDCHAR
STARTCHAR u1CE54
ENCODING 118356
SWIDTH 600 0
DWIDTH 12 0
BBX 12 20 0 -4
BITMAP
0000
0000
0000
0000
0000
0000
3c00
3c00
3c00
3c00
3c00
3c00
0000
0000
0000
0000
0000
0000
0000
0000
ENDCHAR
STARTCHAR u1CE55
ENCODING 118357
SWIDTH 600 0
DWIDTH 12 0
BBX 12 20 0 -4
BITMAP
3c00
3c00
3c00
3c00
0000
0000
3c00
3c00
3c00
3c00
3c00
3c00
0000
0000
0000
0000
0000
0000
0000
0000
ENDCHAR
STARTCHAR u1CE56
ENCODING 118358
SWIDTH 600 0
DWIDTH 12 0
BBX 12 20 0 -4
BITMAP
00f0
00f0
00f0
00f0
0000
0000
3c00
3c00
3c00
3c00
3c00
3c00
0000
0000
0000
0000
0000
0000
0000
0000
ENDCHAR
STARTCHAR u1CE57
ENCODING 118359
SWIDTH 600 0
DWIDTH 12 0
BBX 12 20 0 -4
BITMAP
3cf0
3cf0
3cf0
3cf0
0000
0000
3c00
3c00
3c00
3c00
3c00
3c00
0000
0000
0000
0000
0000
0000
0000
0000
ENDCHAR
STARTCHAR u1CE58
ENCODING 118360
SWIDTH 600 0
DWIDTH 12 0
BBX 12 20 0 -4
BITMAP
0000
0000
0000
0000
0000
0000
00f0
00f0
00f0
00f0
00f0
00f0
0000
0000
0000
0000
0000
0000
0000
0000
ENDCHAR
STARTCHAR u1CE59
ENCODING 118361
SWIDTH 600 0
DWIDTH 12 0
BBX 12 20 0 -4
BITMAP
3c00
3c00
3c00
3c00
0000
0000
00f0
00f0
00f0
00f0
00f0
00f0
0000
0000
0000
0000
0000
0000
0000
0000
ENDCHAR
STARTCHAR u1CE5A
ENCODING 118362
SWIDTH 600 0
DWIDTH 12 0
BBX 12 20 0 -4
BITMAP
00f0
00f0
00f0
00f0
0000
0000
00f0
00f0
00f0
00f0
00f0
00f0
0000
0000
0000
0000
0000
0000
0000
0000
ENDCHAR
STARTCHAR u1CE5B
ENCODING 118363
SWIDTH 600 0
DWIDTH 12 0
BBX 12 20 0 -4
BITMAP
3cf0
3cf0
3cf0
3cf0
0000
0000
00f0
00f0
00f0
00f0
00f0
00f0
0000
0000
0000
0000
0000
0000
0000
0000
ENDCHAR
STARTCHAR u1CE5C
ENCODING 118364
SWIDTH 600 0
DWIDTH 12 0
BBX 12 20 0 -4
BITMAP
0000
0000
0000
0000
0000
0000
3cf0
3cf0
3cf0
3cf0
3cf0
3cf0
0000
0000
0000
0000
0000
0000
0000
0000
ENDCHAR
STARTCHAR u1CE5D
ENCODING 118365
SWIDTH 600 0
DWIDTH 12 0
BBX 12 20 0 -4
BITMAP
3c00
3c00
3c00
3c00
0000
0000
3cf0
3cf0
3cf0
3cf0
3cf0
3cf0
0000
0000
0000
0000
0000
0000
0000
0000
ENDCHAR
STARTCHAR u1CE5E
ENCODING 118366
SWIDTH 600 0
DWIDTH 12 0
BBX 12 20 0 -4
BITMAP
00f0
00f0
00f0
00f0
0000
0000
3cf0
3cf0
3cf0
3cf0
3cf0
3cf0
0000
0000
0000
0000
0000
0000
0000
0000
ENDCHAR
STARTCHAR u1CE5F
ENCODING 118367
SWIDTH 600 0
DWIDTH 12 0
BBX 12 20 0 -4
BITMAP
3cf0
3cf0
3cf0
3cf0
0000
0000
3cf0
3cf0
3cf0
3cf0
3cf0
3cf0
0000
0000
0000
0000
0000
0000
0000
0000
ENDCHAR
STARTCHAR u1CE60
ENCODING 118368
SWIDTH 600 0
DWIDTH 12 0
BBX 12 20 0 -4
BITMAP
0000
0000
0000
0000
0000
0000
0000
0000
0000
0000
0000
0000
0000
0000
3c00
3c00
3c00
3c00
0000
0000
ENDCHAR
STARTCHAR u1CE61
ENCODING 118369
SWIDTH 600 0
DWIDTH 12 0
BBX 12 20 0 -4
BITMAP
3c00
3c00
3c00
3c00
0000
0000
0000
0000
0000
0000
0000
0000
0000
0000
3c00
3c00
3c00
3c00
0000
0000
ENDCHAR
STARTCHAR u1CE62
ENCODING 118370
SWIDTH 600 0
DWIDTH 12 0
BBX 12 20 0 -4
BITMAP
00f0
00f0
00f0
00f0
0000
0000
0000
0000
0000
0000
0000
0000
0000
0000
3c00
3c00
3c00
3c00
0000
0000
ENDCHAR
STARTCHAR u1CE63
ENCODING 118371
SWIDTH 600 0
DWIDTH 12 0
BBX 12 20 0 -4
BITMAP
3cf0
3cf0
3cf0
3cf0
0000
0000
0000
0000
0000
0000
0000
0000
0000
0000
3c00
3c00
3c00
3c00
0000
0000
ENDCHAR
STARTCHAR u1CE64
ENCODING 118372
SWIDTH 600 0
DWIDTH 12 0
BBX 12 20 0 -4
BITMAP
0000
0000
0000
0000
0000
0000
3c00
3c00
3c00
3c00
3c00
3c00
0000
0000
3c00
3c00
3c00
3c00
0000
0000
ENDCHAR
STARTCHAR u1CE65
ENCODING 118373
SWIDTH 600 0
DWIDTH 12 0
BBX 12 20 0 -4
BITMAP
3c00
3c00
3c00
3c00
0000
0000
3c00
3c00
3c00
3c00
3c00
3c00
0000
0000
3c00
3c00
3c00
3c00
0000
0000
ENDCHAR
STARTCHAR u1CE66
ENCODING 118374
SWIDTH 600 0
DWIDTH 12 0
BBX 12 20 0 -4
BITMAP
00f0
00f0
00f0
00f0
0000
0000
3c00
3c00
3c00
3c00
3c00
3c00
0000
0000
3c00
3c00
3c00
3c00
0000
0000
ENDCHAR
STARTCHAR u1CE67
ENCODING 118375
SWIDTH 600 0
DWIDTH 12 0
BBX 12 20 0 -4
BITMAP
3cf0
3cf0
3cf0
3cf0
0000
0000
3c00
3c00
3c00
3c00
3c00
3c00
0000
0000
3c00
3c00
3c00
3c00
0000
0000
ENDCHAR
STARTCHAR u1CE68
ENCODING 118376
SWIDTH 600 0
DWIDTH 12 0
BBX 12 20 0 -4
BITMAP
0000
0000
0000
0000
0000
0000
00f0
00f0
00f0
00f0
00f0
00f0
0000
0000
3c00
3c00
3c00
3c00
0000
0000
ENDCHAR
STARTCHAR u1CE69
ENCODING 118377
SWIDTH 600 0
DWIDTH 12 0
BBX 12 20 0 -4
BITMAP
3c00
3c00
3c00
3c00
0000
0000
00f0
00f0
00f0
00f0
00f0
00f0
0000
0000
3c00
3c00
3c00
3c00
0000
0000
ENDCHAR
STARTCHAR u1CE6A
ENCODING 118378
SWIDTH 600 0
DWIDTH 12 0
BBX 12 20 0 -4
BITMAP
00f0
00f0
00f0
00f0
0000
0000
00f0
00f0
00f0
00f0
00f0
00f0
0000
0000
3c00
3c00
3c00
3c00
0000
0000
ENDCHAR
STARTCHAR u1CE6B
ENCODING 118379
SWIDTH 600 0
DWIDTH 12 0
BBX 12 20 0 -4
BITMAP
3cf0
3cf0
3cf0
3cf0
0000
0000
00f0
00f0
00f0
00f0
00f0
00f0
0000
0000
3c00
3c00
3c00
3c00
0000
0000
ENDCHAR
STARTCHAR u1CE6C
ENCODING 118380
SWIDTH 600 0
DWIDTH 12 0
BBX 12 20 0 -4
BITMAP
0000
0000
0000
0000
0000
0000
3cf0
3cf0
3cf0
3cf0
3cf0
3cf0
0000
0000
3c00
3c00
3c00
3c00
0000
0000
ENDCHAR
STARTCHAR u1CE6D
ENCODING 118381
SWIDTH 600 0
DWIDTH 12 0
BBX 12 20 0 -4
BITMAP
3c00
3c00
3c00
3c00
0000
0000
3cf0
3cf0
3cf0
3cf0
3cf0
3cf0
0000
0000
3c00
3c00
3c00
3c00
0000
0000
ENDCHAR
STARTCHAR u1CE6E
ENCODING 118382
SWIDTH 600 0
DWIDTH 12 0
BBX 12 20 0 -4
BITMAP
00f0
00f0
00f0
00f0
0000
0000
3cf0
3cf0
3cf0
3cf0
3cf0
3cf0
0000
0000
3c00
3c00
3c00
3c00
0000
0000
ENDCHAR
STARTCHAR u1CE6F
ENCODING 118383
SWIDTH 600 0
DWIDTH 12 0
BBX 12 20 0 -4
BITMAP
3cf0
3cf0
3cf0
3cf0
0000
0000
3cf0
3cf0
3cf0
3cf0
3cf0
3cf0
0000
0000
3c00
3c00
3c00
3c00
0000
0000
ENDCHAR
STARTCHAR u1CE70
ENCODING 118384
SWIDTH 600 0
DWIDTH 12 0
BBX 12 20 0 -4
BITMAP
0000
0000
0000
0000
0000
0000
0000
0000
0000
0000
0000
0000
0000
0000
00f0
00f0
00f0
00f0
0000
0000
ENDCHAR
STARTCHAR u1CE71
ENCODING 118385
SWIDTH 600 0
DWIDTH 12 0
BBX 12 20 0 -4
BITMAP
3c00
3c00
3c00
3c00
0000
0000
0000
0000
0000
0000
0000
0000
0000
0000
00f0
00f0
00f0
00f0
0000
0000
ENDCHAR
STARTCHAR u1CE72
ENCODING 118386
SWIDTH 600 0
DWIDTH 12 0
BBX 12 20 0 -4
BITMAP
00f0
00f0
00f0
00f0
0000
0000
0000
0000
0000
0000
0000
0000
0000
0000
00f0
00f0
00f0
00f0
0000
0000
ENDCHAR
STARTCHAR u1CE73
ENCODING 118387
SWIDTH 600 0
DWIDTH 12 0
BBX 12 20 0 -4
BITMAP
3cf0
3cf0
3cf0
3cf0
0000
0000
0000
0000
0000
0000
0000
0000
0000
0000
00f0
00f0
00f0
00f0
0000
0000
ENDCHAR
STARTCHAR u1CE74
ENCODING 118388
SWIDTH 600 0
DWIDTH 12 0
BBX 12 20 0 -4
BITMAP
0000
0000
0000
0000
0000
0000
3c00
3c00
3c00
3c00
3c00
3c00
0000
0000
00f0
00f0
00f0
00f0
0000
0000
ENDCHAR
STARTCHAR u1CE75
ENCODING 118389
SWIDTH 600 0
DWIDTH 12 0
BBX 12 20 0 -4
BITMAP
3c00
3c00
3c00
3c00
0000
0000
3c00
3c00
3c00
3c00
3c00
3c00
0000
0000
00f0
00f0
00f0
00f0
0000
0000
ENDCHAR
STARTCHAR u1CE76
ENCODING 118390
SWIDTH 600 0
DWIDTH 12 0
BBX 12 20 0 -4
BITMAP
00f0
00f0
00f0
00f0
0000
0000
3c00
3c00
3c00
3c00
3c00
3c00
0000
0000
00f0
00f0
00f0
00f0
0000
0000
ENDCHAR
STARTCHAR u1CE77
ENCODING 118391
SWIDTH 600 0
DWIDTH 12 0
BBX 12 20 0 -4
BITMAP
3cf0
3cf0
3cf0
3cf0
0000
0000
3c00
3c00
3c00
3c00
3c00
3c00
0000
0000
00f0
00f0
00f0
00f0
0000
0000
ENDCHAR
STARTCHAR u1CE78
ENCODING 118392
SWIDTH 600 0
DWIDTH 12 0
BBX 12 20 0 -4
BITMAP
0000
0000
0000
0000
0000
0000
00f0
00f0
00f0
00f0
00f0
00f0
0000
0000
00f0
00f0
00f0
00f0
0000
0000
ENDCHAR
STARTCHAR u1CE79
ENCODING 118393
SWIDTH 600 0
DWIDTH 12 0
BBX 12 20 0 -4
BITMAP
3c00
3c00
3c00
3c00
0000
0000
00f0
00f0
00f0
00f0
00f0
00f0
0000
0000
00f0
00f0
00f0
00f0
0000
0000
ENDCHAR
STARTCHAR u1CE7A
ENCODING 118394
SWIDTH 600 0
DWIDTH 12 0
BBX 12 20 0 -4
BITMAP
00f0
00f0
00f0
00f0
0000
0000
00f0
00f0
00f0
00f0
00f0
00f0
0000
0000
00f0
00f0
00f0
00f0
0000
0000
ENDCHAR
STARTCHAR u1CE7B
ENCODING 118395
SWIDTH 600 0
DWIDTH 12 0
BBX 12 20 0 -4
BITMAP
3cf0
3cf0
3cf0
3cf0
0000
0000
00f0
00f0
00f0
00f0
00f0
00f0
0000
0000
00f0
00f0
00f0
00f0
0000
0000
ENDCHAR
STARTCHAR u1CE7C
ENCODING 118396
SWIDTH 600 0
DWIDTH 12 0
BBX 12 20 0 -4
BITMAP
0000
0000
0000
0000
0000
0000
3cf0
3cf0
3cf0
3cf0
3cf0
3cf0
0000
0000
00f0
00f0
00f0
00f0
0000
0000
ENDCHAR
STARTCHAR u1CE7D
ENCODING 118397
SWIDTH 600 0
DWIDTH 12 0
BBX 12 20 0 -4
BITMAP
3c00
3c00
3c00
3c00
0000
0000
3cf0
3cf0
3cf0
3cf0
3cf0
3cf0
0000
0000
00f0
00f0
00f0
00f0
0000
0000
ENDCHAR
STARTCHAR u1CE7E
ENCODING 118398
SWIDTH 600 0
DWIDTH 12 0
BBX 12 20 0 -4
BITMAP
00f0
00f0
00f0
00f0
0000
0000
3cf0
3cf0
3cf0
3cf0
3cf0
3cf0
0000
0000
00f0
00f0
00f0
00f0
0000
0000
ENDCHAR
STARTCHAR u1CE7F
ENCODING 118399
SWIDTH 600 0
DWIDTH 12 0
BBX 12 20 0 -4
BITMAP
3cf0
3cf0
3cf0
3cf0
0000
0000
3cf0
3cf0
3cf0
3cf0
3cf0
3cf0
0000
0000
00f0
00f0
00f0
00f0
0000
0000
ENDCHAR
STARTCHAR u1CE80
ENCODING 118400
SWIDTH 600 0
DWIDTH 12 0
BBX 12 20 0 -4
BITMAP
0000
0000
0000
0000
0000
0000
0000
0000
0000
0000
0000
0000
0000
0000
3cf0
3cf0
3cf0
3cf0
0000
0000
ENDCHAR
STARTCHAR u1CE81
ENCODING 118401
SWIDTH 600 0
DWIDTH 12 0
BBX 12 20 0 -4
BITMAP
3c00
3c00
3c00
3c00
0000
0000
0000
0000
0000
0000
0000
0000
0000
0000
3cf0
3cf0
3cf0
3cf0
0000
0000
ENDCHAR
STARTCHAR u1CE82
ENCODING 118402
SWIDTH 600 0
DWIDTH 12 0
BBX 12 20 0 -4
BITMAP
00f0
00f0
00f0
00f0
0000
0000
0000
0000
0000
0000
0000
0000
0000
0000
3cf0
3cf0
3cf0
3cf0
0000
0000
ENDCHAR
STARTCHAR u1CE83
ENCODING 118403
SWIDTH 600 0
DWIDTH 12 0
BBX 12 20 0 -4
BITMAP
3cf0
3cf0
3cf0
3cf0
0000
0000
0000
0000
0000
0000
0000
0000
0000
0000
3cf0
3cf0
3cf0
3cf0
0000
0000
ENDCHAR
STARTCHAR u1CE84
ENCODING 118404
SWIDTH 600 0
DWIDTH 12 0
BBX 12 20 0 -4
BITMAP
0000
0000
0000
0000
0000
0000
3c00
3c00
3c00
3c00
3c00
3c00
0000
0000
3cf0
3cf0
3cf0
3cf0
0000
0000
ENDCHAR
STARTCHAR u1CE85
ENCODING 118405
SWIDTH 600 0
DWIDTH 12 0
BBX 12 20 0 -4
BITMAP
3c00
3c00
3c00
3c00
0000
0000
3c00
3c00
3c00
3c00
3c00
3c00
0000
0000
3cf0
3cf0
3cf0
3cf0
0000
0000
ENDCHAR
STARTCHAR u1CE86
ENCODING 118406
SWIDTH 600 0
DWIDTH 12 0
BBX 12 20 0 -4
BITMAP
00f0
00f0
00f0
00f0
0000
0000
3c00
3c00
3c00
3c00
3c00
3c00
0000
0000
3cf0
3cf0
3cf0
3cf0
0000
0000
ENDCHAR
STARTCHAR u1CE87
ENCODING 118407
SWIDTH 600 0
DWIDTH 12 0
BBX 12 20 0 -4
BITMAP
3cf0
3cf0
3cf0
3cf0
0000
0000
3c00
3c00
3c00
3c00
3c00
3c00
0000
0000
3cf0
3cf0
3cf0
3cf0
0000
0000
ENDCHAR
STARTCHAR u1CE88
ENCODING 118408
SWIDTH 600 0
DWIDTH 12 0
BBX 12 20 0 -4
BITMAP
0000
0000
0000
0000
0000
0000
00f0
00f0
00f0
00f0
00f0
00f0
0000
0000
3cf0
3cf0
3cf0
3cf0
0000
0000
ENDCHAR
STARTCHAR u1CE89
ENCODING 118409
SWIDTH 600 0
DWIDTH 12 0
BBX 12 20 0 -4
BITMAP
3c00
3c00
3c00
3c00
0000
0000
00f0
00f0
00f0
00f0
00f0
00f0
0000
0000
3cf0
3cf0
3cf0
3cf0
0000
0000
ENDCHAR
STARTCHAR u1CE8A
ENCODING 118410
SWIDTH 600 0
DWIDTH 12 0
BBX 12 20 0 -4
BITMAP
00f0
00f0
00f0
00f0
0000
0000
00f0
00f0
00f0
00f0
00f0
00f0
0000
0000
3cf0
3cf0
3cf0
3cf0
0000
0000
ENDCHAR
STARTCHAR u1CE8B
ENCODING 118411
SWIDTH 600 0
DWIDTH 12 0
BBX 12 20 0 -4
BITMAP
3cf0
3cf0
3cf0
3cf0
0000
0000
00f0
00f0
00f0
00f0
00f0
00f0
0000
0000
3cf0
3cf0
3cf0
3cf0
0000
0000
ENDCHAR
STARTCHAR u1CE8C
ENCODING 118412
SWIDTH 600 0
DWIDTH 12 0
BBX 12 20 0 -4
BITMAP
0000
0000
0000
0000
0000
0000
3cf0
3cf0
3cf0
3cf0
3cf0
3cf0
0000
0000
3cf0
3cf0
3cf0
3cf0
0000
0000
ENDCHAR
STARTCHAR u1CE8D
ENCODING 118413
SWIDTH 600 0
DWIDTH 12 0
BBX 12 20 0 -4
BITMAP
3c00
3c00
3c00
3c00
0000
0000
3cf0
3cf0
3cf0
3cf0
3cf0
3cf0
0000
0000
3cf0
3cf0
3cf0
3cf0
0000
0000
ENDCHAR
STARTCHAR u1CE8E
ENCODING 118414
SWIDTH 600 0
DWIDTH 12 0
BBX 12 20 0 -4
BITMAP
00f0
00f0
00f0
00f0
0000
0000
3cf0
3cf0
3cf0
3cf0
3cf0
3cf0
0000
0000
3cf0
3cf0
3cf0
3cf0
0000
0000
ENDCHAR
STARTCHAR u1CE8F
ENCODING 118415
SWIDTH 600 0
DWIDTH 12 0
BBX 12 20 0 -4
BITMAP
3cf0
3cf0
3cf0
3cf0
0000
0000
3cf0
3cf0
3cf0
3cf0
3cf0
3cf0
0000
0000
3cf0
3cf0
3cf0
3cf0
0000
0000
ENDCHAR
STARTCHAR quotesingle.curly
ENCODING -1
SWIDTH 600 0
DWIDTH 12 0
BBX 12 20 0 -4
BITMAP
0000
0000
0300
0300
0300
0700
0e00
0c00
0000
0000
0000
0000
0000
0000
0000
0000
0000
0000
0000
0000
ENDCHAR
STARTCHAR A.c2sc
ENCODING -1
SWIDTH 600 0
DWIDTH 12 0
BBX 12 20 0 -4
BITMAP
0000
0000
0000
0000
0000
0000
0fc0
1fe0
3870
3030
3ff0
3ff0
3030
3030
3030
3030
0000
0000
0000
0000
ENDCHAR
STARTCHAR B.c2sc
ENCODING -1
SWIDTH 600 0
DWIDTH 12 0
BBX 12 20 0 -4
BITMAP
0000
0000
0000
0000
0000
0000
3fc0
3fe0
3070
3070
3fe0
3fe0
3070
3070
3fe0
3fc0
0000
0000
0000
0000
ENDCHAR
STARTCHAR C.c2sc
ENCODING -1
SWIDTH 600 0
DWIDTH 12 0
BBX 12 20 0 -4
BITMAP
0000
0000
0000
0000
0000
0000
0fc0
1fe0
3870
3030
3000
3000
3030
3870
1fe0
0fc0
0000
0000
0000
0000
ENDCHAR
STARTCHAR D.c2sc
ENCODING -1
SWIDTH 600 0
DWIDTH 12 0
BBX 12 20 0 -4
BITMAP
0000
0000
0000
0000
0000
0000
3fc0
3fe0
3070
3030
3030
3030
3030
3070
3fe0
3fc0
0000
0000
0000
0000
ENDCHAR
STARTCHAR D.c2sc.serif
ENCODING -1
SWIDTH 600 0
DWIDTH 12 0
BBX 12 20 0 -4
BITMAP
0000
0000
0000
0000
0000
0000
3fc0
3fe0
0c70
0c30
0c30
0c30
0c30
0c70
3fe0
3fc0
0000
0000
0000
0000
ENDCHAR
STARTCHAR D.c2sc.narrow
ENCODING -1
SWIDTH 600 0
DWIDTH 12 0
BBX 12 20 0 -4
BITMAP
0000
0000
0000
0000
0000
0000
0fc0
0fe0
0c70
0c30
0c30
0c30
0c30
0c70
0fe0
0fc0
0000
0000
0000
0000
ENDCHAR
STARTCHAR E.c2sc
ENCODING -1
SWIDTH 600 0
DWIDTH 12 0
BBX 12 20 0 -4
BITMAP
0000
0000
0000
0000
0000
0000
3ff0
3ff0
3000
3000
3fc0
3fc0
3000
3000
3ff0
3ff0
0000
0000
0000
0000
ENDCHAR
STARTCHAR F.c2sc
ENCODING -1
SWIDTH 600 0
DWIDTH 12 0
BBX 12 20 0 -4
BITMAP
0000
0000
0000
0000
0000
0000
3ff0
3ff0
3000
3000
3fc0
3fc0
3000
3000
3000
3000
0000
0000
0000
0000
ENDCHAR
STARTCHAR G.c2sc
ENCODING -1
SWIDTH 600 0
DWIDTH 12 0
BBX 12 20 0 -4
BITMAP
0000
0000
0000
0000
0000
0000
0ff0
1ff0
3800
3000
30f0
30f0
3030
3830
1ff0
0ff0
0000
0000
0000
0000
ENDCHAR
STARTCHAR H.c2sc
ENCODING -1
SWIDTH 600 0
DWIDTH 12 0
BBX 12 20 0 -4
BITMAP
0000
0000
0000
0000
0000
0000
3030
3030
3030
3030
3ff0
3ff0
3030
3030
3030
3030
0000
0000
0000
0000
ENDCHAR
STARTCHAR I.c2sc
ENCODING -1
SWIDTH 600 0
DWIDTH 12 0
BBX 12 20 0 -4
BITMAP
0000
0000
0000
0000
0000
0000
0fc0
0fc0
0300
0300
0300
0300
0300
0300
0fc0
0fc0
0000
0000
0000
0000
ENDCHAR
STARTCHAR J.c2sc
ENCODING -1
SWIDTH 600 0
DWIDTH 12 0
BBX 12 20 0 -4
BITMAP
0000
0000
0000
0000
0000
0000
0030
0030
0030
0030
0030
0030
3030
3870
1fe0
0fc0
0000
0000
0000
0000
ENDCHAR
STARTCHAR J.c2sc.narrow
ENCODING -1
SWIDTH 600 0
DWIDTH 12 0
BBX 12 20 0 -4
BITMAP
0000
0000
0000
0000
0000
0000
00c0
00c0
00c0
00c0
00c0
00c0
30c0
39c0
1f80
0f00
0000
0000
0000
0000
ENDCHAR
STARTCHAR K.c2sc
ENCODING -1
SWIDTH 600 0
DWIDTH 12 0
BBX 12 20 0 -4
BITMAP
0000
0000
0000
0000
0000
0000
3030
3070
30e0
31c0
3f80
3f80
31c0
30e0
3070
3030
0000
0000
0000
0000
ENDCHAR
STARTCHAR L.c2sc
ENCODING -1
SWIDTH 600 0
DWIDTH 12 0
BBX 12 20 0 -4
BITMAP
0000
0000
0000
0000
0000
0000
3000
3000
3000
3000
3000
3000
3000
3000
3ff0
3ff0
0000
0000
0000
0000
ENDCHAR
STARTCHAR L.c2sc.narrow
ENCODING -1
SWIDTH 600 0
DWIDTH 12 0
BBX 12 20 0 -4
BITMAP
0000
0000
0000
0000
0000
0000
0c00
0c00
0c00
0c00
0c00
0c00
0c00
0c00
0ff0
0ff0
0000
0000
0000
0000
ENDCHAR
STARTCHAR M.c2sc
ENCODING -1
SWIDTH 600 0
DWIDTH 12 0
BBX 12 20 0 -4
BITMAP
0000
0000
0000
0000
0000
0000
3030
3030
3cf0
3ff0
37b0
3330
3030
3030
3030
3030
0000
0000
0000
0000
ENDCHAR
STARTCHAR N.c2sc
ENCODING -1
SWIDTH 600 0
DWIDTH 12 0
BBX 12 20 0 -4
BITMAP
0000
0000
0000
0000
0000
0000
3030
3030
3c30
3e30
3730
33b0
31f0
30f0
3030
3030
0000
0000
0000
0000
ENDCHAR
STARTCHAR O.c2sc
ENCODING -1
SWIDTH 600 0
DWIDTH 12 0
BBX 12 20 0 -4
BITMAP
0000
0000
0000
0000
0000
0000
0fc0
1fe0
3870
3030
3030
3030
3030
3870
1fe0
0fc0
0000
0000
0000
0000
ENDCHAR
STARTCHAR P.c2sc
ENCODING -1
SWIDTH 600 0
DWIDTH 12 0
BBX 12 20 0 -4
BITMAP
0000
0000
0000
0000
0000
0000
3fc0
3fe0
3070
3070
3fe0
3fc0
3000
3000
3000
3000
0000
0000
0000
0000
ENDCHAR
STARTCHAR Q.c2sc
ENCODING -1
SWIDTH 600 0
DWIDTH 12 0
BBX 12 20 0 -4
BITMAP
0000
0000
0000
0000
0000
0000
0fc0
1fe0
3870
3030
3330
33f0
31e0
39e0
1ff0
0f30
0000
0000
0000
0000
ENDCHAR
STARTCHAR R.c2sc
ENCODING -1
SWIDTH 600 0
DWIDTH 12 0
BBX 12 20 0 -4
BITMAP
0000
0000
0000
0000
0000
0000
3fc0
3fe0
3070
3070
3fe0
3fc0
30c0
30e0
3070
3030
0000
0000
0000
0000
ENDCHAR
STARTCHAR S.c2sc
ENCODING -1
SWIDTH 600 0
DWIDTH 12 0
BBX 12 20 0 -4
BITMAP
0000
0000
0000
0000
0000
0000
0ff0
1ff0
3800
3800
1fc0
0fe0
0070
0070
3fe0
3fc0
0000
0000
0000
0000
ENDCHAR
STARTCHAR T.c2sc
ENCODING -1
SWIDTH 600 0
DWIDTH 12 0
BBX 12 20 0 -4
BITMAP
0000
0000
0000
0000
0000
0000
3ff0
3ff0
0300
0300
0300
0300
0300
0300
0300
0300
0000
0000
0000
0000
ENDCHAR
STARTCHAR U.c2sc
ENCODING -1
SWIDTH 600 0
DWIDTH 12 0
BBX 12 20 0 -4
BITMAP
0000
0000
0000
0000
0000
0000
3030
3030
3030
3030
3030
3030
3030
3870
1fe0
0fc0
0000
0000
0000
0000
ENDCHAR
STARTCHAR V.c2sc
ENCODING -1
SWIDTH 600 0
DWIDTH 12 0
BBX 12 20 0 -4
BITMAP
0000
0000
0000
0000
0000
0000
3030
3030
3030
3870
1ce0
0cc0
0cc0
0fc0
0780
0300
0000
0000
0000
0000
ENDCHAR
STARTCHAR W.c2sc
ENCODING -1
SWIDTH 600 0
DWIDTH 12 0
BBX 12 20 0 -4
BITMAP
0000
0000
0000
0000
0000
0000
3030
3030
3030
3030
3330
3330
3330
3ff0
1fe0
0cc0
0000
0000
0000
0000
ENDCHAR
STARTCHAR X.c2sc
ENCODING 61888
SWIDTH 600 0
DWIDTH 12 0
BBX 12 20 0 -4
BITMAP
0000
0000
0000
0000
0000
0000
3030
3870
1ce0
0fc0
0780
0780
0fc0
1ce0
3870
3030
0000
0000
0000
0000
ENDCHAR
STARTCHAR Y.c2sc
ENCODING -1
SWIDTH 600 0
DWIDTH 12 0
BBX 12 20 0 -4
BITMAP
0000
0000
0000
0000
0000
0000
3030
3870
1ce0
0fc0
0780
0300
0300
0300
0300
0300
0000
0000
0000
0000
ENDCHAR
STARTCHAR Z.c2sc
ENCODING -1
SWIDTH 600 0
DWIDTH 12 0
BBX 12 20 0 -4
BITMAP
0000
0000
0000
0000
0000
0000
3ff0
3ff0
0030
0070
0fe0
1fc0
3800
3000
3ff0
3ff0
0000
0000
0000
0000
ENDCHAR
STARTCHAR grave
ENCODING 96
SWIDTH 600 0
DWIDTH 12 0
BBX 12 20 0 -4
BITMAP
0000
0000
0c00
0e00
0700
0380
01c0
00c0
0000
0000
0000
0000
0000
0000
0000
0000
0000
0000
0000
0000
ENDCHAR
STARTCHAR grave.curly
ENCODING -1
SWIDTH 600 0
DWIDTH 12 0
BBX 12 20 0 -4
BITMAP
0000
0000
0300
0300
0300
0380
01c0
00c0
0000
0000
0000
0000
0000
0000
0000
0000
0000
0000
0000
0000
ENDCHAR
STARTCHAR a.sc
ENCODING -1
SWIDTH 600 0
DWIDTH 12 0
BBX 12 20 0 -4
BITMAP
0000
0000
0000
0000
0000
0000
0fc0
1fe0
3870
3030
3ff0
3ff0
3030
3030
3030
3030
0000
0000
0000
0000
ENDCHAR
STARTCHAR b.sc
ENCODING -1
SWIDTH 600 0
DWIDTH 12 0
BBX 12 20 0 -4
BITMAP
0000
0000
0000
0000
0000
0000
3fc0
3fe0
3070
3070
3fe0
3fe0
3070
3070
3fe0
3fc0
0000
0000
0000
0000
ENDCHAR
STARTCHAR c.sc
ENCODING -1
SWIDTH 600 0
DWIDTH 12 0
BBX 12 20 0 -4
BITMAP
0000
0000
0000
0000
0000
0000
0fc0
1fe0
3870
3030
3000
3000
3030
3870
1fe0
0fc0
0000
0000
0000
0000
ENDCHAR
STARTCHAR d.sc
ENCODING -1
SWIDTH 600 0
DWIDTH 12 0
BBX 12 20 0 -4
BITMAP
0000
0000
0000
0000
0000
0000
3fc0
3fe0
3070
3030
3030
3030
3030
3070
3fe0
3fc0
0000
0000
0000
0000
ENDCHAR
STARTCHAR d.sc.serif
ENCODING -1
SWIDTH 600 0
DWIDTH 12 0
BBX 12 20 0 -4
BITMAP
0000
0000
0000
0000
0000
0000
3fc0
3fe0
0c70
0c30
0c30
0c30
0c30
0c70
3fe0
3fc0
0000
0000
0000
0000
ENDCHAR
STARTCHAR d.sc.narrow
ENCODING -1
SWIDTH 600 0
DWIDTH 12 0
BBX 12 20 0 -4
BITMAP
0000
0000
0000
0000
0000
0000
0fc0
0fe0
0c70
0c30
0c30
0c30
0c30
0c70
0fe0
0fc0
0000
0000
0000
0000
ENDCHAR
STARTCHAR e.sc
ENCODING -1
SWIDTH 600 0
DWIDTH 12 0
BBX 12 20 0 -4
BITMAP
0000
0000
0000
0000
0000
0000
3ff0
3ff0
3000
3000
3fc0
3fc0
3000
3000
3ff0
3ff0
0000
0000
0000
0000
ENDCHAR
STARTCHAR f.sc
ENCODING -1
SWIDTH 600 0
DWIDTH 12 0
BBX 12 20 0 -4
BITMAP
0000
0000
0000
0000
0000
0000
3ff0
3ff0
3000
3000
3fc0
3fc0
3000
3000
3000
3000
0000
0000
0000
0000
ENDCHAR
STARTCHAR g.sc
ENCODING -1
SWIDTH 600 0
DWIDTH 12 0
BBX 12 20 0 -4
BITMAP
0000
0000
0000
0000
0000
0000
0ff0
1ff0
3800
3000
30f0
30f0
3030
3830
1ff0
0ff0
0000
0000
0000
0000
ENDCHAR
STARTCHAR h.sc
ENCODING -1
SWIDTH 600 0
DWIDTH 12 0
BBX 12 20 0 -4
BITMAP
0000
0000
0000
0000
0000
0000
3030
3030
3030
3030
3ff0
3ff0
3030
3030
3030
3030
0000
0000
0000
0000
ENDCHAR
STARTCHAR i.sc
ENCODING -1
SWIDTH 600 0
DWIDTH 12 0
BBX 12 20 0 -4
BITMAP
0000
0000
0000
0000
0000
0000
0fc0
0fc0
0300
0300
0300
0300
0300
0300
0fc0
0fc0
0000
0000
0000
0000
ENDCHAR
STARTCHAR j.sc
ENCODING -1
SWIDTH 600 0
DWIDTH 12 0
BBX 12 20 0 -4
BITMAP
0000
0000
0000
0000
0000
0000
0030
0030
0030
0030
0030
0030
3030
3870
1fe0
0fc0
0000
0000
0000
0000
ENDCHAR
STARTCHAR j.sc.narrow
ENCODING -1
SWIDTH 600 0
DWIDTH 12 0
BBX 12 20 0 -4
BITMAP
0000
0000
0000
0000
0000
0000
00c0
00c0
00c0
00c0
00c0
00c0
30c0
39c0
1f80
0f00
0000
0000
0000
0000
ENDCHAR
STARTCHAR k.sc
ENCODING -1
SWIDTH 600 0
DWIDTH 12 0
BBX 12 20 0 -4
BITMAP
0000
0000
0000
0000
0000
0000
3030
3070
30e0
31c0
3f80
3f80
31c0
30e0
3070
3030
0000
0000
0000
0000
ENDCHAR
STARTCHAR l.sc
ENCODING -1
SWIDTH 600 0
DWIDTH 12 0
BBX 12 20 0 -4
BITMAP
0000
0000
0000
0000
0000
0000
3000
3000
3000
3000
3000
3000
3000
3000
3ff0
3ff0
0000
0000
0000
0000
ENDCHAR
STARTCHAR l.sc.narrow
ENCODING -1
SWIDTH 600 0
DWIDTH 12 0
BBX 12 20 0 -4
BITMAP
0000
0000
0000
0000
0000
0000
0c00
0c00
0c00
0c00
0c00
0c00
0c00
0c00
0ff0
0ff0
0000
0000
0000
0000
ENDCHAR
STARTCHAR m.sc
ENCODING -1
SWIDTH 600 0
DWIDTH 12 0
BBX 12 20 0 -4
BITMAP
0000
0000
0000
0000
0000
0000
3030
3030
3cf0
3ff0
37b0
3330
3030
3030
3030
3030
0000
0000
0000
0000
ENDCHAR
STARTCHAR n.sc
ENCODING -1
SWIDTH 600 0
DWIDTH 12 0
BBX 12 20 0 -4
BITMAP
0000
0000
0000
0000
0000
0000
3030
3030
3c30
3e30
3730
33b0
31f0
30f0
3030
3030
0000
0000
0000
0000
ENDCHAR
STARTCHAR o.sc
ENCODING -1
SWIDTH 600 0
DWIDTH 12 0
BBX 12 20 0 -4
BITMAP
0000
0000
0000
0000
0000
0000
0fc0
1fe0
3870
3030
3030
3030
3030
3870
1fe0
0fc0
0000
0000
0000
0000
ENDCHAR
STARTCHAR p.sc
ENCODING -1
SWIDTH 600 0
DWIDTH 12 0
BBX 12 20 0 -4
BITMAP
0000
0000
0000
0000
0000
0000
3fc0
3fe0
3070
3070
3fe0
3fc0
3000
3000
3000
3000
0000
0000
0000
0000
ENDCHAR
STARTCHAR q.sc
ENCODING -1
SWIDTH 600 0
DWIDTH 12 0
BBX 12 20 0 -4
BITMAP
0000
0000
0000
0000
0000
0000
0fc0
1fe0
3870
3030
3330
33f0
31e0
39e0
1ff0
0f30
0000
0000
0000
0000
ENDCHAR
STARTCHAR r.sc
ENCODING -1
SWIDTH 600 0
DWIDTH 12 0
BBX 12 20 0 -4
BITMAP
0000
0000
0000
0000
0000
0000
3fc0
3fe0
3070
3070
3fe0
3fc0
30c0
30e0
3070
3030
0000
0000
0000
0000
ENDCHAR
STARTCHAR s.sc
ENCODING -1
SWIDTH 600 0
DWIDTH 12 0
BBX 12 20 0 -4
BITMAP
0000
0000
0000
0000
0000
0000
0ff0
1ff0
3800
3800
1fc0
0fe0
0070
0070
3fe0
3fc0
0000
0000
0000
0000
ENDCHAR
STARTCHAR t.sc
ENCODING -1
SWIDTH 600 0
DWIDTH 12 0
BBX 12 20 0 -4
BITMAP
0000
0000
0000
0000
0000
0000
3ff0
3ff0
0300
0300
0300
0300
0300
0300
0300
0300
0000
0000
0000
0000
ENDCHAR
STARTCHAR u.sc
ENCODING -1
SWIDTH 600 0
DWIDTH 12 0
BBX 12 20 0 -4
BITMAP
0000
0000
0000
0000
0000
0000
3030
3030
3030
3030
3030
3030
3030
3870
1fe0
0fc0
0000
0000
0000
0000
ENDCHAR
STARTCHAR v.sc
ENCODING -1
SWIDTH 600 0
DWIDTH 12 0
BBX 12 20 0 -4
BITMAP
0000
0000
0000
0000
0000
0000
3030
3030
3030
3870
1ce0
0cc0
0cc0
0fc0
0780
0300
0000
0000
0000
0000
ENDCHAR
STARTCHAR w.sc
ENCODING -1
SWIDTH 600 0
DWIDTH 12 0
BBX 12 20 0 -4
BITMAP
0000
0000
0000
0000
0000
0000
3030
3030
3030
3030
3330
3330
3330
3ff0
1fe0
0cc0
0000
0000
0000
0000
ENDCHAR
STARTCHAR x.sc
ENCODING -1
SWIDTH 600 0
DWIDTH 12 0
BBX 12 20 0 -4
BITMAP
0000
0000
0000
0000
0000
0000
3030
3870
1ce0
0fc0
0780
0780
0fc0
1ce0
3870
3030
0000
0000
0000
0000
ENDCHAR
STARTCHAR y.sc
ENCODING -1
SWIDTH 600 0
DWIDTH 12 0
BBX 12 20 0 -4
BITMAP
0000
0000
0000
0000
0000
0000
3030
3870
1ce0
0fc0
0780
0300
0300
0300
0300
0300
0000
0000
0000
0000
ENDCHAR
STARTCHAR z.sc
ENCODING -1
SWIDTH 600 0
DWIDTH 12 0
BBX 12 20 0 -4
BITMAP
0000
0000
0000
0000
0000
0000
3ff0
3ff0
0030
0070
0fe0
1fc0
3800
3000
3ff0
3ff0
0000
0000
0000
0000
ENDCHAR
STARTCHAR bar
ENCODING 124
SWIDTH 600 0
DWIDTH 12 0
BBX 12 20 0 -4
BITMAP
0000
0000
0300
0300
0300
0300
0300
0300
0300
0300
0300
0300
0300
0300
0300
0300
0000
0000
0000
0000
ENDCHAR
STARTCHAR bar.broken
ENCODING -1
SWIDTH 600 0
DWIDTH 12 0
BBX 12 20 0 -4
BITMAP
0000
0000
0300
0300
0300
0300
0300
0300
0000
0000
0300
0300
0300
0300
0300
0300
0000
0000
0000
0000
ENDCHAR
STARTCHAR uni00A0
ENCODING 160
SWIDTH 600 0
DWIDTH 12 0
BBX 12 20 0 -4
BITMAP
0000
0000
0000
0000
0000
0000
0000
0000
0000
0000
0000
0000
0000
0000
0000
0000
0000
0000
0000
0000
ENDCHAR
STARTCHAR exclamdown
ENCODING 161
SWIDTH 600 0
DWIDTH 12 0
BBX 12 20 0 -4
BITMAP
0000
0000
0000
0000
0000
0000
0300
0300
0000
0000
0300
0300
0300
0300
0300
0300
0300
0300
0300
0300
ENDCHAR
STARTCHAR cent
ENCODING 162
SWIDTH 600 0
DWIDTH 12 0
BBX 12 20 0 -4
BITMAP
0000
0000
0000
0000
0300
0300
0ff0
1ff0
3b00
3300
3300
3300
3300
3b00
1ff0
0ff0
0300
0300
0000
0000
ENDCHAR
STARTCHAR yen
ENCODING 165
SWIDTH 600 0
DWIDTH 12 0
BBX 12 20 0 -4
BITMAP
0000
0000
3030
3870
1ce0
0cc0
3ff0
3ff0
0300
0300
3ff0
3ff0
0300
0300
0300
0300
0000
0000
0000
0000
ENDCHAR
STARTCHAR dieresis
ENCODING 168
SWIDTH 600 0
DWIDTH 12 0
BBX 12 20 0 -4
BITMAP
0000
0000
0cc0
0cc0
0000
0000
0000
0000
0000
0000
0000
0000
0000
0000
0000
0000
0000
0000
0000
0000
ENDCHAR
STARTCHAR copyright
ENCODING 169
SWIDTH 600 0
DWIDTH 12 0
BBX 12 20 0 -4
BITMAP
0000
0000
0fc0
1fe0
3870
3030
3330
37b0
3ff0
3cf0
3c30
3c30
3cf0
3ff0
37b0
3330
3030
3870
1fe0
0fc0
ENDCHAR
STARTCHAR ordfeminine
ENCODING 170
SWIDTH 600 0
DWIDTH 12 0
BBX 12 20 0 -4
BITMAP
0000
0000
0fc0
0fe0
0070
0030
0ff0
1ff0
3830
3830
1ff0
0ff0
0000
0000
3ff0
3ff0
0000
0000
0000
0000
ENDCHAR
STARTCHAR guillemotleft
ENCODING 171
SWIDTH 600 0
DWIDTH 12 0
BBX 12 20 0 -4
BITMAP
0000
0000
0000
0000
0000
0000
0000
0000
0c30
1c70
38e0
38e0
1c70
0c30
0000
0000
0000
0000
0000
0000
ENDCHAR
STARTCHAR logicalnot
ENCODING 172
SWIDTH 600 0
DWIDTH 12 0
BBX 12 20 0 -4
BITMAP
0000
0000
0000
0000
0000
0000
3ff0
3ff0
0030
0030
0030
0030
0000
0000
0000
0000
0000
0000
0000
0000
ENDCHAR
STARTCHAR uni00AD
ENCODING 173
SWIDTH 600 0
DWIDTH 12 0
BBX 12 20 0 -4
BITMAP
0000
0000
0000
0000
0000
0000
0000
0000
0fc0
0fc0
0000
0000
0000
0000
0000
0000
0000
0000
0000
0000
ENDCHAR
STARTCHAR registered
ENCODING 174
SWIDTH 600 0
DWIDTH 12 0
BBX 12 20 0 -4
BITMAP
0000
0000
0fc0
1fe0
3870
3030
3f30
3fb0
3df0
3cf0
3cf0
3df0
3fb0
3fb0
3df0
3cf0
3030
3870
1fe0
0fc0
ENDCHAR
STARTCHAR macron
ENCODING 175
SWIDTH 600 0
DWIDTH 12 0
BBX 12 20 0 -4
BITMAP
0000
0000
0fc0
0fc0
0000
0000
0000
0000
0000
0000
0000
0000
0000
0000
0000
0000
0000
0000
0000
0000
ENDCHAR
STARTCHAR plusminus
ENCODING 177
SWIDTH 600 0
DWIDTH 12 0
BBX 12 20 0 -4
BITMAP
0000
0000
0300
0300
0300
0300
3ff0
3ff0
0300
0300
0300
0300
0000
0000
3ff0
3ff0
0000
0000
0000
0000
ENDCHAR
STARTCHAR twosuperior
ENCODING 178
SWIDTH 600 0
DWIDTH 12 0
BBX 12 20 0 -4
BITMAP
0000
0000
0f00
0f80
01c0
01c0
0380
0700
0e00
0c00
0fc0
0fc0
0000
0000
0000
0000
0000
0000
0000
0000
ENDCHAR
STARTCHAR threesuperior
ENCODING 179
SWIDTH 600 0
DWIDTH 12 0
BBX 12 20 0 -4
BITMAP
0000
0000
0f00
0f80
01c0
01c0
0f80
0f80
01c0
01c0
0f80
0f00
0000
0000
0000
0000
0000
0000
0000
0000
ENDCHAR
STARTCHAR acute
ENCODING 180
SWIDTH 600 0
DWIDTH 12 0
BBX 12 20 0 -4
BITMAP
0000
0000
00c0
01c0
0380
0700
0e00
0c00
0000
0000
0000
0000
0000
0000
0000
0000
0000
0000
0000
0000
ENDCHAR
STARTCHAR mu
ENCODING 181
SWIDTH 600 0
DWIDTH 12 0
BBX 12 20 0 -4
BITMAP
0000
0000
0000
0000
0000
0000
30c0
30c0
30c0
30c0
30c0
30c0
30c0
31e0
3ff0
3f30
3000
3000
3000
3000
ENDCHAR
STARTCHAR paragraph
ENCODING 182
SWIDTH 600 0
DWIDTH 12 0
BBX 12 20 0 -4
BITMAP
0000
0000
0f30
1f30
3b30
3330
3330
3b30
1f30
0f30
0330
0330
0330
0330
0330
0330
0000
0000
0000
0000
ENDCHAR
STARTCHAR periodcentered
ENCODING 183
SWIDTH 600 0
DWIDTH 12 0
BBX 12 20 0 -4
BITMAP
0000
0000
0000
0000
0000
0000
0000
0000
0300
0300
0000
0000
0000
0000
0000
0000
0000
0000
0000
0000
ENDCHAR
STARTCHAR cedilla
ENCODING 184
SWIDTH 600 0
DWIDTH 12 0
BBX 12 20 0 -4
BITMAP
0000
0000
0000
0000
0000
0000
0000
0000
0000
0000
0000
0000
0000
0000
0300
0380
01c0
01c0
0380
0300
ENDCHAR
STARTCHAR cedilla.square
ENCODING 61952
SWIDTH 600 0
DWIDTH 12 0
BBX 12 20 0 -4
BITMAP
0000
0000
0000
0000
0000
0000
0000
0000
0000
0000
0000
0000
0000
0000
0300
0380
01c0
00c0
03c0
03c0
ENDCHAR
STARTCHAR onesuperior
ENCODING 185
SWIDTH 600 0
DWIDTH 12 0
BBX 12 20 0 -4
BITMAP
0000
0000
0300
0300
0f00
0f00
0300
0300
0300
0300
0fc0
0fc0
0000
0000
0000
0000
0000
0000
0000
0000
ENDCHAR
STARTCHAR ordmasculine
ENCODING 186
SWIDTH 600 0
DWIDTH 12 0
BBX 12 20 0 -4
BITMAP
0000
0000
0fc0
1fe0
3870
3030
3030
3030
3030
3870
1fe0
0fc0
0000
0000
3ff0
3ff0
0000
0000
0000
0000
ENDCHAR
STARTCHAR guillemotright
ENCODING 187
SWIDTH 600 0
DWIDTH 12 0
BBX 12 20 0 -4
BITMAP
0000
0000
0000
0000
0000
0000
0000
0000
30c0
38e0
1c70
1c70
38e0
30c0
0000
0000
0000
0000
0000
0000
ENDCHAR
STARTCHAR questiondown
ENCODING 191
SWIDTH 600 0
DWIDTH 12 0
BBX 12 20 0 -4
BITMAP
0000
0000
0000
0000
0000
0000
0300
0300
0000
0000
0300
0300
0300
0700
0e00
1c00
3830
3870
1fe0
0fc0
ENDCHAR
STARTCHAR questiondown.open
ENCODING 61969
SWIDTH 600 0
DWIDTH 12 0
BBX 12 20 0 -4
BITMAP
0000
0000
0000
0000
0000
0000
0300
0300
0000
0000
0300
0700
0e00
1c00
3800
3000
3030
3870
1fe0
0fc0
ENDCHAR
STARTCHAR Agrave
ENCODING 192
SWIDTH 600 0
DWIDTH 12 0
BBX 12 20 0 -4
BITMAP
0000
0000
0c00
0e00
0700
0300
0fc0
1fe0
3870
3030
3ff0
3ff0
3030
3030
3030
3030
0000
0000
0000
0000
ENDCHAR
STARTCHAR Aacute
ENCODING 193
SWIDTH 600 0
DWIDTH 12 0
BBX 12 20 0 -4
BITMAP
0000
0000
00c0
01c0
0380
0300
0fc0
1fe0
3870
3030
3ff0
3ff0
3030
3030
3030
3030
0000
0000
0000
0000
ENDCHAR
STARTCHAR Acircumflex
ENCODING 194
SWIDTH 600 0
DWIDTH 12 0
BBX 12 20 0 -4
BITMAP
0000
0000
0300
0780
0fc0
0cc0
0fc0
1fe0
3870
3030
3ff0
3ff0
3030
3030
3030
3030
0000
0000
0000
0000
ENDCHAR
STARTCHAR Atilde
ENCODING 195
SWIDTH 600 0
DWIDTH 12 0
BBX 12 20 0 -4
BITMAP
0000
0000
0330
07f0
0fe0
0cc0
0fc0
1fe0
3870
3030
3ff0
3ff0
3030
3030
3030
3030
0000
0000
0000
0000
ENDCHAR
STARTCHAR AE
ENCODING 198
SWIDTH 600 0
DWIDTH 12 0
BBX 12 20 0 -4
BITMAP
0000
0000
0ff0
1ff0
3b00
3300
3300
3300
33c0
33c0
3f00
3f00
3300
3300
33f0
33f0
0000
0000
0000
0000
ENDCHAR
STARTCHAR AE.c2sc
ENCODING -1
SWIDTH 600 0
DWIDTH 12 0
BBX 12 20 0 -4
BITMAP
0000
0000
0000
0000
0000
0000
0ff0
1ff0
3b00
3300
33c0
33c0
3f00
3f00
33f0
33f0
0000
0000
0000
0000
ENDCHAR
STARTCHAR Ccedilla
ENCODING 199
SWIDTH 600 0
DWIDTH 12 0
BBX 12 20 0 -4
BITMAP
0000
0000
0fc0
1fe0
3870
3030
3000
3000
3000
3000
3000
3000
3030
3870
1fe0
0fc0
0300
0700
0e00
0c00
ENDCHAR
STARTCHAR Ccedilla.square
ENCODING 61953
SWIDTH 600 0
DWIDTH 12 0
BBX 12 20 0 -4
BITMAP
0000
0000
0fc0
1fe0
3870
3030
3000
3000
3000
3000
3000
3000
3030
3870
1fe0
0fc0
0300
0300
0f00
0f00
ENDCHAR
STARTCHAR Ccedilla.c2sc
ENCODING 61840
SWIDTH 600 0
DWIDTH 12 0
BBX 12 20 0 -4
BITMAP
0000
0000
0000
0000
0000
0000
0fc0
1fe0
3870
3030
3000
3000
3030
3870
1fe0
0fc0
0300
0700
0e00
0c00
ENDCHAR
STARTCHAR Ccedilla.c2sc.square
ENCODING 61954
SWIDTH 600 0
DWIDTH 12 0
BBX 12 20 0 -4
BITMAP
0000
0000
0000
0000
0000
0000
0fc0
1fe0
3870
3030
3000
3000
3030
3870
1fe0
0fc0
0300
0300
0f00
0f00
ENDCHAR
STARTCHAR Egrave
ENCODING 200
SWIDTH 600 0
DWIDTH 12 0
BBX 12 20 0 -4
BITMAP
0000
0000
0c00
0e00
0700
0300
3ff0
3ff0
3000
3000
3fc0
3fc0
3000
3000
3ff0
3ff0
0000
0000
0000
0000
ENDCHAR
STARTCHAR Ecircumflex
ENCODING 202
SWIDTH 600 0
DWIDTH 12 0
BBX 12 20 0 -4
BITMAP
0000
0000
0300
0780
0fc0
0cc0
3ff0
3ff0
3000
3000
3fc0
3fc0
3000
3000
3ff0
3ff0
0000
0000
0000
0000
ENDCHAR
STARTCHAR Edieresis
ENCODING 203
SWIDTH 600 0
DWIDTH 12 0
BBX 12 20 0 -4
BITMAP
0000
0000
0cc0
0cc0
0000
0000
3ff0
3ff0
3000
3000
3fc0
3fc0
3000
3000
3ff0
3ff0
0000
0000
0000
0000
ENDCHAR
STARTCHAR Igrave
ENCODING 204
SWIDTH 600 0
DWIDTH 12 0
BBX 12 20 0 -4
BITMAP
0000
0000
0c00
0e00
0700
0300
0000
0000
0fc0
0fc0
0300
0300
0300
0300
0fc0
0fc0
0000
0000
0000
0000
ENDCHAR
STARTCHAR Iacute
ENCODING 205
SWIDTH 600 0
DWIDTH 12 0
BBX 12 20 0 -4
BITMAP
0000
0000
00c0
01c0
0380
0300
0000
0000
0fc0
0fc0
0300
0300
0300
0300
0fc0
0fc0
0000
0000
0000
0000
ENDCHAR
STARTCHAR Icircumflex
ENCODING 206
SWIDTH 600 0
DWIDTH 12 0
BBX 12 20 0 -4
BITMAP
0000
0000
0300
0780
0fc0
0cc0
0000
0000
0fc0
0fc0
0300
0300
0300
0300
0fc0
0fc0
0000
0000
0000
0000
ENDCHAR
STARTCHAR Idieresis
ENCODING 207
SWIDTH 600 0
DWIDTH 12 0
BBX 12 20 0 -4
BITMAP
0000
0000
0cc0
0cc0
0000
0000
0fc0
0fc0
0300
0300
0300
0300
0300
0300
0fc0
0fc0
0000
0000
0000
0000
ENDCHAR
STARTCHAR Eth
ENCODING 208
SWIDTH 600 0
DWIDTH 12 0
BBX 12 20 0 -4
BITMAP
0000
0000
0fc0
0fe0
0c70
0c30
0c30
0c30
3f30
3f30
0c30
0c30
0c30
0c70
0fe0
0fc0
0000
0000
0000
0000
ENDCHAR
STARTCHAR Eth.serif
ENCODING 61985
SWIDTH 600 0
DWIDTH 12 0
BBX 12 20 0 -4
BITMAP
0000
0000
3fc0
3fe0
0c70
0c30
0c30
0c30
3f30
3f30
0c30
0c30
0c30
0c70
3fe0
3fc0
0000
0000
0000
0000
ENDCHAR
STARTCHAR Eth.c2sc
ENCODING -1
SWIDTH 600 0
DWIDTH 12 0
BBX 12 20 0 -4
BITMAP
0000
0000
0000
0000
0000
0000
0fc0
0fe0
0c70
0c30
3f30
3f30
0c30
0c70
0fe0
0fc0
0000
0000
0000
0000
ENDCHAR
STARTCHAR Eth.c2sc.serif
ENCODING -1
SWIDTH 600 0
DWIDTH 12 0
BBX 12 20 0 -4
BITMAP
0000
0000
0000
0000
0000
0000
3fc0
3fe0
0c70
0c30
3f30
3f30
0c30
0c70
3fe0
3fc0
0000
0000
0000
0000
ENDCHAR
STARTCHAR Ntilde
ENCODING 209
SWIDTH 600 0
DWIDTH 12 0
BBX 12 20 0 -4
BITMAP
0000
0000
0330
07f0
0fe0
0cc0
0000
0000
3c30
3e30
3730
33b0
31f0
30f0
3030
3030
0000
0000
0000
0000
ENDCHAR
STARTCHAR Ograve
ENCODING 210
SWIDTH 600 0
DWIDTH 12 0
BBX 12 20 0 -4
BITMAP
0000
0000
0c00
0e00
0700
0300
0fc0
1fe0
3870
3030
3030
3030
3030
3870
1fe0
0fc0
0000
0000
0000
0000
ENDCHAR
STARTCHAR Oacute
ENCODING 211
SWIDTH 600 0
DWIDTH 12 0
BBX 12 20 0 -4
BITMAP
0000
0000
00c0
01c0
0380
0300
0fc0
1fe0
3870
3030
3030
3030
3030
3870
1fe0
0fc0
0000
0000
0000
0000
ENDCHAR
STARTCHAR Ocircumflex
ENCODING 212
SWIDTH 600 0
DWIDTH 12 0
BBX 12 20 0 -4
BITMAP
0000
0000
0300
0780
0fc0
0cc0
0fc0
1fe0
3870
3030
3030
3030
3030
3870
1fe0
0fc0
0000
0000
0000
0000
ENDCHAR
STARTCHAR Otilde
ENCODING 213
SWIDTH 600 0
DWIDTH 12 0
BBX 12 20 0 -4
BITMAP
0000
0000
0330
07f0
0fe0
0cc0
0fc0
1fe0
3870
3030
3030
3030
3030
3870
1fe0
0fc0
0000
0000
0000
0000
ENDCHAR
STARTCHAR multiply
ENCODING 215
SWIDTH 600 0
DWIDTH 12 0
BBX 12 20 0 -4
BITMAP
0000
0000
0000
0000
3030
3870
1ce0
0fc0
0780
0780
0fc0
1ce0
3870
3030
0000
0000
0000
0000
0000
0000
ENDCHAR
STARTCHAR Oslash
ENCODING 216
SWIDTH 600 0
DWIDTH 12 0
BBX 12 20 0 -4
BITMAP
0000
0000
0f30
1ff0
39e0
31e0
33f0
3330
3330
3330
3330
3f30
1e30
1e70
3fe0
33c0
0000
0000
0000
0000
ENDCHAR
STARTCHAR Oslash.c2sc
ENCODING -1
SWIDTH 600 0
DWIDTH 12 0
BBX 12 20 0 -4
BITMAP
0000
0000
0000
0000
0000
0000
0f30
1ff0
39e0
31e0
33f0
3f30
1e30
1e70
3fe0
33c0
0000
0000
0000
0000
ENDCHAR
STARTCHAR Ugrave
ENCODING 217
SWIDTH 600 0
DWIDTH 12 0
BBX 12 20 0 -4
BITMAP
0000
0000
0c00
0e00
0700
0300
3030
3030
3030
3030
3030
3030
3030
3870
1fe0
0fc0
0000
0000
0000
0000
ENDCHAR
STARTCHAR Uacute
ENCODING 218
SWIDTH 600 0
DWIDTH 12 0
BBX 12 20 0 -4
BITMAP
0000
0000
00c0
01c0
0380
0300
3030
3030
3030
3030
3030
3030
3030
3870
1fe0
0fc0
0000
0000
0000
0000
ENDCHAR
STARTCHAR Ucircumflex
ENCODING 219
SWIDTH 600 0
DWIDTH 12 0
BBX 12 20 0 -4
BITMAP
0000
0000
0300
0780
0fc0
0cc0
0000
0000
3030
3030
3030
3030
3030
3870
1fe0
0fc0
0000
0000
0000
0000
ENDCHAR
STARTCHAR Yacute
ENCODING 221
SWIDTH 600 0
DWIDTH 12 0
BBX 12 20 0 -4
BITMAP
0000
0000
00c0
01c0
0380
0300
3030
3870
1ce0
0fc0
0780
0300
0300
0300
0300
0300
0000
0000
0000
0000
ENDCHAR
STARTCHAR Thorn
ENCODING 222
SWIDTH 600 0
DWIDTH 12 0
BBX 12 20 0 -4
BITMAP
0000
0000
3000
3000
3fc0
3fe0
3070
3030
3030
3070
3fe0
3fc0
3000
3000
3000
3000
0000
0000
0000
0000
ENDCHAR
STARTCHAR Thorn.c2sc
ENCODING 61890
SWIDTH 600 0
DWIDTH 12 0
BBX 12 20 0 -4
BITMAP
0000
0000
0000
0000
0000
0000
3000
3000
3fc0
3fe0
3070
3070
3fe0
3fc0
3000
3000
0000
0000
0000
0000
ENDCHAR
STARTCHAR germandbls.sc
ENCODING -1
SWIDTH 600 0
DWIDTH 12 0
BBX 12 20 0 -4
BITMAP
0000
0000
0000
0000
0000
0000
0fc0
1fe0
3870
3070
30e0
30e0
3070
3070
33e0
33c0
0000
0000
0000
0000
ENDCHAR
STARTCHAR agrave.sc
ENCODING -1
SWIDTH 600 0
DWIDTH 12 0
BBX 12 20 0 -4
BITMAP
0000
0000
0c00
0e00
0700
0300
0fc0
1fe0
3870
3030
3ff0
3ff0
3030
3030
3030
3030
0000
0000
0000
0000
ENDCHAR
STARTCHAR aacute
ENCODING 225
SWIDTH 600 0
DWIDTH 12 0
BBX 12 20 0 -4
BITMAP
0000
0000
00c0
01c0
0380
0300
0fc0
0fe0
0070
0030
0ff0
1ff0
3830
3830
1ff0
0ff0
0000
0000
0000
0000
ENDCHAR
STARTCHAR aacute.sc
ENCODING -1
SWIDTH 600 0
DWIDTH 12 0
BBX 12 20 0 -4
BITMAP
0000
0000
00c0
01c0
0380
0300
0fc0
1fe0
3870
3030
3ff0
3ff0
3030
3030
3030
3030
0000
0000
0000
0000
ENDCHAR
STARTCHAR acircumflex.sc
ENCODING -1
SWIDTH 600 0
DWIDTH 12 0
BBX 12 20 0 -4
BITMAP
0000
0000
0300
0780
0fc0
0cc0
0fc0
1fe0
3870
3030
3ff0
3ff0
3030
3030
3030
3030
0000
0000
0000
0000
ENDCHAR
STARTCHAR atilde
ENCODING 227
SWIDTH 600 0
DWIDTH 12 0
BBX 12 20 0 -4
BITMAP
0000
0000
0330
07f0
0fe0
0cc0
0fc0
0fe0
0070
0030
0ff0
1ff0
3830
3830
1ff0
0ff0
0000
0000
0000
0000
ENDCHAR
STARTCHAR atilde.sc
ENCODING -1
SWIDTH 600 0
DWIDTH 12 0
BBX 12 20 0 -4
BITMAP
0000
0000
0330
07f0
0fe0
0cc0
0fc0
1fe0
3870
3030
3ff0
3ff0
3030
3030
3030
3030
0000
0000
0000
0000
ENDCHAR
STARTCHAR adieresis.sc
ENCODING -1
SWIDTH 600 0
DWIDTH 12 0
BBX 12 20 0 -4
BITMAP
0000
0000
0cc0
0cc0
0000
0000
0fc0
1fe0
3870
3030
3ff0
3ff0
3030
3030
3030
3030
0000
0000
0000
0000
ENDCHAR
STARTCHAR aring.sc
ENCODING -1
SWIDTH 600 0
DWIDTH 12 0
BBX 12 20 0 -4
BITMAP
0000
0000
0300
0300
0000
0000
0fc0
1fe0
3870
3030
3ff0
3ff0
3030
3030
3030
3030
0000
0000
0000
0000
ENDCHAR
STARTCHAR ae
ENCODING 230
SWIDTH 600 0
DWIDTH 12 0
BBX 12 20 0 -4
BITMAP
0000
0000
0000
0000
0000
0000
0cc0
0fe0
07f0
0330
0ff0
1ff0
3b00
3b00
1fc0
0fc0
0000
0000
0000
0000
ENDCHAR
STARTCHAR ae.sc
ENCODING -1
SWIDTH 600 0
DWIDTH 12 0
BBX 12 20 0 -4
BITMAP
0000
0000
0000
0000
0000
0000
0ff0
1ff0
3b00
3300
33c0
33c0
3f00
3f00
33f0
33f0
0000
0000
0000
0000
ENDCHAR
STARTCHAR ccedilla.sc
ENCODING -1
SWIDTH 600 0
DWIDTH 12 0
BBX 12 20 0 -4
BITMAP
0000
0000
0000
0000
0000
0000
0fc0
1fe0
3870
3030
3000
3000
3030
3870
1fe0
0fc0
0300
0700
0e00
0c00
ENDCHAR
STARTCHAR ccedilla.sc.square
ENCODING -1
SWIDTH 600 0
DWIDTH 12 0
BBX 12 20 0 -4
BITMAP
0000
0000
0000
0000
0000
0000
0fc0
1fe0
3870
3030
3000
3000
3030
3870
1fe0
0fc0
0300
0300
0f00
0f00
ENDCHAR
STARTCHAR egrave.sc
ENCODING -1
SWIDTH 600 0
DWIDTH 12 0
BBX 12 20 0 -4
BITMAP
0000
0000
0c00
0e00
0700
0300
3ff0
3ff0
3000
3000
3fc0
3fc0
3000
3000
3ff0
3ff0
0000
0000
0000
0000
ENDCHAR
STARTCHAR eacute.sc
ENCODING -1
SWIDTH 600 0
DWIDTH 12 0
BBX 12 20 0 -4
BITMAP
0000
0000
00c0
01c0
0380
0300
3ff0
3ff0
3000
3000
3fc0
3fc0
3000
3000
3ff0
3ff0
0000
0000
0000
0000
ENDCHAR
STARTCHAR ecircumflex.sc
ENCODING -1
SWIDTH 600 0
DWIDTH 12 0
BBX 12 20 0 -4
BITMAP
0000
0000
0300
0780
0fc0
0cc0
3ff0
3ff0
3000
3000
3fc0
3fc0
3000
3000
3ff0
3ff0
0000
0000
0000
0000
ENDCHAR
STARTCHAR edieresis.sc
ENCODING -1
SWIDTH 600 0
DWIDTH 12 0
BBX 12 20 0 -4
BITMAP
0000
0000
0cc0
0cc0
0000
0000
3ff0
3ff0
3000
3000
3fc0
3fc0
3000
3000
3ff0
3ff0
0000
0000
0000
0000
ENDCHAR
STARTCHAR igrave.sc
ENCODING -1
SWIDTH 600 0
DWIDTH 12 0
BBX 12 20 0 -4
BITMAP
0000
0000
0c00
0e00
0700
0300
0000
0000
0fc0
0fc0
0300
0300
0300
0300
0fc0
0fc0
0000
0000
0000
0000
ENDCHAR
STARTCHAR iacute
ENCODING 237
SWIDTH 600 0
DWIDTH 12 0
BBX 12 20 0 -4
BITMAP
0000
0000
00c0
01c0
0380
0300
0000
0000
0f00
0f00
0300
0300
0300
0300
0fc0
0fc0
0000
0000
0000
0000
ENDCHAR
STARTCHAR iacute.sc
ENCODING -1
SWIDTH 600 0
DWIDTH 12 0
BBX 12 20 0 -4
BITMAP
0000
0000
00c0
01c0
0380
0300
0000
0000
0fc0
0fc0
0300
0300
0300
0300
0fc0
0fc0
0000
0000
0000
0000
ENDCHAR
STARTCHAR idieresis.sc
ENCODING -1
SWIDTH 600 0
DWIDTH 12 0
BBX 12 20 0 -4
BITMAP
0000
0000
0cc0
0cc0
0000
0000
0fc0
0fc0
0300
0300
0300
0300
0300
0300
0fc0
0fc0
0000
0000
0000
0000
ENDCHAR
STARTCHAR eth
ENCODING 240
SWIDTH 600 0
DWIDTH 12 0
BBX 12 20 0 -4
BITMAP
0000
0000
3cc0
3fc0
0780
0780
0fc0
0ce0
0070
0030
0ff0
1ff0
3830
3870
1fe0
0fc0
0000
0000
0000
0000
ENDCHAR
STARTCHAR eth.sc
ENCODING -1
SWIDTH 600 0
DWIDTH 12 0
BBX 12 20 0 -4
BITMAP
0000
0000
0000
0000
0000
0000
0fc0
0fe0
0c70
0c30
3f30
3f30
0c30
0c70
0fe0
0fc0
0000
0000
0000
0000
ENDCHAR
STARTCHAR eth.sc.serif
ENCODING -1
SWIDTH 600 0
DWIDTH 12 0
BBX 12 20 0 -4
BITMAP
0000
0000
0000
0000
0000
0000
3fc0
3fe0
0c70
0c30
3f30
3f30
0c30
0c70
3fe0
3fc0
0000
0000
0000
0000
ENDCHAR
STARTCHAR ntilde
ENCODING 241
SWIDTH 600 0
DWIDTH 12 0
BBX 12 20 0 -4
BITMAP
0000
0000
0330
07f0
0fe0
0cc0
3fc0
3fe0
3070
3030
3030
3030
3030
3030
3030
3030
0000
0000
0000
0000
ENDCHAR
STARTCHAR ntilde.sc
ENCODING -1
SWIDTH 600 0
DWIDTH 12 0
BBX 12 20 0 -4
BITMAP
0000
0000
0330
07f0
0fe0
0cc0
0000
0000
3c30
3e30
3730
33b0
31f0
30f0
3030
3030
0000
0000
0000
0000
ENDCHAR
STARTCHAR ograve.large
ENCODING -1
SWIDTH 600 0
DWIDTH 12 0
BBX 12 20 0 -4
BITMAP
0000
0000
0c00
0e00
0700
0300
0fc0
1fe0
3870
3030
3030
3030
3030
3870
1fe0
0fc0
0000
0000
0000
0000
ENDCHAR
STARTCHAR ograve.sc
ENCODING -1
SWIDTH 600 0
DWIDTH 12 0
BBX 12 20 0 -4
BITMAP
0000
0000
0c00
0e00
0700
0300
0fc0
1fe0
3870
3030
3030
3030
3030
3870
1fe0
0fc0
0000
0000
0000
0000
ENDCHAR
STARTCHAR oacute
ENCODING 243
SWIDTH 600 0
DWIDTH 12 0
BBX 12 20 0 -4
BITMAP
0000
0000
00c0
01c0
0380
0300
0000
0000
0fc0
1fe0
3870
3030
3030
3870
1fe0
0fc0
0000
0000
0000
0000
ENDCHAR
STARTCHAR oacute.large
ENCODING -1
SWIDTH 600 0
DWIDTH 12 0
BBX 12 20 0 -4
BITMAP
0000
0000
00c0
01c0
0380
0300
0fc0
1fe0
3870
3030
3030
3030
3030
3870
1fe0
0fc0
0000
0000
0000
0000
ENDCHAR
STARTCHAR oacute.sc
ENCODING -1
SWIDTH 600 0
DWIDTH 12 0
BBX 12 20 0 -4
BITMAP
0000
0000
00c0
01c0
0380
0300
0fc0
1fe0
3870
3030
3030
3030
3030
3870
1fe0
0fc0
0000
0000
0000
0000
ENDCHAR
STARTCHAR ocircumflex
ENCODING 244
SWIDTH 600 0
DWIDTH 12 0
BBX 12 20 0 -4
BITMAP
0000
0000
0300
0780
0fc0
0cc0
0000
0000
0fc0
1fe0
3870
3030
3030
3870
1fe0
0fc0
0000
0000
0000
0000
ENDCHAR
STARTCHAR ocircumflex.sc
ENCODING -1
SWIDTH 600 0
DWIDTH 12 0
BBX 12 20 0 -4
BITMAP
0000
0000
0300
0780
0fc0
0cc0
0fc0
1fe0
3870
3030
3030
3030
3030
3870
1fe0
0fc0
0000
0000
0000
0000
ENDCHAR
STARTCHAR otilde
ENCODING 245
SWIDTH 600 0
DWIDTH 12 0
BBX 12 20 0 -4
BITMAP
0000
0000
0330
07f0
0fe0
0cc0
0000
0000
0fc0
1fe0
3870
3030
3030
3870
1fe0
0fc0
0000
0000
0000
0000
ENDCHAR
STARTCHAR otilde.large
ENCODING -1
SWIDTH 600 0
DWIDTH 12 0
BBX 12 20 0 -4
BITMAP
0000
0000
0330
07f0
0fe0
0cc0
0fc0
1fe0
3870
3030
3030
3030
3030
3870
1fe0
0fc0
0000
0000
0000
0000
ENDCHAR
STARTCHAR otilde.sc
ENCODING -1
SWIDTH 600 0
DWIDTH 12 0
BBX 12 20 0 -4
BITMAP
0000
0000
0330
07f0
0fe0
0cc0
0fc0
1fe0
3870
3030
3030
3030
3030
3870
1fe0
0fc0
0000
0000
0000
0000
ENDCHAR
STARTCHAR odieresis.large
ENCODING -1
SWIDTH 600 0
DWIDTH 12 0
BBX 12 20 0 -4
BITMAP
0000
0000
0cc0
0cc0
0000
0000
0fc0
1fe0
3870
3030
3030
3030
3030
3870
1fe0
0fc0
0000
0000
0000
0000
ENDCHAR
STARTCHAR odieresis.sc
ENCODING -1
SWIDTH 600 0
DWIDTH 12 0
BBX 12 20 0 -4
BITMAP
0000
0000
0cc0
0cc0
0000
0000
0fc0
1fe0
3870
3030
3030
3030
3030
3870
1fe0
0fc0
0000
0000
0000
0000
ENDCHAR
STARTCHAR oslash
ENCODING 248
SWIDTH 600 0
DWIDTH 12 0
BBX 12 20 0 -4
BITMAP
0000
0000
0000
0000
0000
0000
0f30
1ff0
39e0
31e0
33f0
3f30
1e30
1e70
3fe0
33c0
0000
0000
0000
0000
ENDCHAR
STARTCHAR ugrave.sc
ENCODING -1
SWIDTH 600 0
DWIDTH 12 0
BBX 12 20 0 -4
BITMAP
0000
0000
0c00
0e00
0700
0300
3030
3030
3030
3030
3030
3030
3030
3870
1fe0
0fc0
0000
0000
0000
0000
ENDCHAR
STARTCHAR uacute
ENCODING 250
SWIDTH 600 0
DWIDTH 12 0
BBX 12 20 0 -4
BITMAP
0000
0000
00c0
01c0
0380
0300
3030
3030
3030
3030
3030
3030
3030
3830
1ff0
0ff0
0000
0000
0000
0000
ENDCHAR
STARTCHAR uacute.sc
ENCODING -1
SWIDTH 600 0
DWIDTH 12 0
BBX 12 20 0 -4
BITMAP
0000
0000
00c0
01c0
0380
0300
3030
3030
3030
3030
3030
3030
3030
3870
1fe0
0fc0
0000
0000
0000
0000
ENDCHAR
STARTCHAR ucircumflex.sc
ENCODING -1
SWIDTH 600 0
DWIDTH 12 0
BBX 12 20 0 -4
BITMAP
0000
0000
0300
0780
0fc0
0cc0
0000
0000
3030
3030
3030
3030
3030
3870
1fe0
0fc0
0000
0000
0000
0000
ENDCHAR
STARTCHAR udieresis.sc
ENCODING -1
SWIDTH 600 0
DWIDTH 12 0
BBX 12 20 0 -4
BITMAP
0000
0000
0cc0
0cc0
0000
0000
3030
3030
3030
3030
3030
3030
3030
3870
1fe0
0fc0
0000
0000
0000
0000
ENDCHAR
STARTCHAR yacute
ENCODING 253
SWIDTH 600 0
DWIDTH 12 0
BBX 12 20 0 -4
BITMAP
0000
0000
00c0
01c0
0380
0300
3030
3030
3030
3030
3030
3030
3030
3830
1ff0
0ff0
0030
0070
0fe0
0fc0
ENDCHAR
STARTCHAR yacute.sc
ENCODING -1
SWIDTH 600 0
DWIDTH 12 0
BBX 12 20 0 -4
BITMAP
0000
0000
00c0
01c0
0380
0300
3030
3870
1ce0
0fc0
0780
0300
0300
0300
0300
0300
0000
0000
0000
0000
ENDCHAR
STARTCHAR thorn
ENCODING 254
SWIDTH 600 0
DWIDTH 12 0
BBX 12 20 0 -4
BITMAP
0000
0000
3000
3000
3000
3000
3fc0
3fe0
3070
3030
3030
3030
3030
3070
3fe0
3fc0
3000
3000
3000
3000
ENDCHAR
STARTCHAR thorn.sc
ENCODING -1
SWIDTH 600 0
DWIDTH 12 0
BBX 12 20 0 -4
BITMAP
0000
0000
0000
0000
0000
0000
3000
3000
3fc0
3fe0
3070
3070
3fe0
3fc0
3000
3000
0000
0000
0000
0000
ENDCHAR
STARTCHAR ydieresis
ENCODING 255
SWIDTH 600 0
DWIDTH 12 0
BBX 12 20 0 -4
BITMAP
0000
0000
0cc0
0cc0
0000
0000
3030
3030
3030
3030
3030
3030
3030
3830
1ff0
0ff0
0030
0070
0fe0
0fc0
ENDCHAR
STARTCHAR ydieresis.sc
ENCODING -1
SWIDTH 600 0
DWIDTH 12 0
BBX 12 20 0 -4
BITMAP
0000
0000
0cc0
0cc0
0000
0000
3030
3870
1ce0
0fc0
0780
0300
0300
0300
0300
0300
0000
0000
0000
0000
ENDCHAR
STARTCHAR Amacron
ENCODING 256
SWIDTH 600 0
DWIDTH 12 0
BBX 12 20 0 -4
BITMAP
0000
0000
0fc0
0fc0
0000
0000
0fc0
1fe0
3870
3030
3ff0
3ff0
3030
3030
3030
3030
0000
0000
0000
0000
ENDCHAR
STARTCHAR amacron
ENCODING 257
SWIDTH 600 0
DWIDTH 12 0
BBX 12 20 0 -4
BITMAP
0000
0000
0fc0
0fc0
0000
0000
0fc0
0fe0
0070
0030
0ff0
1ff0
3830
3830
1ff0
0ff0
0000
0000
0000
0000
ENDCHAR
STARTCHAR amacron.sc
ENCODING -1
SWIDTH 600 0
DWIDTH 12 0
BBX 12 20 0 -4
BITMAP
0000
0000
0fc0
0fc0
0000
0000
0fc0
1fe0
3870
3030
3ff0
3ff0
3030
3030
3030
3030
0000
0000
0000
0000
ENDCHAR
STARTCHAR Aogonek
ENCODING 260
SWIDTH 600 0
DWIDTH 12 0
BBX 12 20 0 -4
BITMAP
0000
0000
0300
0780
0fc0
1ce0
3870
3030
3030
3030
3ff0
3ff0
3030
3030
3030
3070
00e0
00e0
0070
0030
ENDCHAR
STARTCHAR Aogonek.c2sc
ENCODING 61841
SWIDTH 600 0
DWIDTH 12 0
BBX 12 20 0 -4
BITMAP
0000
0000
0000
0000
0000
0000
0300
0780
0fc0
1ce0
3870
3030
3ff0
3ff0
3030
3070
00e0
00e0
0070
0030
ENDCHAR
STARTCHAR aogonek
ENCODING 261
SWIDTH 600 0
DWIDTH 12 0
BBX 12 20 0 -4
BITMAP
0000
0000
0000
0000
0000
0000
0fc0
0fe0
0070
0030
0ff0
1ff0
3830
3830
1ff0
0ff0
00c0
00e0
0070
0030
ENDCHAR
STARTCHAR aogonek.sc
ENCODING -1
SWIDTH 600 0
DWIDTH 12 0
BBX 12 20 0 -4
BITMAP
0000
0000
0000
0000
0000
0000
0300
0780
0fc0
1ce0
3870
3030
3ff0
3ff0
3030
3070
00e0
00e0
0070
0030
ENDCHAR
STARTCHAR Cacute
ENCODING 262
SWIDTH 600 0
DWIDTH 12 0
BBX 12 20 0 -4
BITMAP
0000
0000
00c0
01c0
0380
0300
0fc0
1fe0
3870
3030
3000
3000
3030
3870
1fe0
0fc0
0000
0000
0000
0000
ENDCHAR
STARTCHAR cacute
ENCODING 263
SWIDTH 600 0
DWIDTH 12 0
BBX 12 20 0 -4
BITMAP
0000
0000
00c0
01c0
0380
0300
0ff0
1ff0
3800
3000
3000
3000
3000
3800
1ff0
0ff0
0000
0000
0000
0000
ENDCHAR
STARTCHAR cacute.sc
ENCODING -1
SWIDTH 600 0
DWIDTH 12 0
BBX 12 20 0 -4
BITMAP
0000
0000
00c0
01c0
0380
0300
0fc0
1fe0
3870
3030
3000
3000
3030
3870
1fe0
0fc0
0000
0000
0000
0000
ENDCHAR
STARTCHAR Ccircumflex
ENCODING 264
SWIDTH 600 0
DWIDTH 12 0
BBX 12 20 0 -4
BITMAP
0000
0000
0300
0780
0fc0
0cc0
0fc0
1fe0
3870
3030
3000
3000
3030
3870
1fe0
0fc0
0000
0000
0000
0000
ENDCHAR
STARTCHAR ccircumflex
ENCODING 265
SWIDTH 600 0
DWIDTH 12 0
BBX 12 20 0 -4
BITMAP
0000
0000
0300
0780
0fc0
0cc0
0ff0
1ff0
3800
3000
3000
3000
3000
3800
1ff0
0ff0
0000
0000
0000
0000
ENDCHAR
STARTCHAR ccircumflex.sc
ENCODING -1
SWIDTH 600 0
DWIDTH 12 0
BBX 12 20 0 -4
BITMAP
0000
0000
0300
0780
0fc0
0cc0
0fc0
1fe0
3870
3030
3000
3000
3030
3870
1fe0
0fc0
0000
0000
0000
0000
ENDCHAR
STARTCHAR Cdotaccent
ENCODING 266
SWIDTH 600 0
DWIDTH 12 0
BBX 12 20 0 -4
BITMAP
0000
0000
0300
0300
0000
0000
0fc0
1fe0
3870
3030
3000
3000
3030
3870
1fe0
0fc0
0000
0000
0000
0000
ENDCHAR
STARTCHAR cdotaccent
ENCODING 267
SWIDTH 600 0
DWIDTH 12 0
BBX 12 20 0 -4
BITMAP
0000
0000
0300
0300
0000
0000
0ff0
1ff0
3800
3000
3000
3000
3000
3800
1ff0
0ff0
0000
0000
0000
0000
ENDCHAR
STARTCHAR cdotaccent.sc
ENCODING -1
SWIDTH 600 0
DWIDTH 12 0
BBX 12 20 0 -4
BITMAP
0000
0000
0300
0300
0000
0000
0fc0
1fe0
3870
3030
3000
3000
3030
3870
1fe0
0fc0
0000
0000
0000
0000
ENDCHAR
STARTCHAR Ccaron
ENCODING 268
SWIDTH 600 0
DWIDTH 12 0
BBX 12 20 0 -4
BITMAP
0000
0000
0cc0
0fc0
0780
0300
0fc0
1fe0
3870
3030
3000
3000
3030
3870
1fe0
0fc0
0000
0000
0000
0000
ENDCHAR
STARTCHAR ccaron
ENCODING 269
SWIDTH 600 0
DWIDTH 12 0
BBX 12 20 0 -4
BITMAP
0000
0000
0cc0
0fc0
0780
0300
0ff0
1ff0
3800
3000
3000
3000
3000
3800
1ff0
0ff0
0000
0000
0000
0000
ENDCHAR
STARTCHAR ccaron.sc
ENCODING -1
SWIDTH 600 0
DWIDTH 12 0
BBX 12 20 0 -4
BITMAP
0000
0000
0cc0
0fc0
0780
0300
0fc0
1fe0
3870
3030
3000
3000
3030
3870
1fe0
0fc0
0000
0000
0000
0000
ENDCHAR
STARTCHAR Dcaron
ENCODING 270
SWIDTH 600 0
DWIDTH 12 0
BBX 12 20 0 -4
BITMAP
0000
0000
0cc0
0fc0
0780
0300
3fc0
3fe0
3070
3030
3030
3030
3030
3070
3fe0
3fc0
0000
0000
0000
0000
ENDCHAR
STARTCHAR Dcaron.serif
ENCODING 61987
SWIDTH 600 0
DWIDTH 12 0
BBX 12 20 0 -4
BITMAP
0000
0000
0cc0
0fc0
0780
0300
3fc0
3fe0
0c70
0c30
0c30
0c30
0c30
0c70
3fe0
3fc0
0000
0000
0000
0000
ENDCHAR
STARTCHAR Dcaron.narrow
ENCODING 62003
SWIDTH 600 0
DWIDTH 12 0
BBX 12 20 0 -4
BITMAP
0000
0000
0cc0
0fc0
0780
0300
0fc0
0fe0
0c70
0c30
0c30
0c30
0c30
0c70
0fe0
0fc0
0000
0000
0000
0000
ENDCHAR
STARTCHAR dcaron
ENCODING 271
SWIDTH 600 0
DWIDTH 12 0
BBX 12 20 0 -4
BITMAP
0000
0000
0330
0330
0330
0330
0f00
1f00
3b00
3300
3300
3300
3300
3b00
1f00
0f00
0000
0000
0000
0000
ENDCHAR
STARTCHAR dcaron.sc
ENCODING -1
SWIDTH 600 0
DWIDTH 12 0
BBX 12 20 0 -4
BITMAP
0000
0000
0cc0
0fc0
0780
0300
3fc0
3fe0
3070
3030
3030
3030
3030
3070
3fe0
3fc0
0000
0000
0000
0000
ENDCHAR
STARTCHAR dcaron.sc.serif
ENCODING -1
SWIDTH 600 0
DWIDTH 12 0
BBX 12 20 0 -4
BITMAP
0000
0000
0cc0
0fc0
0780
0300
3fc0
3fe0
0c70
0c30
0c30
0c30
0c30
0c70
3fe0
3fc0
0000
0000
0000
0000
ENDCHAR
STARTCHAR dcaron.sc.narrow
ENCODING -1
SWIDTH 600 0
DWIDTH 12 0
BBX 12 20 0 -4
BITMAP
0000
0000
0cc0
0fc0
0780
0300
0fc0
0fe0
0c70
0c30
0c30
0c30
0c30
0c70
0fe0
0fc0
0000
0000
0000
0000
ENDCHAR
STARTCHAR Dcroat
ENCODING 272
SWIDTH 600 0
DWIDTH 12 0
BBX 12 20 0 -4
BITMAP
0000
0000
0fc0
0fe0
0c70
0c30
0c30
0c30
3f30
3f30
0c30
0c30
0c30
0c70
0fe0
0fc0
0000
0000
0000
0000
ENDCHAR
STARTCHAR Dcroat.serif
ENCODING -1
SWIDTH 600 0
DWIDTH 12 0
BBX 12 20 0 -4
BITMAP
0000
0000
3fc0
3fe0
0c70
0c30
0c30
0c30
3f30
3f30
0c30
0c30
0c30
0c70
3fe0
3fc0
0000
0000
0000
0000
ENDCHAR
STARTCHAR Dcroat.c2sc
ENCODING 61842
SWIDTH 600 0
DWIDTH 12 0
BBX 12 20 0 -4
BITMAP
0000
0000
0000
0000
0000
0000
0fc0
0fe0
0c70
0c30
3f30
3f30
0c30
0c70
0fe0
0fc0
0000
0000
0000
0000
ENDCHAR
STARTCHAR Dcroat.c2sc.serif
ENCODING -1
SWIDTH 600 0
DWIDTH 12 0
BBX 12 20 0 -4
BITMAP
0000
0000
0000
0000
0000
0000
3fc0
3fe0
0c70
0c30
3f30
3f30
0c30
0c70
3fe0
3fc0
0000
0000
0000
0000
ENDCHAR
STARTCHAR dcroat
ENCODING 273
SWIDTH 600 0
DWIDTH 12 0
BBX 12 20 0 -4
BITMAP
0000
0000
00c0
00c0
03f0
03f0
00c0
00c0
0fc0
1fc0
38c0
30c0
30c0
38c0
1fc0
0fc0
0000
0000
0000
0000
ENDCHAR
STARTCHAR dcroat.sc
ENCODING -1
SWIDTH 600 0
DWIDTH 12 0
BBX 12 20 0 -4
BITMAP
0000
0000
0000
0000
0000
0000
0fc0
0fe0
0c70
0c30
3f30
3f30
0c30
0c70
0fe0
0fc0
0000
0000
0000
0000
ENDCHAR
STARTCHAR dcroat.sc.serif
ENCODING -1
SWIDTH 600 0
DWIDTH 12 0
BBX 12 20 0 -4
BITMAP
0000
0000
0000
0000
0000
0000
3fc0
3fe0
0c70
0c30
3f30
3f30
0c30
0c70
3fe0
3fc0
0000
0000
0000
0000
ENDCHAR
STARTCHAR Emacron
ENCODING 274
SWIDTH 600 0
DWIDTH 12 0
BBX 12 20 0 -4
BITMAP
0000
0000
0fc0
0fc0
0000
0000
3ff0
3ff0
3000
3000
3fc0
3fc0
3000
3000
3ff0
3ff0
0000
0000
0000
0000
ENDCHAR
STARTCHAR emacron
ENCODING 275
SWIDTH 600 0
DWIDTH 12 0
BBX 12 20 0 -4
BITMAP
0000
0000
0fc0
0fc0
0000
0000
0fc0
1fe0
3870
3030
3ff0
3ff0
3000
3800
1fc0
0fc0
0000
0000
0000
0000
ENDCHAR
STARTCHAR emacron.sc
ENCODING -1
SWIDTH 600 0
DWIDTH 12 0
BBX 12 20 0 -4
BITMAP
0000
0000
0fc0
0fc0
0000
0000
3ff0
3ff0
3000
3000
3fc0
3fc0
3000
3000
3ff0
3ff0
0000
0000
0000
0000
ENDCHAR
STARTCHAR Edotaccent
ENCODING 278
SWIDTH 600 0
DWIDTH 12 0
BBX 12 20 0 -4
BITMAP
0000
0000
0300
0300
0000
0000
3ff0
3ff0
3000
3000
3fc0
3fc0
3000
3000
3ff0
3ff0
0000
0000
0000
0000
ENDCHAR
STARTCHAR edotaccent
ENCODING 279
SWIDTH 600 0
DWIDTH 12 0
BBX 12 20 0 -4
BITMAP
0000
0000
0300
0300
0000
0000
0fc0
1fe0
3870
3030
3ff0
3ff0
3000
3800
1fc0
0fc0
0000
0000
0000
0000
ENDCHAR
STARTCHAR edotaccent.sc
ENCODING -1
SWIDTH 600 0
DWIDTH 12 0
BBX 12 20 0 -4
BITMAP
0000
0000
0300
0300
0000
0000
3ff0
3ff0
3000
3000
3fc0
3fc0
3000
3000
3ff0
3ff0
0000
0000
0000
0000
ENDCHAR
STARTCHAR Eogonek
ENCODING 280
SWIDTH 600 0
DWIDTH 12 0
BBX 12 20 0 -4
BITMAP
0000
0000
3ff0
3ff0
3000
3000
3000
3000
3fc0
3fc0
3000
3000
3000
3000
3ff0
3ff0
00c0
00e0
0070
0030
ENDCHAR
STARTCHAR Eogonek.c2sc
ENCODING 61843
SWIDTH 600 0
DWIDTH 12 0
BBX 12 20 0 -4
BITMAP
0000
0000
0000
0000
0000
0000
3ff0
3ff0
3000
3000
3fc0
3fc0
3000
3000
3ff0
3ff0
00c0
00e0
0070
0030
ENDCHAR
STARTCHAR eogonek
ENCODING 281
SWIDTH 600 0
DWIDTH 12 0
BBX 12 20 0 -4
BITMAP
0000
0000
0000
0000
0000
0000
0fc0
1fe0
3870
3030
3ff0
3ff0
3000
3800
1fc0
0fc0
00c0
00e0
0070
0030
ENDCHAR
STARTCHAR eogonek.sc
ENCODING -1
SWIDTH 600 0
DWIDTH 12 0
BBX 12 20 0 -4
BITMAP
0000
0000
0000
0000
0000
0000
3ff0
3ff0
3000
3000
3fc0
3fc0
3000
3000
3ff0
3ff0
00c0
00e0
0070
0030
ENDCHAR
STARTCHAR Ecaron
ENCODING 282
SWIDTH 600 0
DWIDTH 12 0
BBX 12 20 0 -4
BITMAP
0000
0000
0cc0
0fc0
0780
0300
3ff0
3ff0
3000
3000
3fc0
3fc0
3000
3000
3ff0
3ff0
0000
0000
0000
0000
ENDCHAR
STARTCHAR ecaron
ENCODING 283
SWIDTH 600 0
DWIDTH 12 0
BBX 12 20 0 -4
BITMAP
0000
0000
0cc0
0fc0
0780
0300
0fc0
1fe0
3870
3030
3ff0
3ff0
3000
3800
1fc0
0fc0
0000
0000
0000
0000
ENDCHAR
STARTCHAR ecaron.sc
ENCODING -1
SWIDTH 600 0
DWIDTH 12 0
BBX 12 20 0 -4
BITMAP
0000
0000
0cc0
0fc0
0780
0300
3ff0
3ff0
3000
3000
3fc0
3fc0
3000
3000
3ff0
3ff0
0000
0000
0000
0000
ENDCHAR
STARTCHAR Gcircumflex
ENCODING 284
SWIDTH 600 0
DWIDTH 12 0
BBX 12 20 0 -4
BITMAP
0000
0000
0300
0780
0fc0
0cc0
0ff0
1ff0
3800
3000
30f0
30f0
3030
3830
1ff0
0ff0
0000
0000
0000
0000
ENDCHAR
STARTCHAR gcircumflex
ENCODING 285
SWIDTH 600 0
DWIDTH 12 0
BBX 12 20 0 -4
BITMAP
0000
0000
0300
0780
0fc0
0cc0
0ff0
1ff0
3830
3030
3030
3030
3030
3830
1ff0
0ff0
0030
0070
0fe0
0fc0
ENDCHAR
STARTCHAR gcircumflex.sc
ENCODING -1
SWIDTH 600 0
DWIDTH 12 0
BBX 12 20 0 -4
BITMAP
0000
0000
0300
0780
0fc0
0cc0
0ff0
1ff0
3800
3000
30f0
30f0
3030
3830
1ff0
0ff0
0000
0000
0000
0000
ENDCHAR
STARTCHAR Gdotaccent
ENCODING 288
SWIDTH 600 0
DWIDTH 12 0
BBX 12 20 0 -4
BITMAP
0000
0000
0300
0300
0000
0000
0ff0
1ff0
3800
3000
30f0
30f0
3030
3830
1ff0
0ff0
0000
0000
0000
0000
ENDCHAR
STARTCHAR gdotaccent
ENCODING 289
SWIDTH 600 0
DWIDTH 12 0
BBX 12 20 0 -4
BITMAP
0000
0000
0300
0300
0000
0000
0ff0
1ff0
3830
3030
3030
3030
3030
3830
1ff0
0ff0
0030
0070
0fe0
0fc0
ENDCHAR
STARTCHAR gdotaccent.sc
ENCODING -1
SWIDTH 600 0
DWIDTH 12 0
BBX 12 20 0 -4
BITMAP
0000
0000
0300
0300
0000
0000
0ff0
1ff0
3800
3000
30f0
30f0
3030
3830
1ff0
0ff0
0000
0000
0000
0000
ENDCHAR
STARTCHAR uni0122
ENCODING 290
SWIDTH 600 0
DWIDTH 12 0
BBX 12 20 0 -4
BITMAP
0000
0000
0fc0
1fe0
3870
3030
3000
3000
3000
3000
30f0
30f0
3030
3830
1ff0
0ff0
0300
0700
0e00
0c00
ENDCHAR
STARTCHAR uni0122.c2sc
ENCODING 61903
SWIDTH 600 0
DWIDTH 12 0
BBX 12 20 0 -4
BITMAP
0000
0000
0000
0000
0000
0000
0ff0
1ff0
3800
3000
30f0
30f0
3030
3830
1ff0
0ff0
0300
0700
0e00
0c00
ENDCHAR
STARTCHAR uni0123
ENCODING 291
SWIDTH 600 0
DWIDTH 12 0
BBX 12 20 0 -4
BITMAP
0000
0000
00c0
01c0
0380
0300
0ff0
1ff0
3830
3030
3030
3030
3030
3830
1ff0
0ff0
0030
0070
0fe0
0fc0
ENDCHAR
STARTCHAR uni0123.sc
ENCODING -1
SWIDTH 600 0
DWIDTH 12 0
BBX 12 20 0 -4
BITMAP
0000
0000
0000
0000
0000
0000
0ff0
1ff0
3800
3000
30f0
30f0
3030
3830
1ff0
0ff0
0300
0700
0e00
0c00
ENDCHAR
STARTCHAR Hbar
ENCODING 294
SWIDTH 600 0
DWIDTH 12 0
BBX 12 20 0 -4
BITMAP
0000
0000
3030
3030
3ff0
3ff0
3030
3030
3ff0
3ff0
3030
3030
3030
3030
3030
3030
0000
0000
0000
0000
ENDCHAR
STARTCHAR Hbar.c2sc
ENCODING 61844
SWIDTH 600 0
DWIDTH 12 0
BBX 12 20 0 -4
BITMAP
0000
0000
0000
0000
0000
0000
3030
3030
3ff0
3ff0
3030
3030
3ff0
3ff0
3030
3030
0000
0000
0000
0000
ENDCHAR
STARTCHAR hbar
ENCODING 295
SWIDTH 600 0
DWIDTH 12 0
BBX 12 20 0 -4
BITMAP
0000
0000
0c00
0c00
3f00
3f00
0c00
0c00
0fc0
0fe0
0c70
0c30
0c30
0c30
0c30
0c30
0000
0000
0000
0000
ENDCHAR
STARTCHAR hbar.sc
ENCODING -1
SWIDTH 600 0
DWIDTH 12 0
BBX 12 20 0 -4
BITMAP
0000
0000
0000
0000
0000
0000
3030
3030
3ff0
3ff0
3030
3030
3ff0
3ff0
3030
3030
0000
0000
0000
0000
ENDCHAR
STARTCHAR Itilde
ENCODING 296
SWIDTH 600 0
DWIDTH 12 0
BBX 12 20 0 -4
BITMAP
0000
0000
0330
07f0
0fe0
0cc0
0000
0000
0fc0
0fc0
0300
0300
0300
0300
0fc0
0fc0
0000
0000
0000
0000
ENDCHAR
STARTCHAR itilde
ENCODING 297
SWIDTH 600 0
DWIDTH 12 0
BBX 12 20 0 -4
BITMAP
0000
0000
0330
07f0
0fe0
0cc0
0000
0000
0f00
0f00
0300
0300
0300
0300
0fc0
0fc0
0000
0000
0000
0000
ENDCHAR
STARTCHAR itilde.sc
ENCODING -1
SWIDTH 600 0
DWIDTH 12 0
BBX 12 20 0 -4
BITMAP
0000
0000
0330
07f0
0fe0
0cc0
0000
0000
0fc0
0fc0
0300
0300
0300
0300
0fc0
0fc0
0000
0000
0000
0000
ENDCHAR
STARTCHAR Imacron
ENCODING 298
SWIDTH 600 0
DWIDTH 12 0
BBX 12 20 0 -4
BITMAP
0000
0000
0fc0
0fc0
0000
0000
0fc0
0fc0
0300
0300
0300
0300
0300
0300
0fc0
0fc0
0000
0000
0000
0000
ENDCHAR
STARTCHAR imacron
ENCODING 299
SWIDTH 600 0
DWIDTH 12 0
BBX 12 20 0 -4
BITMAP
0000
0000
0fc0
0fc0
0000
0000
0f00
0f00
0300
0300
0300
0300
0300
0300
0fc0
0fc0
0000
0000
0000
0000
ENDCHAR
STARTCHAR imacron.sc
ENCODING -1
SWIDTH 600 0
DWIDTH 12 0
BBX 12 20 0 -4
BITMAP
0000
0000
0fc0
0fc0
0000
0000
0fc0
0fc0
0300
0300
0300
0300
0300
0300
0fc0
0fc0
0000
0000
0000
0000
ENDCHAR
STARTCHAR Iogonek
ENCODING 302
SWIDTH 600 0
DWIDTH 12 0
BBX 12 20 0 -4
BITMAP
0000
0000
0fc0
0fc0
0300
0300
0300
0300
0300
0300
0300
0300
0300
0300
0fc0
0fc0
0300
0380
01c0
00c0
ENDCHAR
STARTCHAR Iogonek.c2sc
ENCODING 61845
SWIDTH 600 0
DWIDTH 12 0
BBX 12 20 0 -4
BITMAP
0000
0000
0000
0000
0000
0000
0fc0
0fc0
0300
0300
0300
0300
0300
0300
0fc0
0fc0
0300
0380
01c0
00c0
ENDCHAR
STARTCHAR iogonek
ENCODING 303
SWIDTH 600 0
DWIDTH 12 0
BBX 12 20 0 -4
BITMAP
0000
0000
0300
0300
0000
0000
0f00
0f00
0300
0300
0300
0300
0300
0300
0fc0
0fc0
0300
0380
01c0
00c0
ENDCHAR
STARTCHAR iogonek.sc
ENCODING -1
SWIDTH 600 0
DWIDTH 12 0
BBX 12 20 0 -4
BITMAP
0000
0000
0000
0000
0000
0000
0fc0
0fc0
0300
0300
0300
0300
0300
0300
0fc0
0fc0
0300
0380
01c0
00c0
ENDCHAR
STARTCHAR Idotaccent
ENCODING 304
SWIDTH 600 0
DWIDTH 12 0
BBX 12 20 0 -4
BITMAP
0000
0000
0300
0300
0000
0000
0fc0
0fc0
0300
0300
0300
0300
0300
0300
0fc0
0fc0
0000
0000
0000
0000
ENDCHAR
STARTCHAR dotlessi
ENCODING 305
SWIDTH 600 0
DWIDTH 12 0
BBX 12 20 0 -4
BITMAP
0000
0000
0000
0000
0000
0000
0f00
0f00
0300
0300
0300
0300
0300
0300
0fc0
0fc0
0000
0000
0000
0000
ENDCHAR
STARTCHAR dotlessi.sc
ENCODING -1
SWIDTH 600 0
DWIDTH 12 0
BBX 12 20 0 -4
BITMAP
0000
0000
0000
0000
0000
0000
0fc0
0fc0
0300
0300
0300
0300
0300
0300
0fc0
0fc0
0000
0000
0000
0000
ENDCHAR
STARTCHAR IJ
ENCODING 306
SWIDTH 600 0
DWIDTH 12 0
BBX 12 20 0 -4
BITMAP
0000
0000
3030
3030
3030
3030
3030
3030
3030
3030
3030
3030
3330
33f0
31e0
30c0
0000
0000
0000
0000
ENDCHAR
STARTCHAR IJ.c2sc
ENCODING 61846
SWIDTH 600 0
DWIDTH 12 0
BBX 12 20 0 -4
BITMAP
0000
0000
0000
0000
0000
0000
3030
3030
3030
3030
3030
3030
3330
33f0
31e0
30c0
0000
0000
0000
0000
ENDCHAR
STARTCHAR ij
ENCODING 307
SWIDTH 600 0
DWIDTH 12 0
BBX 12 20 0 -4
BITMAP
0000
0000
0c30
0c30
0000
0000
3c30
3c30
0c30
0c30
0c30
0c30
0c30
0c30
3f30
3f30
0030
0070
00e0
00c0
ENDCHAR
STARTCHAR ij.serif
ENCODING 61981
SWIDTH 600 0
DWIDTH 12 0
BBX 12 20 0 -4
BITMAP
0000
0000
0c30
0c30
0000
0000
3cf0
3cf0
0c30
0c30
0c30
0c30
0c30
0c30
3f30
3f30
0030
0070
00e0
00c0
ENDCHAR
STARTCHAR ij.sc
ENCODING -1
SWIDTH 600 0
DWIDTH 12 0
BBX 12 20 0 -4
BITMAP
0000
0000
0000
0000
0000
0000
3030
3030
3030
3030
3030
3030
3330
33f0
31e0
30c0
0000
0000
0000
0000
ENDCHAR
STARTCHAR Jcircumflex
ENCODING 308
SWIDTH 600 0
DWIDTH 12 0
BBX 12 20 0 -4
BITMAP
0000
0000
00c0
01e0
03f0
0330
0000
0000
00c0
00c0
00c0
00c0
30c0
39c0
1f80
0f00
0000
0000
0000
0000
ENDCHAR
STARTCHAR jcircumflex
ENCODING 309
SWIDTH 600 0
DWIDTH 12 0
BBX 12 20 0 -4
BITMAP
0000
0000
0300
0780
0fc0
0cc0
0000
0000
0300
0300
0300
0300
0300
0300
0300
0300
0300
0700
0e00
0c00
ENDCHAR
STARTCHAR jcircumflex.serif
ENCODING 61982
SWIDTH 600 0
DWIDTH 12 0
BBX 12 20 0 -4
BITMAP
0000
0000
0300
0780
0fc0
0cc0
0000
0000
0f00
0f00
0300
0300
0300
0300
0300
0300
0300
0700
0e00
0c00
ENDCHAR
STARTCHAR jcircumflex.sc
ENCODING -1
SWIDTH 600 0
DWIDTH 12 0
BBX 12 20 0 -4
BITMAP
0000
0000
00c0
01e0
03f0
0330
0000
0000
00c0
00c0
00c0
00c0
30c0
39c0
1f80
0f00
0000
0000
0000
0000
ENDCHAR
STARTCHAR uni0136
ENCODING 310
SWIDTH 600 0
DWIDTH 12 0
BBX 12 20 0 -4
BITMAP
0000
0000
3030
3030
3030
3070
30e0
31c0
3f80
3f80
31c0
30e0
3070
3030
3330
3330
0300
0700
0e00
0c00
ENDCHAR
STARTCHAR uni0136.c2sc
ENCODING 61824
SWIDTH 600 0
DWIDTH 12 0
BBX 12 20 0 -4
BITMAP
0000
0000
0000
0000
0000
0000
3030
3070
30e0
31c0
3f80
3f80
31c0
30e0
3070
3030
0300
0700
0e00
0c00
ENDCHAR
STARTCHAR uni0137
ENCODING 311
SWIDTH 600 0
DWIDTH 12 0
BBX 12 20 0 -4
BITMAP
0000
0000
3000
3000
3000
3000
3030
3070
30e0
31c0
3f80
3f80
31c0
30e0
3070
3030
0300
0700
0e00
0c00
ENDCHAR
STARTCHAR uni0137.sc
ENCODING -1
SWIDTH 600 0
DWIDTH 12 0
BBX 12 20 0 -4
BITMAP
0000
0000
0000
0000
0000
0000
3030
3070
30e0
31c0
3f80
3f80
31c0
30e0
3070
3030
0300
0700
0e00
0c00
ENDCHAR
STARTCHAR kgreenlandic
ENCODING 312
SWIDTH 600 0
DWIDTH 12 0
BBX 12 20 0 -4
BITMAP
0000
0000
0000
0000
0000
0000
3030
3070
30e0
31c0
3f80
3f80
31c0
30e0
3070
3030
0000
0000
0000
0000
ENDCHAR
STARTCHAR uni013B
ENCODING 315
SWIDTH 600 0
DWIDTH 12 0
BBX 12 20 0 -4
BITMAP
0000
0000
3000
3000
3000
3000
3000
3000
3000
3000
3000
3000
3000
3000
3ff0
3ff0
0300
0700
0e00
0c00
ENDCHAR
STARTCHAR uni013B.narrow
ENCODING 61971
SWIDTH 600 0
DWIDTH 12 0
BBX 12 20 0 -4
BITMAP
0000
0000
0c00
0c00
0c00
0c00
0c00
0c00
0c00
0c00
0c00
0c00
0c00
0c00
0ff0
0ff0
00c0
01c0
0380
0300
ENDCHAR
STARTCHAR uni013B.c2sc
ENCODING 61825
SWIDTH 600 0
DWIDTH 12 0
BBX 12 20 0 -4
BITMAP
0000
0000
0000
0000
0000
0000
3000
3000
3000
3000
3000
3000
3000
3000
3ff0
3ff0
0300
0700
0e00
0c00
ENDCHAR
STARTCHAR uni013B.c2sc.narrow
ENCODING 61972
SWIDTH 600 0
DWIDTH 12 0
BBX 12 20 0 -4
BITMAP
0000
0000
0000
0000
0000
0000
0c00
0c00
0c00
0c00
0c00
0c00
0c00
0c00
0ff0
0ff0
00c0
01c0
0380
0300
ENDCHAR
STARTCHAR uni013C
ENCODING 316
SWIDTH 600 0
DWIDTH 12 0
BBX 12 20 0 -4
BITMAP
0000
0000
0f00
0f00
0300
0300
0300
0300
0300
0300
0300
0300
0300
0300
0fc0
0fc0
0300
0700
0e00
0c00
ENDCHAR
STARTCHAR uni013C.sc
ENCODING -1
SWIDTH 600 0
DWIDTH 12 0
BBX 12 20 0 -4
BITMAP
0000
0000
0000
0000
0000
0000
3000
3000
3000
3000
3000
3000
3000
3000
3ff0
3ff0
0300
0700
0e00
0c00
ENDCHAR
STARTCHAR uni013C.sc.narrow
ENCODING -1
SWIDTH 600 0
DWIDTH 12 0
BBX 12 20 0 -4
BITMAP
0000
0000
0000
0000
0000
0000
0c00
0c00
0c00
0c00
0c00
0c00
0c00
0c00
0ff0
0ff0
00c0
01c0
0380
0300
ENDCHAR
STARTCHAR Lcaron
ENCODING 317
SWIDTH 600 0
DWIDTH 12 0
BBX 12 20 0 -4
BITMAP
0000
0000
30c0
30c0
30c0
31c0
3380
3300
3000
3000
3000
3000
3000
3000
3ff0
3ff0
0000
0000
0000
0000
ENDCHAR
STARTCHAR Lcaron.narrow
ENCODING 61973
SWIDTH 600 0
DWIDTH 12 0
BBX 12 20 0 -4
BITMAP
0000
0000
0c30
0c30
0c30
0c70
0ce0
0cc0
0c00
0c00
0c00
0c00
0c00
0c00
0ff0
0ff0
0000
0000
0000
0000
ENDCHAR
STARTCHAR Lcaron.c2sc
ENCODING 61847
SWIDTH 600 0
DWIDTH 12 0
BBX 12 20 0 -4
BITMAP
0000
0000
0000
0000
0000
0000
30c0
30c0
30c0
31c0
3380
3300
3000
3000
3ff0
3ff0
0000
0000
0000
0000
ENDCHAR
STARTCHAR Lcaron.c2sc.narrow
ENCODING 61974
SWIDTH 600 0
DWIDTH 12 0
BBX 12 20 0 -4
BITMAP
0000
0000
0000
0000
0000
0000
0c30
0c30
0c30
0c70
0ce0
0cc0
0c00
0c00
0ff0
0ff0
0000
0000
0000
0000
ENDCHAR
STARTCHAR lcaron
ENCODING 318
SWIDTH 600 0
DWIDTH 12 0
BBX 12 20 0 -4
BITMAP
0000
0000
3c30
3c30
0c30
0c70
0ce0
0cc0
0c00
0c00
0c00
0c00
0c00
0c00
3f00
3f00
0000
0000
0000
0000
ENDCHAR
STARTCHAR lcaron.sc
ENCODING -1
SWIDTH 600 0
DWIDTH 12 0
BBX 12 20 0 -4
BITMAP
0000
0000
0000
0000
0000
0000
30c0
30c0
30c0
31c0
3380
3300
3000
3000
3ff0
3ff0
0000
0000
0000
0000
ENDCHAR
STARTCHAR lcaron.sc.narrow
ENCODING -1
SWIDTH 600 0
DWIDTH 12 0
BBX 12 20 0 -4
BITMAP
0000
0000
0000
0000
0000
0000
0c30
0c30
0c30
0c70
0ce0
0cc0
0c00
0c00
0ff0
0ff0
0000
0000
0000
0000
ENDCHAR
STARTCHAR Ldot
ENCODING 319
SWIDTH 600 0
DWIDTH 12 0
BBX 12 20 0 -4
BITMAP
0000
0000
3000
3000
3000
3000
3000
3000
30c0
30c0
3000
3000
3000
3000
3ff0
3ff0
0000
0000
0000
0000
ENDCHAR
STARTCHAR Ldot.narrow
ENCODING 61975
SWIDTH 600 0
DWIDTH 12 0
BBX 12 20 0 -4
BITMAP
0000
0000
3000
3000
3000
3000
3000
3000
30c0
30c0
3000
3000
3000
3000
3fc0
3fc0
0000
0000
0000
0000
ENDCHAR
STARTCHAR Ldot.c2sc
ENCODING 61848
SWIDTH 600 0
DWIDTH 12 0
BBX 12 20 0 -4
BITMAP
0000
0000
0000
0000
0000
0000
3000
3000
30c0
30c0
3000
3000
3000
3000
3ff0
3ff0
0000
0000
0000
0000
ENDCHAR
STARTCHAR Ldot.c2sc.narrow
ENCODING 61976
SWIDTH 600 0
DWIDTH 12 0
BBX 12 20 0 -4
BITMAP
0000
0000
0000
0000
0000
0000
3000
3000
30c0
30c0
3000
3000
3000
3000
3fc0
3fc0
0000
0000
0000
0000
ENDCHAR
STARTCHAR ldot
ENCODING 320
SWIDTH 600 0
DWIDTH 12 0
BBX 12 20 0 -4
BITMAP
0000
0000
3c00
3c00
0c00
0c00
0c00
0c00
0c30
0c30
0c00
0c00
0c00
0c00
3f00
3f00
0000
0000
0000
0000
ENDCHAR
STARTCHAR ldot.sc
ENCODING -1
SWIDTH 600 0
DWIDTH 12 0
BBX 12 20 0 -4
BITMAP
0000
0000
0000
0000
0000
0000
3000
3000
30c0
30c0
3000
3000
3000
3000
3ff0
3ff0
0000
0000
0000
0000
ENDCHAR
STARTCHAR ldot.sc.narrow
ENCODING -1
SWIDTH 600 0
DWIDTH 12 0
BBX 12 20 0 -4
BITMAP
0000
0000
0000
0000
0000
0000
3000
3000
30c0
30c0
3000
3000
3000
3000
3fc0
3fc0
0000
0000
0000
0000
ENDCHAR
STARTCHAR Lslash
ENCODING 321
SWIDTH 600 0
DWIDTH 12 0
BBX 12 20 0 -4
BITMAP
0000
0000
0c00
0c00
0c00
0c00
0f00
0f00
3c00
3c00
0c00
0c00
0c00
0c00
0ff0
0ff0
0000
0000
0000
0000
ENDCHAR
STARTCHAR Lslash.c2sc
ENCODING 61849
SWIDTH 600 0
DWIDTH 12 0
BBX 12 20 0 -4
BITMAP
0000
0000
0000
0000
0000
0000
0c00
0c00
0f00
0f00
3c00
3c00
0c00
0c00
0ff0
0ff0
0000
0000
0000
0000
ENDCHAR
STARTCHAR lslash
ENCODING 322
SWIDTH 600 0
DWIDTH 12 0
BBX 12 20 0 -4
BITMAP
0000
0000
0f00
0f00
0300
0300
03c0
03c0
0f00
0f00
0300
0300
0300
0300
0fc0
0fc0
0000
0000
0000
0000
ENDCHAR
STARTCHAR lslash.sc
ENCODING -1
SWIDTH 600 0
DWIDTH 12 0
BBX 12 20 0 -4
BITMAP
0000
0000
0000
0000
0000
0000
0c00
0c00
0f00
0f00
3c00
3c00
0c00
0c00
0ff0
0ff0
0000
0000
0000
0000
ENDCHAR
STARTCHAR Nacute
ENCODING 323
SWIDTH 600 0
DWIDTH 12 0
BBX 12 20 0 -4
BITMAP
0000
0000
00c0
01c0
0380
0300
3030
3030
3c30
3e30
3730
33b0
31f0
30f0
3030
3030
0000
0000
0000
0000
ENDCHAR
STARTCHAR nacute
ENCODING 324
SWIDTH 600 0
DWIDTH 12 0
BBX 12 20 0 -4
BITMAP
0000
0000
00c0
01c0
0380
0300
3fc0
3fe0
3070
3030
3030
3030
3030
3030
3030
3030
0000
0000
0000
0000
ENDCHAR
STARTCHAR nacute.sc
ENCODING -1
SWIDTH 600 0
DWIDTH 12 0
BBX 12 20 0 -4
BITMAP
0000
0000
00c0
01c0
0380
0300
3030
3030
3c30
3e30
3730
33b0
31f0
30f0
3030
3030
0000
0000
0000
0000
ENDCHAR
STARTCHAR uni0145
ENCODING 325
SWIDTH 600 0
DWIDTH 12 0
BBX 12 20 0 -4
BITMAP
0000
0000
3030
3030
3030
3030
3c30
3e30
3730
33b0
31f0
30f0
3030
3030
3330
3330
0300
0700
0e00
0c00
ENDCHAR
STARTCHAR uni0145.c2sc
ENCODING 61826
SWIDTH 600 0
DWIDTH 12 0
BBX 12 20 0 -4
BITMAP
0000
0000
0000
0000
0000
0000
3c30
3e30
3730
33b0
31f0
30f0
3030
3030
3330
3330
0300
0700
0e00
0c00
ENDCHAR
STARTCHAR uni0146
ENCODING 326
SWIDTH 600 0
DWIDTH 12 0
BBX 12 20 0 -4
BITMAP
0000
0000
0000
0000
0000
0000
3fc0
3fe0
3070
3030
3030
3030
3030
3030
3330
3330
0300
0700
0e00
0c00
ENDCHAR
STARTCHAR uni0146.sc
ENCODING -1
SWIDTH 600 0
DWIDTH 12 0
BBX 12 20 0 -4
BITMAP
0000
0000
0000
0000
0000
0000
3c30
3e30
3730
33b0
31f0
30f0
3030
3030
3330
3330
0300
0700
0e00
0c00
ENDCHAR
STARTCHAR Ncaron
ENCODING 327
SWIDTH 600 0
DWIDTH 12 0
BBX 12 20 0 -4
BITMAP
0000
0000
0cc0
0fc0
0780
0300
3030
3030
3c30
3e30
3730
33b0
31f0
30f0
3030
3030
0000
0000
0000
0000
ENDCHAR
STARTCHAR ncaron
ENCODING 328
SWIDTH 600 0
DWIDTH 12 0
BBX 12 20 0 -4
BITMAP
0000
0000
0cc0
0fc0
0780
0300
3fc0
3fe0
3070
3030
3030
3030
3030
3030
3030
3030
0000
0000
0000
0000
ENDCHAR
STARTCHAR ncaron.sc
ENCODING -1
SWIDTH 600 0
DWIDTH 12 0
BBX 12 20 0 -4
BITMAP
0000
0000
0cc0
0fc0
0780
0300
3030
3030
3c30
3e30
3730
33b0
31f0
30f0
3030
3030
0000
0000
0000
0000
ENDCHAR
STARTCHAR napostrophe
ENCODING 329
SWIDTH 600 0
DWIDTH 12 0
BBX 12 20 0 -4
BITMAP
0000
0000
3000
3000
3000
3000
33c0
33e0
0370
0330
0330
0330
0330
0330
0330
0330
0000
0000
0000
0000
ENDCHAR
STARTCHAR Eng
ENCODING 330
SWIDTH 600 0
DWIDTH 12 0
BBX 12 20 0 -4
BITMAP
0000
0000
3030
3030
3030
3030
3c30
3e30
3730
33b0
31f0
30f0
3030
3030
3030
3030
0030
0070
0fe0
0fc0
ENDCHAR
STARTCHAR Eng.c2sc
ENCODING 61850
SWIDTH 600 0
DWIDTH 12 0
BBX 12 20 0 -4
BITMAP
0000
0000
0000
0000
0000
0000
3030
3030
3c30
3e30
3730
33b0
31f0
30f0
3030
3030
0030
0070
0fe0
0fc0
ENDCHAR
STARTCHAR eng
ENCODING 331
SWIDTH 600 0
DWIDTH 12 0
BBX 12 20 0 -4
BITMAP
0000
0000
0000
0000
0000
0000
3fc0
3fe0
3070
3030
3030
3030
3030
3030
3030
3030
0030
0070
0fe0
0fc0
ENDCHAR
STARTCHAR eng.sc
ENCODING -1
SWIDTH 600 0
DWIDTH 12 0
BBX 12 20 0 -4
BITMAP
0000
0000
0000
0000
0000
0000
3030
3030
3c30
3e30
3730
33b0
31f0
30f0
3030
3030
0030
0070
0fe0
0fc0
ENDCHAR
STARTCHAR Omacron
ENCODING 332
SWIDTH 600 0
DWIDTH 12 0
BBX 12 20 0 -4
BITMAP
0000
0000
0fc0
0fc0
0000
0000
0fc0
1fe0
3870
3030
3030
3030
3030
3870
1fe0
0fc0
0000
0000
0000
0000
ENDCHAR
STARTCHAR omacron
ENCODING 333
SWIDTH 600 0
DWIDTH 12 0
BBX 12 20 0 -4
BITMAP
0000
0000
0000
0000
0fc0
0fc0
0000
0000
0fc0
1fe0
3870
3030
3030
3870
1fe0
0fc0
0000
0000
0000
0000
ENDCHAR
STARTCHAR omacron.large
ENCODING -1
SWIDTH 600 0
DWIDTH 12 0
BBX 12 20 0 -4
BITMAP
0000
0000
0fc0
0fc0
0000
0000
0fc0
1fe0
3870
3030
3030
3030
3030
3870
1fe0
0fc0
0000
0000
0000
0000
ENDCHAR
STARTCHAR omacron.sc
ENCODING -1
SWIDTH 600 0
DWIDTH 12 0
BBX 12 20 0 -4
BITMAP
0000
0000
0fc0
0fc0
0000
0000
0fc0
1fe0
3870
3030
3030
3030
3030
3870
1fe0
0fc0
0000
0000
0000
0000
ENDCHAR
STARTCHAR OE
ENCODING 338
SWIDTH 600 0
DWIDTH 12 0
BBX 12 20 0 -4
BITMAP
0000
0000
0ff0
1ff0
3b00
3300
3300
3300
33c0
33c0
3300
3300
3300
3b00
1ff0
0ff0
0000
0000
0000
0000
ENDCHAR
STARTCHAR OE.c2sc
ENCODING -1
SWIDTH 600 0
DWIDTH 12 0
BBX 12 20 0 -4
BITMAP
0000
0000
0000
0000
0000
0000
0ff0
1ff0
3b00
3300
33f0
33f0
3300
3b00
1ff0
0ff0
0000
0000
0000
0000
ENDCHAR
STARTCHAR oe
ENCODING 339
SWIDTH 600 0
DWIDTH 12 0
BBX 12 20 0 -4
BITMAP
0000
0000
0000
0000
0000
0000
0cc0
1fe0
3ff0
3330
33f0
33f0
3300
3f80
1ff0
0cf0
0000
0000
0000
0000
ENDCHAR
STARTCHAR oe.sc
ENCODING -1
SWIDTH 600 0
DWIDTH 12 0
BBX 12 20 0 -4
BITMAP
0000
0000
0000
0000
0000
0000
0ff0
1ff0
3b00
3300
33f0
33f0
3300
3b00
1ff0
0ff0
0000
0000
0000
0000
ENDCHAR
STARTCHAR Racute
ENCODING 340
SWIDTH 600 0
DWIDTH 12 0
BBX 12 20 0 -4
BITMAP
0000
0000
00c0
01c0
0380
0300
3fc0
3fe0
3070
3070
3fe0
3fc0
30c0
30e0
3070
3030
0000
0000
0000
0000
ENDCHAR
STARTCHAR racute
ENCODING 341
SWIDTH 600 0
DWIDTH 12 0
BBX 12 20 0 -4
BITMAP
0000
0000
0030
0070
00e0
00c0
0cf0
0df0
0f80
0f00
0c00
0c00
0c00
0c00
0c00
0c00
0000
0000
0000
0000
ENDCHAR
STARTCHAR racute.sc
ENCODING -1
SWIDTH 600 0
DWIDTH 12 0
BBX 12 20 0 -4
BITMAP
0000
0000
00c0
01c0
0380
0300
3fc0
3fe0
3070
3070
3fe0
3fc0
30c0
30e0
3070
3030
0000
0000
0000
0000
ENDCHAR
STARTCHAR uni0156
ENCODING 342
SWIDTH 600 0
DWIDTH 12 0
BBX 12 20 0 -4
BITMAP
0000
0000
3fc0
3fe0
3070
3030
3030
3070
3fe0
3fc0
30c0
30e0
3070
3030
3330
3330
0300
0700
0e00
0c00
ENDCHAR
STARTCHAR uni0156.c2sc
ENCODING 61827
SWIDTH 600 0
DWIDTH 12 0
BBX 12 20 0 -4
BITMAP
0000
0000
0000
0000
0000
0000
3fc0
3fe0
3070
3070
3fe0
3fe0
3070
3030
3330
3330
0300
0700
0e00
0c00
ENDCHAR
STARTCHAR uni0157
ENCODING 343
SWIDTH 600 0
DWIDTH 12 0
BBX 12 20 0 -4
BITMAP
0000
0000
0000
0000
0000
0000
0cf0
0df0
0f80
0f00
0c00
0c00
0c00
0c00
0cc0
0cc0
00c0
01c0
0380
0300
ENDCHAR
STARTCHAR uni0157.sc
ENCODING -1
SWIDTH 600 0
DWIDTH 12 0
BBX 12 20 0 -4
BITMAP
0000
0000
0000
0000
0000
0000
3fc0
3fe0
3070
3070
3fe0
3fe0
3070
3030
3330
3330
0300
0700
0e00
0c00
ENDCHAR
STARTCHAR Rcaron
ENCODING 344
SWIDTH 600 0
DWIDTH 12 0
BBX 12 20 0 -4
BITMAP
0000
0000
0cc0
0fc0
0780
0300
3fc0
3fe0
3070
3070
3fe0
3fc0
30c0
30e0
3070
3030
0000
0000
0000
0000
ENDCHAR
STARTCHAR rcaron
ENCODING 345
SWIDTH 600 0
DWIDTH 12 0
BBX 12 20 0 -4
BITMAP
0000
0000
0330
03f0
01e0
00c0
0cf0
0df0
0f80
0f00
0c00
0c00
0c00
0c00
0c00
0c00
0000
0000
0000
0000
ENDCHAR
STARTCHAR rcaron.sc
ENCODING -1
SWIDTH 600 0
DWIDTH 12 0
BBX 12 20 0 -4
BITMAP
0000
0000
0cc0
0fc0
0780
0300
3fc0
3fe0
3070
3070
3fe0
3fc0
30c0
30e0
3070
3030
0000
0000
0000
0000
ENDCHAR
STARTCHAR sacute
ENCODING 347
SWIDTH 600 0
DWIDTH 12 0
BBX 12 20 0 -4
BITMAP
0000
0000
00c0
01c0
0380
0300
0ff0
1ff0
3800
3800
1fc0
0fe0
0070
0070
3fe0
3fc0
0000
0000
0000
0000
ENDCHAR
STARTCHAR Scedilla
ENCODING 350
SWIDTH 600 0
DWIDTH 12 0
BBX 12 20 0 -4
BITMAP
0000
0000
0fc0
1fe0
3870
3030
3000
3800
1fc0
0fe0
0070
0030
3030
3870
1fe0
0fc0
0300
0700
0e00
0c00
ENDCHAR
STARTCHAR Scedilla.square
ENCODING 61955
SWIDTH 600 0
DWIDTH 12 0
BBX 12 20 0 -4
BITMAP
0000
0000
0fc0
1fe0
3870
3030
3000
3800
1fc0
0fe0
0070
0030
3030
3870
1fe0
0fc0
0300
0300
0f00
0f00
ENDCHAR
STARTCHAR Scedilla.c2sc
ENCODING -1
SWIDTH 600 0
DWIDTH 12 0
BBX 12 20 0 -4
BITMAP
0000
0000
0000
0000
0000
0000
0ff0
1ff0
3800
3800
1fc0
0fe0
0070
0070
3fe0
3fc0
0300
0700
0e00
0c00
ENDCHAR
STARTCHAR Scedilla.c2sc.square
ENCODING -1
SWIDTH 600 0
DWIDTH 12 0
BBX 12 20 0 -4
BITMAP
0000
0000
0000
0000
0000
0000
0ff0
1ff0
3800
3800
1fc0
0fe0
0070
0070
3fe0
3fc0
0300
0300
0f00
0f00
ENDCHAR
STARTCHAR scedilla
ENCODING 351
SWIDTH 600 0
DWIDTH 12 0
BBX 12 20 0 -4
BITMAP
0000
0000
0000
0000
0000
0000
0ff0
1ff0
3800
3800
1fc0
0fe0
0070
0070
3fe0
3fc0
0300
0700
0e00
0c00
ENDCHAR
STARTCHAR scedilla.square
ENCODING 61956
SWIDTH 600 0
DWIDTH 12 0
BBX 12 20 0 -4
BITMAP
0000
0000
0000
0000
0000
0000
0ff0
1ff0
3800
3800
1fc0
0fe0
0070
0070
3fe0
3fc0
0300
0300
0f00
0f00
ENDCHAR
STARTCHAR scaron
ENCODING 353
SWIDTH 600 0
DWIDTH 12 0
BBX 12 20 0 -4
BITMAP
0000
0000
0cc0
0fc0
0780
0300
0ff0
1ff0
3800
3800
1fc0
0fe0
0070
0070
3fe0
3fc0
0000
0000
0000
0000
ENDCHAR
STARTCHAR uni0162
ENCODING 354
SWIDTH 600 0
DWIDTH 12 0
BBX 12 20 0 -4
BITMAP
0000
0000
3ff0
3ff0
0300
0300
0300
0300
0300
0300
0300
0300
0300
0300
0300
0380
01c0
01c0
0380
0300
ENDCHAR
STARTCHAR uni0162.square
ENCODING 61957
SWIDTH 600 0
DWIDTH 12 0
BBX 12 20 0 -4
BITMAP
0000
0000
3ff0
3ff0
0300
0300
0300
0300
0300
0300
0300
0300
0300
0300
0300
0380
01c0
00c0
03c0
03c0
ENDCHAR
STARTCHAR uni0162.c2sc
ENCODING 61851
SWIDTH 600 0
DWIDTH 12 0
BBX 12 20 0 -4
BITMAP
0000
0000
0000
0000
0000
0000
3ff0
3ff0
0300
0300
0300
0300
0300
0300
0300
0380
01c0
01c0
0380
0300
ENDCHAR
STARTCHAR uni0162.c2sc.square
ENCODING 61958
SWIDTH 600 0
DWIDTH 12 0
BBX 12 20 0 -4
BITMAP
0000
0000
0000
0000
0000
0000
3ff0
3ff0
0300
0300
0300
0300
0300
0300
0300
0380
01c0
00c0
03c0
03c0
ENDCHAR
STARTCHAR uni0163
ENCODING 355
SWIDTH 600 0
DWIDTH 12 0
BBX 12 20 0 -4
BITMAP
0000
0000
0300
0300
0300
0300
0fc0
0fc0
0300
0300
0300
0300
0330
03f0
01e0
00c0
00c0
01c0
0380
0300
ENDCHAR
STARTCHAR uni0163.square
ENCODING 61959
SWIDTH 600 0
DWIDTH 12 0
BBX 12 20 0 -4
BITMAP
0000
0000
0300
0300
0300
0300
0fc0
0fc0
0300
0300
0300
0300
0330
03f0
01e0
00c0
00c0
00c0
03c0
03c0
ENDCHAR
STARTCHAR uni0163.small
ENCODING 62016
SWIDTH 600 0
DWIDTH 12 0
BBX 12 20 0 -4
BITMAP
0000
0000
0000
0000
0300
0300
0fc0
0fc0
0300
0300
0300
0300
0330
03f0
01e0
00c0
00c0
01c0
0380
0300
ENDCHAR
STARTCHAR uni0163.small.square
ENCODING 61960
SWIDTH 600 0
DWIDTH 12 0
BBX 12 20 0 -4
BITMAP
0000
0000
0000
0000
0300
0300
0fc0
0fc0
0300
0300
0300
0300
0330
03f0
01e0
00c0
00c0
00c0
03c0
03c0
ENDCHAR
STARTCHAR uni0163.square.small
ENCODING -1
SWIDTH 600 0
DWIDTH 12 0
BBX 12 20 0 -4
BITMAP
0000
0000
0000
0000
0300
0300
0fc0
0fc0
0300
0300
0300
0300
0330
03f0
01e0
00c0
00c0
00c0
03c0
03c0
ENDCHAR
STARTCHAR uni0163.sc
ENCODING -1
SWIDTH 600 0
DWIDTH 12 0
BBX 12 20 0 -4
BITMAP
0000
0000
0000
0000
0000
0000
3ff0
3ff0
0300
0300
0300
0300
0300
0300
0300
0380
01c0
01c0
0380
0300
ENDCHAR
STARTCHAR uni0163.sc.square
ENCODING -1
SWIDTH 600 0
DWIDTH 12 0
BBX 12 20 0 -4
BITMAP
0000
0000
0000
0000
0000
0000
3ff0
3ff0
0300
0300
0300
0300
0300
0300
0300
0380
01c0
00c0
03c0
03c0
ENDCHAR
STARTCHAR Tcaron
ENCODING 356
SWIDTH 600 0
DWIDTH 12 0
BBX 12 20 0 -4
BITMAP
0000
0000
0cc0
0fc0
0780
0300
3ff0
3ff0
0300
0300
0300
0300
0300
0300
0300
0300
0000
0000
0000
0000
ENDCHAR
STARTCHAR tcaron
ENCODING 357
SWIDTH 600 0
DWIDTH 12 0
BBX 12 20 0 -4
BITMAP
0000
0000
0c30
0c30
0c30
0c30
3f00
3f00
0c00
0c00
0c00
0c00
0c00
0e00
0700
0300
0000
0000
0000
0000
ENDCHAR
STARTCHAR tcaron.small
ENCODING 62017
SWIDTH 600 0
DWIDTH 12 0
BBX 12 20 0 -4
BITMAP
0000
0000
0030
0030
0c30
0c30
3f00
3f00
0c00
0c00
0c00
0c00
0c00
0e00
0700
0300
0000
0000
0000
0000
ENDCHAR
STARTCHAR tcaron.sc
ENCODING -1
SWIDTH 600 0
DWIDTH 12 0
BBX 12 20 0 -4
BITMAP
0000
0000
0cc0
0fc0
0780
0300
3ff0
3ff0
0300
0300
0300
0300
0300
0300
0300
0300
0000
0000
0000
0000
ENDCHAR
STARTCHAR Tbar
ENCODING 358
SWIDTH 600 0
DWIDTH 12 0
BBX 12 20 0 -4
BITMAP
0000
0000
3ff0
3ff0
0300
0300
0300
0300
0fc0
0fc0
0300
0300
0300
0300
0300
0300
0000
0000
0000
0000
ENDCHAR
STARTCHAR Tbar.c2sc
ENCODING 61901
SWIDTH 600 0
DWIDTH 12 0
BBX 12 20 0 -4
BITMAP
0000
0000
0000
0000
0000
0000
3ff0
3ff0
0300
0300
0fc0
0fc0
0300
0300
0300
0300
0000
0000
0000
0000
ENDCHAR
STARTCHAR tbar
ENCODING 359
SWIDTH 600 0
DWIDTH 12 0
BBX 12 20 0 -4
BITMAP
0000
0000
0300
0300
0fc0
0fc0
0300
0300
0fc0
0fc0
0300
0300
0300
0380
01c0
00c0
0000
0000
0000
0000
ENDCHAR
STARTCHAR tbar.small
ENCODING 62018
SWIDTH 600 0
DWIDTH 12 0
BBX 12 20 0 -4
BITMAP
0000
0000
0000
0000
0300
0300
0fc0
0fc0
0300
0300
0fc0
0fc0
0300
0380
01c0
00c0
0000
0000
0000
0000
ENDCHAR
STARTCHAR tbar.sc
ENCODING -1
SWIDTH 600 0
DWIDTH 12 0
BBX 12 20 0 -4
BITMAP
0000
0000
0000
0000
0000
0000
3ff0
3ff0
0300
0300
0fc0
0fc0
0300
0300
0300
0300
0000
0000
0000
0000
ENDCHAR
STARTCHAR Umacron
ENCODING 362
SWIDTH 600 0
DWIDTH 12 0
BBX 12 20 0 -4
BITMAP
0000
0000
0fc0
0fc0
0000
0000
3030
3030
3030
3030
3030
3030
3030
3870
1fe0
0fc0
0000
0000
0000
0000
ENDCHAR
STARTCHAR umacron
ENCODING 363
SWIDTH 600 0
DWIDTH 12 0
BBX 12 20 0 -4
BITMAP
0000
0000
0000
0000
0fc0
0fc0
0000
0000
3030
3030
3030
3030
3030
3830
1ff0
0ff0
0000
0000
0000
0000
ENDCHAR
STARTCHAR umacron.sc
ENCODING -1
SWIDTH 600 0
DWIDTH 12 0
BBX 12 20 0 -4
BITMAP
0000
0000
0fc0
0fc0
0000
0000
3030
3030
3030
3030
3030
3030
3030
3870
1fe0
0fc0
0000
0000
0000
0000
ENDCHAR
STARTCHAR Uring
ENCODING 366
SWIDTH 600 0
DWIDTH 12 0
BBX 12 20 0 -4
BITMAP
0000
0000
0300
0300
0000
0000
3030
3030
3030
3030
3030
3030
3030
3870
1fe0
0fc0
0000
0000
0000
0000
ENDCHAR
STARTCHAR uring
ENCODING 367
SWIDTH 600 0
DWIDTH 12 0
BBX 12 20 0 -4
BITMAP
0000
0000
0300
0300
0000
0000
3030
3030
3030
3030
3030
3030
3030
3830
1ff0
0ff0
0000
0000
0000
0000
ENDCHAR
STARTCHAR Uogonek
ENCODING 370
SWIDTH 600 0
DWIDTH 12 0
BBX 12 20 0 -4
BITMAP
0000
0000
3030
3030
3030
3030
3030
3030
3030
3030
3030
3030
3030
3870
1fe0
0fc0
0300
0380
01c0
00c0
ENDCHAR
STARTCHAR Uogonek.c2sc
ENCODING 61852
SWIDTH 600 0
DWIDTH 12 0
BBX 12 20 0 -4
BITMAP
0000
0000
0000
0000
0000
0000
3030
3030
3030
3030
3030
3030
3030
3870
1fe0
0fc0
0300
0380
01c0
00c0
ENDCHAR
STARTCHAR uogonek
ENCODING 371
SWIDTH 600 0
DWIDTH 12 0
BBX 12 20 0 -4
BITMAP
0000
0000
0000
0000
0000
0000
3030
3030
3030
3030
3030
3030
3030
3830
1ff0
0ff0
00c0
00e0
0070
0030
ENDCHAR
STARTCHAR uogonek.sc
ENCODING -1
SWIDTH 600 0
DWIDTH 12 0
BBX 12 20 0 -4
BITMAP
0000
0000
0000
0000
0000
0000
3030
3030
3030
3030
3030
3030
3030
3870
1fe0
0fc0
0300
0380
01c0
00c0
ENDCHAR
STARTCHAR Wcircumflex
ENCODING 372
SWIDTH 600 0
DWIDTH 12 0
BBX 12 20 0 -4
BITMAP
0000
0000
0300
0780
0fc0
0cc0
0000
0000
3030
3030
3330
3330
3330
3ff0
1fe0
0cc0
0000
0000
0000
0000
ENDCHAR
STARTCHAR wcircumflex
ENCODING 373
SWIDTH 600 0
DWIDTH 12 0
BBX 12 20 0 -4
BITMAP
0000
0000
0300
0780
0fc0
0cc0
0000
0000
3030
3030
3030
3030
3330
3ff0
1fe0
0cc0
0000
0000
0000
0000
ENDCHAR
STARTCHAR wcircumflex.sc
ENCODING -1
SWIDTH 600 0
DWIDTH 12 0
BBX 12 20 0 -4
BITMAP
0000
0000
0300
0780
0fc0
0cc0
0000
0000
3030
3030
3330
3330
3330
3ff0
1fe0
0cc0
0000
0000
0000
0000
ENDCHAR
STARTCHAR Ycircumflex
ENCODING 374
SWIDTH 600 0
DWIDTH 12 0
BBX 12 20 0 -4
BITMAP
0000
0000
0300
0780
0fc0
0cc0
0000
0000
3030
3870
1ce0
0fc0
0780
0300
0300
0300
0000
0000
0000
0000
ENDCHAR
STARTCHAR ycircumflex
ENCODING 375
SWIDTH 600 0
DWIDTH 12 0
BBX 12 20 0 -4
BITMAP
0000
0000
0300
0780
0fc0
0cc0
0000
0000
3030
3030
3030
3030
3030
3830
1ff0
0ff0
0030
0070
0fe0
0fc0
ENDCHAR
STARTCHAR ycircumflex.sc
ENCODING -1
SWIDTH 600 0
DWIDTH 12 0
BBX 12 20 0 -4
BITMAP
0000
0000
0300
0780
0fc0
0cc0
0000
0000
3030
3870
1ce0
0fc0
0780
0300
0300
0300
0000
0000
0000
0000
ENDCHAR
STARTCHAR Ydieresis
ENCODING 376
SWIDTH 600 0
DWIDTH 12 0
BBX 12 20 0 -4
BITMAP
0000
0000
0cc0
0cc0
0000
0000
3030
3870
1ce0
0fc0
0780
0300
0300
0300
0300
0300
0000
0000
0000
0000
ENDCHAR
STARTCHAR Zacute
ENCODING 377
SWIDTH 600 0
DWIDTH 12 0
BBX 12 20 0 -4
BITMAP
0000
0000
00c0
01c0
0380
0300
3ff0
3ff0
0030
0070
0fe0
1fc0
3800
3000
3ff0
3ff0
0000
0000
0000
0000
ENDCHAR
STARTCHAR zacute
ENCODING 378
SWIDTH 600 0
DWIDTH 12 0
BBX 12 20 0 -4
BITMAP
0000
0000
00c0
01c0
0380
0300
3ff0
3ff0
00c0
01c0
0380
0700
0e00
0c00
3ff0
3ff0
0000
0000
0000
0000
ENDCHAR
STARTCHAR zacute.sc
ENCODING -1
SWIDTH 600 0
DWIDTH 12 0
BBX 12 20 0 -4
BITMAP
0000
0000
00c0
01c0
0380
0300
3ff0
3ff0
0030
0070
0fe0
1fc0
3800
3000
3ff0
3ff0
0000
0000
0000
0000
ENDCHAR
STARTCHAR Zdotaccent
ENCODING 379
SWIDTH 600 0
DWIDTH 12 0
BBX 12 20 0 -4
BITMAP
0000
0000
0300
0300
0000
0000
3ff0
3ff0
0030
0070
0fe0
1fc0
3800
3000
3ff0
3ff0
0000
0000
0000
0000
ENDCHAR
STARTCHAR zdotaccent
ENCODING 380
SWIDTH 600 0
DWIDTH 12 0
BBX 12 20 0 -4
BITMAP
0000
0000
0300
0300
0000
0000
3ff0
3ff0
00c0
01c0
0380
0700
0e00
0c00
3ff0
3ff0
0000
0000
0000
0000
ENDCHAR
STARTCHAR zdotaccent.sc
ENCODING -1
SWIDTH 600 0
DWIDTH 12 0
BBX 12 20 0 -4
BITMAP
0000
0000
0300
0300
0000
0000
3ff0
3ff0
0030
0070
0fe0
1fc0
3800
3000
3ff0
3ff0
0000
0000
0000
0000
ENDCHAR
STARTCHAR Zcaron
ENCODING 381
SWIDTH 600 0
DWIDTH 12 0
BBX 12 20 0 -4
BITMAP
0000
0000
0cc0
0fc0
0780
0300
3ff0
3ff0
0030
0070
0fe0
1fc0
3800
3000
3ff0
3ff0
0000
0000
0000
0000
ENDCHAR
STARTCHAR zcaron
ENCODING 382
SWIDTH 600 0
DWIDTH 12 0
BBX 12 20 0 -4
BITMAP
0000
0000
0cc0
0fc0
0780
0300
3ff0
3ff0
00c0
01c0
0380
0700
0e00
0c00
3ff0
3ff0
0000
0000
0000
0000
ENDCHAR
STARTCHAR zcaron.sc
ENCODING -1
SWIDTH 600 0
DWIDTH 12 0
BBX 12 20 0 -4
BITMAP
0000
0000
0cc0
0fc0
0780
0300
3ff0
3ff0
0030
0070
0fe0
1fc0
3800
3000
3ff0
3ff0
0000
0000
0000
0000
ENDCHAR
STARTCHAR longs
ENCODING 383
SWIDTH 600 0
DWIDTH 12 0
BBX 12 20 0 -4
BITMAP
0000
0000
00c0
01c0
0380
0300
0300
0300
0300
0300
0300
0300
0300
0300
0300
0300
0000
0000
0000
0000
ENDCHAR
STARTCHAR longs.sc
ENCODING -1
SWIDTH 600 0
DWIDTH 12 0
BBX 12 20 0 -4
BITMAP
0000
0000
0000
0000
0000
0000
0ff0
1ff0
3800
3800
1fc0
0fe0
0070
0070
3fe0
3fc0
0000
0000
0000
0000
ENDCHAR
STARTCHAR uni0180
ENCODING 384
SWIDTH 600 0
DWIDTH 12 0
BBX 12 20 0 -4
BITMAP
0000
0000
0c00
0c00
0c00
0c00
0fc0
0fe0
0c70
0c30
3f30
3f30
0c30
0c70
0fe0
0fc0
0000
0000
0000
0000
ENDCHAR
STARTCHAR uni0180.sc
ENCODING -1
SWIDTH 600 0
DWIDTH 12 0
BBX 12 20 0 -4
BITMAP
0000
0000
0000
0000
0000
0000
0fc0
0fe0
0c70
0c70
3fe0
3fe0
0c70
0c70
0fe0
0fc0
0000
0000
0000
0000
ENDCHAR
STARTCHAR uni0182
ENCODING 386
SWIDTH 600 0
DWIDTH 12 0
BBX 12 20 0 -4
BITMAP
0000
0000
3fc0
3fc0
3000
3000
3000
3000
3fc0
3fe0
3070
3030
3030
3070
3fe0
3fc0
0000
0000
0000
0000
ENDCHAR
STARTCHAR uni0182.c2sc
ENCODING 61902
SWIDTH 600 0
DWIDTH 12 0
BBX 12 20 0 -4
BITMAP
0000
0000
0000
0000
0000
0000
3fc0
3fc0
3000
3000
3fc0
3fe0
3070
3070
3fe0
3fc0
0000
0000
0000
0000
ENDCHAR
STARTCHAR uni0183
ENCODING 387
SWIDTH 600 0
DWIDTH 12 0
BBX 12 20 0 -4
BITMAP
0000
0000
3ff0
3ff0
3000
3000
3fc0
3fe0
3070
3030
3030
3030
3030
3070
3fe0
3fc0
0000
0000
0000
0000
ENDCHAR
STARTCHAR uni0183.sc
ENCODING -1
SWIDTH 600 0
DWIDTH 12 0
BBX 12 20 0 -4
BITMAP
0000
0000
0000
0000
0000
0000
3fc0
3fc0
3000
3000
3fc0
3fe0
3070
3070
3fe0
3fc0
0000
0000
0000
0000
ENDCHAR
STARTCHAR uni0188
ENCODING 392
SWIDTH 600 0
DWIDTH 12 0
BBX 12 20 0 -4
BITMAP
0000
0000
00f0
00f0
00c0
00c0
0ff0
1ff0
3800
3000
3000
3000
3000
3800
1ff0
0ff0
0000
0000
0000
0000
ENDCHAR
STARTCHAR uni018E
ENCODING 398
SWIDTH 600 0
DWIDTH 12 0
BBX 12 20 0 -4
BITMAP
0000
0000
3ff0
3ff0
0030
0030
0030
0030
0ff0
0ff0
0030
0030
0030
0030
3ff0
3ff0
0000
0000
0000
0000
ENDCHAR
STARTCHAR uni018E.c2sc
ENCODING -1
SWIDTH 600 0
DWIDTH 12 0
BBX 12 20 0 -4
BITMAP
0000
0000
0000
0000
0000
0000
3ff0
3ff0
0030
0030
0ff0
0ff0
0030
0030
3ff0
3ff0
0000
0000
0000
0000
ENDCHAR
STARTCHAR uni018F
ENCODING 399
SWIDTH 600 0
DWIDTH 12 0
BBX 12 20 0 -4
BITMAP
0000
0000
0fc0
1fe0
3870
3030
0030
0030
3ff0
3ff0
3030
3030
3030
3870
1fe0
0fc0
0000
0000
0000
0000
ENDCHAR
STARTCHAR uni018F.c2sc
ENCODING -1
SWIDTH 600 0
DWIDTH 12 0
BBX 12 20 0 -4
BITMAP
0000
0000
0000
0000
0000
0000
0fc0
0fe0
0070
0030
3ff0
3ff0
3030
3870
1fe0
0fc0
0000
0000
0000
0000
ENDCHAR
STARTCHAR florin
ENCODING 402
SWIDTH 600 0
DWIDTH 12 0
BBX 12 20 0 -4
BITMAP
0000
0000
00c0
01c0
0380
0300
0300
0300
0fc0
0fc0
0300
0300
0300
0300
0300
0300
0300
0700
0e00
0c00
ENDCHAR
STARTCHAR uni0199
ENCODING 409
SWIDTH 600 0
DWIDTH 12 0
BBX 12 20 0 -4
BITMAP
0000
0000
03c0
07c0
0e00
0c00
0c30
0c70
0ce0
0dc0
0f80
0f80
0dc0
0ce0
0c70
0c30
0000
0000
0000
0000
ENDCHAR
STARTCHAR uni019B
ENCODING 411
SWIDTH 600 0
DWIDTH 12 0
BBX 12 20 0 -4
BITMAP
0000
0000
3c00
3e00
0700
0300
0fc0
0fc0
0300
0780
0fc0
0cc0
0cc0
1ce0
3870
3030
0000
0000
0000
0000
ENDCHAR
STARTCHAR uni019E
ENCODING 414
SWIDTH 600 0
DWIDTH 12 0
BBX 12 20 0 -4
BITMAP
0000
0000
0000
0000
0000
0000
3fc0
3fe0
3070
3030
3030
3030
3030
3030
3030
3030
0030
0030
0030
0030
ENDCHAR
STARTCHAR uni01A5
ENCODING 421
SWIDTH 600 0
DWIDTH 12 0
BBX 12 20 0 -4
BITMAP
0000
0000
0f00
1f00
3800
3000
3fc0
3fe0
3070
3030
3030
3030
3030
3070
3fe0
3fc0
3000
3000
3000
3000
ENDCHAR
STARTCHAR uni01A7
ENCODING 423
SWIDTH 600 0
DWIDTH 12 0
BBX 12 20 0 -4
BITMAP
0000
0000
0fc0
1fe0
3870
3030
0030
0070
0fe0
1fc0
3800
3000
3030
3870
1fe0
0fc0
0000
0000
0000
0000
ENDCHAR
STARTCHAR uni01A7.c2sc
ENCODING -1
SWIDTH 600 0
DWIDTH 12 0
BBX 12 20 0 -4
BITMAP
0000
0000
0000
0000
0000
0000
3fc0
3fe0
0070
0070
0fe0
1fc0
3800
3800
1ff0
0ff0
0000
0000
0000
0000
ENDCHAR
STARTCHAR uni01A8
ENCODING 424
SWIDTH 600 0
DWIDTH 12 0
BBX 12 20 0 -4
BITMAP
0000
0000
0000
0000
0000
0000
3fc0
3fe0
0070
0070
0fe0
1fc0
3800
3800
1ff0
0ff0
0000
0000
0000
0000
ENDCHAR
STARTCHAR uni01AB
ENCODING 427
SWIDTH 600 0
DWIDTH 12 0
BBX 12 20 0 -4
BITMAP
0000
0000
0300
0300
0300
0300
0fc0
0fc0
0300
0300
0300
0300
0300
0380
01c0
01c0
0f80
0f00
0000
0000
ENDCHAR
STARTCHAR uni01AB.small
ENCODING 62019
SWIDTH 600 0
DWIDTH 12 0
BBX 12 20 0 -4
BITMAP
0000
0000
0000
0000
0300
0300
0fc0
0fc0
0300
0300
0300
0300
0300
0380
01c0
01c0
0f80
0f00
0000
0000
ENDCHAR
STARTCHAR uni01AD
ENCODING 429
SWIDTH 600 0
DWIDTH 12 0
BBX 12 20 0 -4
BITMAP
0000
0000
00c0
01c0
0380
0300
0fc0
0fc0
0300
0300
0300
0300
0300
0380
01c0
00c0
0000
0000
0000
0000
ENDCHAR
STARTCHAR uni01BB
ENCODING 443
SWIDTH 600 0
DWIDTH 12 0
BBX 12 20 0 -4
BITMAP
0000
0000
0fc0
1fe0
3870
3030
0330
03f0
01e0
01e0
0ff0
1f30
3800
3000
3ff0
3ff0
0000
0000
0000
0000
ENDCHAR
STARTCHAR uni01C0
ENCODING 448
SWIDTH 600 0
DWIDTH 12 0
BBX 12 20 0 -4
BITMAP
0000
0000
0300
0300
0300
0300
0300
0300
0300
0300
0300
0300
0300
0300
0300
0300
0300
0300
0300
0300
ENDCHAR
STARTCHAR uni01C1
ENCODING 449
SWIDTH 600 0
DWIDTH 12 0
BBX 12 20 0 -4
BITMAP
0000
0000
0cc0
0cc0
0cc0
0cc0
0cc0
0cc0
0cc0
0cc0
0cc0
0cc0
0cc0
0cc0
0cc0
0cc0
0cc0
0cc0
0cc0
0cc0
ENDCHAR
STARTCHAR uni01C2
ENCODING 450
SWIDTH 600 0
DWIDTH 12 0
BBX 12 20 0 -4
BITMAP
0000
0000
0300
0300
0300
0300
0300
0300
3ff0
3ff0
0300
0300
3ff0
3ff0
0300
0300
0300
0300
0300
0300
ENDCHAR
STARTCHAR uni01C3
ENCODING 451
SWIDTH 600 0
DWIDTH 12 0
BBX 12 20 0 -4
BITMAP
0000
0000
0300
0300
0300
0300
0300
0300
0300
0300
0300
0300
0000
0000
0300
0300
0000
0000
0000
0000
ENDCHAR
STARTCHAR uni01CD
ENCODING 461
SWIDTH 600 0
DWIDTH 12 0
BBX 12 20 0 -4
BITMAP
0000
0000
0cc0
0fc0
0780
0300
0fc0
1fe0
3870
3030
3ff0
3ff0
3030
3030
3030
3030
0000
0000
0000
0000
ENDCHAR
STARTCHAR uni01CE
ENCODING 462
SWIDTH 600 0
DWIDTH 12 0
BBX 12 20 0 -4
BITMAP
0000
0000
0cc0
0fc0
0780
0300
0fc0
0fe0
0070
0030
0ff0
1ff0
3830
3830
1ff0
0ff0
0000
0000
0000
0000
ENDCHAR
STARTCHAR uni01CE.sc
ENCODING -1
SWIDTH 600 0
DWIDTH 12 0
BBX 12 20 0 -4
BITMAP
0000
0000
0cc0
0fc0
0780
0300
0fc0
1fe0
3870
3030
3ff0
3ff0
3030
3030
3030
3030
0000
0000
0000
0000
ENDCHAR
STARTCHAR uni01CF
ENCODING 463
SWIDTH 600 0
DWIDTH 12 0
BBX 12 20 0 -4
BITMAP
0000
0000
0cc0
0fc0
0780
0300
0000
0000
0fc0
0fc0
0300
0300
0300
0300
0fc0
0fc0
0000
0000
0000
0000
ENDCHAR
STARTCHAR uni01D0
ENCODING 464
SWIDTH 600 0
DWIDTH 12 0
BBX 12 20 0 -4
BITMAP
0000
0000
0cc0
0fc0
0780
0300
0000
0000
0f00
0f00
0300
0300
0300
0300
0fc0
0fc0
0000
0000
0000
0000
ENDCHAR
STARTCHAR uni01D0.sc
ENCODING -1
SWIDTH 600 0
DWIDTH 12 0
BBX 12 20 0 -4
BITMAP
0000
0000
0cc0
0fc0
0780
0300
0000
0000
0fc0
0fc0
0300
0300
0300
0300
0fc0
0fc0
0000
0000
0000
0000
ENDCHAR
STARTCHAR uni01D1
ENCODING 465
SWIDTH 600 0
DWIDTH 12 0
BBX 12 20 0 -4
BITMAP
0000
0000
0cc0
0fc0
0780
0300
0fc0
1fe0
3870
3030
3030
3030
3030
3870
1fe0
0fc0
0000
0000
0000
0000
ENDCHAR
STARTCHAR uni01D2
ENCODING 466
SWIDTH 600 0
DWIDTH 12 0
BBX 12 20 0 -4
BITMAP
0000
0000
0cc0
0fc0
0780
0300
0000
0000
0fc0
1fe0
3870
3030
3030
3870
1fe0
0fc0
0000
0000
0000
0000
ENDCHAR
STARTCHAR uni01D2.sc
ENCODING -1
SWIDTH 600 0
DWIDTH 12 0
BBX 12 20 0 -4
BITMAP
0000
0000
0cc0
0fc0
0780
0300
0fc0
1fe0
3870
3030
3030
3030
3030
3870
1fe0
0fc0
0000
0000
0000
0000
ENDCHAR
STARTCHAR uni01D3
ENCODING 467
SWIDTH 600 0
DWIDTH 12 0
BBX 12 20 0 -4
BITMAP
0000
0000
0cc0
0fc0
0780
0300
3030
3030
3030
3030
3030
3030
3030
3870
1fe0
0fc0
0000
0000
0000
0000
ENDCHAR
STARTCHAR uni01D4
ENCODING 468
SWIDTH 600 0
DWIDTH 12 0
BBX 12 20 0 -4
BITMAP
0000
0000
0cc0
0fc0
0780
0300
3030
3030
3030
3030
3030
3030
3030
3830
1ff0
0ff0
0000
0000
0000
0000
ENDCHAR
STARTCHAR uni01D4.sc
ENCODING -1
SWIDTH 600 0
DWIDTH 12 0
BBX 12 20 0 -4
BITMAP
0000
0000
0cc0
0fc0
0780
0300
3030
3030
3030
3030
3030
3030
3030
3870
1fe0
0fc0
0000
0000
0000
0000
ENDCHAR
STARTCHAR uni01D5
ENCODING 469
SWIDTH 600 0
DWIDTH 12 0
BBX 12 20 0 -4
BITMAP
0000
0000
0fc0
0fc0
0000
0000
0cc0
0cc0
0000
0000
3030
3030
3030
3870
1fe0
0fc0
0000
0000
0000
0000
ENDCHAR
STARTCHAR uni01D6
ENCODING 470
SWIDTH 600 0
DWIDTH 12 0
BBX 12 20 0 -4
BITMAP
0000
0000
0fc0
0fc0
0000
0000
0cc0
0cc0
0000
0000
3030
3030
3030
3830
1ff0
0ff0
0000
0000
0000
0000
ENDCHAR
STARTCHAR uni01D6.sc
ENCODING -1
SWIDTH 600 0
DWIDTH 12 0
BBX 12 20 0 -4
BITMAP
0000
0000
0fc0
0fc0
0000
0000
0cc0
0cc0
0000
0000
3030
3030
3030
3870
1fe0
0fc0
0000
0000
0000
0000
ENDCHAR
STARTCHAR uni01D7
ENCODING 471
SWIDTH 600 0
DWIDTH 12 0
BBX 12 20 0 -4
BITMAP
0000
0000
00c0
01c0
0380
0300
3030
3030
0000
0000
3030
3030
3030
3870
1fe0
0fc0
0000
0000
0000
0000
ENDCHAR
STARTCHAR uni01D8
ENCODING 472
SWIDTH 600 0
DWIDTH 12 0
BBX 12 20 0 -4
BITMAP
0000
0000
00c0
01c0
0380
0300
3030
3030
0000
0000
3030
3030
3030
3830
1ff0
0ff0
0000
0000
0000
0000
ENDCHAR
STARTCHAR uni01D8.sc
ENCODING -1
SWIDTH 600 0
DWIDTH 12 0
BBX 12 20 0 -4
BITMAP
0000
0000
00c0
01c0
0380
0300
3030
3030
0000
0000
3030
3030
3030
3870
1fe0
0fc0
0000
0000
0000
0000
ENDCHAR
STARTCHAR uni01D9
ENCODING 473
SWIDTH 600 0
DWIDTH 12 0
BBX 12 20 0 -4
BITMAP
0000
0000
0cc0
0fc0
0780
0300
3030
3030
0000
0000
3030
3030
3030
3870
1fe0
0fc0
0000
0000
0000
0000
ENDCHAR
STARTCHAR uni01DA
ENCODING 474
SWIDTH 600 0
DWIDTH 12 0
BBX 12 20 0 -4
BITMAP
0000
0000
0cc0
0fc0
0780
0300
3030
3030
0000
0000
3030
3030
3030
3830
1ff0
0ff0
0000
0000
0000
0000
ENDCHAR
STARTCHAR uni01DA.sc
ENCODING -1
SWIDTH 600 0
DWIDTH 12 0
BBX 12 20 0 -4
BITMAP
0000
0000
0cc0
0fc0
0780
0300
3030
3030
0000
0000
3030
3030
3030
3870
1fe0
0fc0
0000
0000
0000
0000
ENDCHAR
STARTCHAR uni01DB
ENCODING 475
SWIDTH 600 0
DWIDTH 12 0
BBX 12 20 0 -4
BITMAP
0000
0000
0c00
0e00
0700
0300
3030
3030
0000
0000
3030
3030
3030
3870
1fe0
0fc0
0000
0000
0000
0000
ENDCHAR
STARTCHAR uni01DC
ENCODING 476
SWIDTH 600 0
DWIDTH 12 0
BBX 12 20 0 -4
BITMAP
0000
0000
0c00
0e00
0700
0300
3030
3030
0000
0000
3030
3030
3030
3830
1ff0
0ff0
0000
0000
0000
0000
ENDCHAR
STARTCHAR uni01DC.sc
ENCODING -1
SWIDTH 600 0
DWIDTH 12 0
BBX 12 20 0 -4
BITMAP
0000
0000
0c00
0e00
0700
0300
3030
3030
0000
0000
3030
3030
3030
3870
1fe0
0fc0
0000
0000
0000
0000
ENDCHAR
STARTCHAR uni01DD
ENCODING 477
SWIDTH 600 0
DWIDTH 12 0
BBX 12 20 0 -4
BITMAP
0000
0000
0000
0000
0000
0000
0fc0
0fe0
0070
0030
3ff0
3ff0
3030
3870
1fe0
0fc0
0000
0000
0000
0000
ENDCHAR
STARTCHAR uni01DD.sc
ENCODING -1
SWIDTH 600 0
DWIDTH 12 0
BBX 12 20 0 -4
BITMAP
0000
0000
0000
0000
0000
0000
3ff0
3ff0
0030
0030
0ff0
0ff0
0030
0030
3ff0
3ff0
0000
0000
0000
0000
ENDCHAR
STARTCHAR uni01E2
ENCODING 482
SWIDTH 600 0
DWIDTH 12 0
BBX 12 20 0 -4
BITMAP
0000
0000
0fc0
0fc0
0000
0000
0ff0
1ff0
3b00
3300
33c0
33c0
3f00
3f00
33f0
33f0
0000
0000
0000
0000
ENDCHAR
STARTCHAR uni01E3
ENCODING 483
SWIDTH 600 0
DWIDTH 12 0
BBX 12 20 0 -4
BITMAP
0000
0000
0fc0
0fc0
0000
0000
0cc0
0fe0
07f0
0330
0ff0
1ff0
3b00
3b00
1fc0
0fc0
0000
0000
0000
0000
ENDCHAR
STARTCHAR uni01E3.sc
ENCODING -1
SWIDTH 600 0
DWIDTH 12 0
BBX 12 20 0 -4
BITMAP
0000
0000
0fc0
0fc0
0000
0000
0ff0
1ff0
3b00
3300
33c0
33c0
3f00
3f00
33f0
33f0
0000
0000
0000
0000
ENDCHAR
STARTCHAR uni01F0
ENCODING 496
SWIDTH 600 0
DWIDTH 12 0
BBX 12 20 0 -4
BITMAP
0000
0000
0cc0
0fc0
0780
0300
0000
0000
0300
0300
0300
0300
0300
0300
0300
0300
0300
0700
0e00
0c00
ENDCHAR
STARTCHAR uni01F0.serif
ENCODING 61983
SWIDTH 600 0
DWIDTH 12 0
BBX 12 20 0 -4
BITMAP
0000
0000
0cc0
0fc0
0780
0300
0000
0000
0f00
0f00
0300
0300
0300
0300
0300
0300
0300
0700
0e00
0c00
ENDCHAR
STARTCHAR uni01F8
ENCODING 504
SWIDTH 600 0
DWIDTH 12 0
BBX 12 20 0 -4
BITMAP
0000
0000
0c00
0e00
0700
0300
3030
3030
3c30
3e30
3730
33b0
31f0
30f0
3030
3030
0000
0000
0000
0000
ENDCHAR
STARTCHAR uni01F9
ENCODING 505
SWIDTH 600 0
DWIDTH 12 0
BBX 12 20 0 -4
BITMAP
0000
0000
0c00
0e00
0700
0300
3fc0
3fe0
3070
3030
3030
3030
3030
3030
3030
3030
0000
0000
0000
0000
ENDCHAR
STARTCHAR uni01F9.sc
ENCODING -1
SWIDTH 600 0
DWIDTH 12 0
BBX 12 20 0 -4
BITMAP
0000
0000
0c00
0e00
0700
0300
3030
3030
3c30
3e30
3730
33b0
31f0
30f0
3030
3030
0000
0000
0000
0000
ENDCHAR
STARTCHAR uni0218
ENCODING 536
SWIDTH 600 0
DWIDTH 12 0
BBX 12 20 0 -4
BITMAP
0000
0000
0fc0
1fe0
3870
3030
3000
3800
1fc0
0fe0
0070
0030
3030
3870
1fe0
0fc0
0300
0700
0e00
0c00
ENDCHAR
STARTCHAR uni0218.c2sc
ENCODING -1
SWIDTH 600 0
DWIDTH 12 0
BBX 12 20 0 -4
BITMAP
0000
0000
0000
0000
0000
0000
0ff0
1ff0
3800
3800
1fc0
0fe0
0070
0070
3fe0
3fc0
0300
0700
0e00
0c00
ENDCHAR
STARTCHAR uni0219
ENCODING 537
SWIDTH 600 0
DWIDTH 12 0
BBX 12 20 0 -4
BITMAP
0000
0000
0000
0000
0000
0000
0ff0
1ff0
3800
3800
1fc0
0fe0
0070
0070
3fe0
3fc0
0300
0700
0e00
0c00
ENDCHAR
STARTCHAR uni021A
ENCODING 538
SWIDTH 600 0
DWIDTH 12 0
BBX 12 20 0 -4
BITMAP
0000
0000
3ff0
3ff0
0300
0300
0300
0300
0300
0300
0300
0300
0300
0300
0000
0000
0300
0700
0e00
0c00
ENDCHAR
STARTCHAR uni021A.c2sc
ENCODING 61828
SWIDTH 600 0
DWIDTH 12 0
BBX 12 20 0 -4
BITMAP
0000
0000
0000
0000
0000
0000
3ff0
3ff0
0300
0300
0300
0300
0300
0300
0000
0000
0300
0700
0e00
0c00
ENDCHAR
STARTCHAR uni021B
ENCODING 539
SWIDTH 600 0
DWIDTH 12 0
BBX 12 20 0 -4
BITMAP
0000
0000
0300
0300
0300
0300
0fc0
0fc0
0300
0300
0300
0380
01c0
00c0
0000
0000
0300
0700
0e00
0c00
ENDCHAR
STARTCHAR uni021B.small
ENCODING 62020
SWIDTH 600 0
DWIDTH 12 0
BBX 12 20 0 -4
BITMAP
0000
0000
0000
0000
0300
0300
0fc0
0fc0
0300
0300
0300
0380
01c0
00c0
0000
0000
0300
0700
0e00
0c00
ENDCHAR
STARTCHAR uni021B.sc
ENCODING -1
SWIDTH 600 0
DWIDTH 12 0
BBX 12 20 0 -4
BITMAP
0000
0000
0000
0000
0000
0000
3ff0
3ff0
0300
0300
0300
0300
0300
0300
0000
0000
0300
0700
0e00
0c00
ENDCHAR
STARTCHAR uni0228
ENCODING 552
SWIDTH 600 0
DWIDTH 12 0
BBX 12 20 0 -4
BITMAP
0000
0000
3ff0
3ff0
3000
3000
3000
3000
3fc0
3fc0
3000
3000
3000
3000
3ff0
3ff0
0300
0700
0e00
0c00
ENDCHAR
STARTCHAR uni0228.square
ENCODING 61961
SWIDTH 600 0
DWIDTH 12 0
BBX 12 20 0 -4
BITMAP
0000
0000
3ff0
3ff0
3000
3000
3000
3000
3fc0
3fc0
3000
3000
3000
3000
3ff0
3ff0
0300
0300
0f00
0f00
ENDCHAR
STARTCHAR uni0228.c2sc
ENCODING 61829
SWIDTH 600 0
DWIDTH 12 0
BBX 12 20 0 -4
BITMAP
0000
0000
0000
0000
0000
0000
3ff0
3ff0
3000
3000
3fc0
3fc0
3000
3000
3ff0
3ff0
0300
0700
0e00
0c00
ENDCHAR
STARTCHAR uni0228.c2sc.square
ENCODING 61962
SWIDTH 600 0
DWIDTH 12 0
BBX 12 20 0 -4
BITMAP
0000
0000
0000
0000
0000
0000
3ff0
3ff0
3000
3000
3fc0
3fc0
3000
3000
3ff0
3ff0
0300
0300
0f00
0f00
ENDCHAR
STARTCHAR uni0229
ENCODING 553
SWIDTH 600 0
DWIDTH 12 0
BBX 12 20 0 -4
BITMAP
0000
0000
0000
0000
0000
0000
0fc0
1fe0
3870
3030
3ff0
3ff0
3000
3800
1fc0
0fc0
0300
0700
0e00
0c00
ENDCHAR
STARTCHAR uni0229.square
ENCODING 61963
SWIDTH 600 0
DWIDTH 12 0
BBX 12 20 0 -4
BITMAP
0000
0000
0000
0000
0000
0000
0fc0
1fe0
3870
3030
3ff0
3ff0
3000
3800
1fc0
0fc0
0300
0300
0f00
0f00
ENDCHAR
STARTCHAR uni0229.sc
ENCODING -1
SWIDTH 600 0
DWIDTH 12 0
BBX 12 20 0 -4
BITMAP
0000
0000
0000
0000
0000
0000
3ff0
3ff0
3000
3000
3fc0
3fc0
3000
3000
3ff0
3ff0
0300
0700
0e00
0c00
ENDCHAR
STARTCHAR uni0229.sc.square
ENCODING -1
SWIDTH 600 0
DWIDTH 12 0
BBX 12 20 0 -4
BITMAP
0000
0000
0000
0000
0000
0000
3ff0
3ff0
3000
3000
3fc0
3fc0
3000
3000
3ff0
3ff0
0300
0300
0f00
0f00
ENDCHAR
STARTCHAR uni0232
ENCODING 562
SWIDTH 600 0
DWIDTH 12 0
BBX 12 20 0 -4
BITMAP
0000
0000
0fc0
0fc0
0000
0000
3030
3870
1ce0
0fc0
0780
0300
0300
0300
0300
0300
0000
0000
0000
0000
ENDCHAR
STARTCHAR uni0233
ENCODING 563
SWIDTH 600 0
DWIDTH 12 0
BBX 12 20 0 -4
BITMAP
0000
0000
0fc0
0fc0
0000
0000
3030
3030
3030
3030
3030
3030
3030
3830
1ff0
0ff0
0030
0070
0fe0
0fc0
ENDCHAR
STARTCHAR uni0233.sc
ENCODING -1
SWIDTH 600 0
DWIDTH 12 0
BBX 12 20 0 -4
BITMAP
0000
0000
0fc0
0fc0
0000
0000
3030
3870
1ce0
0fc0
0780
0300
0300
0300
0300
0300
0000
0000
0000
0000
ENDCHAR
STARTCHAR uni0237
ENCODING 567
SWIDTH 600 0
DWIDTH 12 0
BBX 12 20 0 -4
BITMAP
0000
0000
0000
0000
0000
0000
0300
0300
0300
0300
0300
0300
0300
0300
0300
0300
0300
0700
0e00
0c00
ENDCHAR
STARTCHAR uni0237.serif
ENCODING 61997
SWIDTH 600 0
DWIDTH 12 0
BBX 12 20 0 -4
BITMAP
0000
0000
0000
0000
0000
0000
0f00
0f00
0300
0300
0300
0300
0300
0300
0300
0300
0300
0700
0e00
0c00
ENDCHAR
STARTCHAR uni023F
ENCODING 575
SWIDTH 600 0
DWIDTH 12 0
BBX 12 20 0 -4
BITMAP
0000
0000
0000
0000
0000
0000
0ff0
1ff0
3800
3800
1fc0
0fe0
0070
0070
3fe0
3fc0
0300
0380
01f0
00f0
ENDCHAR
STARTCHAR uni0240
ENCODING 576
SWIDTH 600 0
DWIDTH 12 0
BBX 12 20 0 -4
BITMAP
0000
0000
0000
0000
0000
0000
3ff0
3ff0
00c0
01c0
0380
0700
0e00
0c00
3c00
3e00
0700
0380
01f0
00f0
ENDCHAR
STARTCHAR uni0240.sc
ENCODING -1
SWIDTH 600 0
DWIDTH 12 0
BBX 12 20 0 -4
BITMAP
0000
0000
0000
0000
0000
0000
0ff0
1ff0
3800
3800
1fc0
0fe0
0070
0070
3fe0
3fc0
0300
0380
01f0
00f0
ENDCHAR
STARTCHAR uni0243
ENCODING 579
SWIDTH 600 0
DWIDTH 12 0
BBX 12 20 0 -4
BITMAP
0000
0000
0fc0
0fe0
0c70
0c70
0fe0
0fe0
0c70
0c30
3f30
3f30
0c30
0c70
0fe0
0fc0
0000
0000
0000
0000
ENDCHAR
STARTCHAR uni0243.c2sc
ENCODING -1
SWIDTH 600 0
DWIDTH 12 0
BBX 12 20 0 -4
BITMAP
0000
0000
0000
0000
0000
0000
0fc0
0fe0
0c70
0c70
3fe0
3fe0
0c70
0c70
0fe0
0fc0
0000
0000
0000
0000
ENDCHAR
STARTCHAR uni0245
ENCODING 581
SWIDTH 600 0
DWIDTH 12 0
BBX 12 20 0 -4
BITMAP
0000
0000
0300
0300
0300
0780
0fc0
0cc0
0cc0
1ce0
3870
3030
3030
3030
3030
3030
0000
0000
0000
0000
ENDCHAR
STARTCHAR uni0245.c2sc
ENCODING -1
SWIDTH 600 0
DWIDTH 12 0
BBX 12 20 0 -4
BITMAP
0000
0000
0000
0000
0000
0000
0300
0780
0fc0
0cc0
0cc0
1ce0
3870
3030
3030
3030
0000
0000
0000
0000
ENDCHAR
STARTCHAR uni0250
ENCODING 592
SWIDTH 600 0
DWIDTH 12 0
BBX 12 20 0 -4
BITMAP
0000
0000
0000
0000
0000
0000
3fc0
3fe0
3070
3070
3fe0
3fc0
3000
3800
1fc0
0fc0
0000
0000
0000
0000
ENDCHAR
STARTCHAR uni0250.sc
ENCODING -1
SWIDTH 600 0
DWIDTH 12 0
BBX 12 20 0 -4
BITMAP
0000
0000
0000
0000
0000
0000
3030
3030
3030
3030
3ff0
3ff0
3030
3870
1fe0
0fc0
0000
0000
0000
0000
ENDCHAR
STARTCHAR uni0251
ENCODING 593
SWIDTH 600 0
DWIDTH 12 0
BBX 12 20 0 -4
BITMAP
0000
0000
0000
0000
0000
0000
0ff0
1ff0
3830
3030
3030
3030
30f0
39f0
1fb0
0f30
0000
0000
0000
0000
ENDCHAR
STARTCHAR uni0252
ENCODING 594
SWIDTH 600 0
DWIDTH 12 0
BBX 12 20 0 -4
BITMAP
0000
0000
0000
0000
0000
0000
33c0
37e0
3e70
3c30
3030
3030
3030
3070
3fe0
3fc0
0000
0000
0000
0000
ENDCHAR
STARTCHAR uni0253
ENCODING 595
SWIDTH 600 0
DWIDTH 12 0
BBX 12 20 0 -4
BITMAP
0000
0000
0f00
1f00
3800
3000
3fc0
3fe0
3070
3030
3030
3030
3030
3070
3fe0
3fc0
0000
0000
0000
0000
ENDCHAR
STARTCHAR uni0254
ENCODING 596
SWIDTH 600 0
DWIDTH 12 0
BBX 12 20 0 -4
BITMAP
0000
0000
0000
0000
0000
0000
3fc0
3fe0
0070
0030
0030
0030
0030
0070
3fe0
3fc0
0000
0000
0000
0000
ENDCHAR
STARTCHAR uni0255
ENCODING 597
SWIDTH 600 0
DWIDTH 12 0
BBX 12 20 0 -4
BITMAP
0000
0000
0000
0000
0000
0000
0ff0
1ff0
3800
3000
30c0
31e0
33f0
3b70
1fe0
0fc0
0300
0300
0000
0000
ENDCHAR
STARTCHAR uni0256
ENCODING 598
SWIDTH 600 0
DWIDTH 12 0
BBX 12 20 0 -4
BITMAP
0000
0000
00c0
00c0
00c0
00c0
0fc0
1fc0
38c0
30c0
30c0
30c0
30c0
38c0
1fc0
0fc0
00c0
00e0
0070
0030
ENDCHAR
STARTCHAR uni0257
ENCODING 599
SWIDTH 600 0
DWIDTH 12 0
BBX 12 20 0 -4
BITMAP
0000
0000
0030
0070
00e0
00c0
0fc0
1fc0
38c0
30c0
30c0
30c0
30c0
38c0
1fc0
0fc0
0000
0000
0000
0000
ENDCHAR
STARTCHAR uni0258
ENCODING 600
SWIDTH 600 0
DWIDTH 12 0
BBX 12 20 0 -4
BITMAP
0000
0000
0000
0000
0000
0000
0fc0
1fe0
3870
3030
3ff0
3ff0
0030
0070
0fe0
0fc0
0000
0000
0000
0000
ENDCHAR
STARTCHAR uni0259
ENCODING 601
SWIDTH 600 0
DWIDTH 12 0
BBX 12 20 0 -4
BITMAP
0000
0000
0000
0000
0000
0000
0fc0
0fe0
0070
0030
3ff0
3ff0
3030
3870
1fe0
0fc0
0000
0000
0000
0000
ENDCHAR
STARTCHAR uni025A
ENCODING 602
SWIDTH 600 0
DWIDTH 12 0
BBX 12 20 0 -4
BITMAP
0000
0000
0000
0000
0000
0000
3c00
3e00
0700
0300
3f30
3f70
33e0
3fc0
1e00
0c00
0000
0000
0000
0000
ENDCHAR
STARTCHAR uni025B
ENCODING 603
SWIDTH 600 0
DWIDTH 12 0
BBX 12 20 0 -4
BITMAP
0000
0000
0000
0000
0000
0000
0ff0
1ff0
3800
3800
1fc0
1fc0
3800
3800
1ff0
0ff0
0000
0000
0000
0000
ENDCHAR
STARTCHAR uni025C
ENCODING 604
SWIDTH 600 0
DWIDTH 12 0
BBX 12 20 0 -4
BITMAP
0000
0000
0000
0000
0000
0000
3fc0
3fe0
0070
0070
0fe0
0fe0
0070
0070
3fe0
3fc0
0000
0000
0000
0000
ENDCHAR
STARTCHAR uni025C.sc
ENCODING -1
SWIDTH 600 0
DWIDTH 12 0
BBX 12 20 0 -4
BITMAP
0000
0000
0000
0000
0000
0000
0fc0
1fe0
3870
3070
03e0
03e0
3070
3870
1fe0
0fc0
0000
0000
0000
0000
ENDCHAR
STARTCHAR uni025D
ENCODING 605
SWIDTH 600 0
DWIDTH 12 0
BBX 12 20 0 -4
BITMAP
0000
0000
0000
0000
0000
0000
3c00
3e00
0700
0700
3e30
3e70
07e0
07c0
3e00
3c00
0000
0000
0000
0000
ENDCHAR
STARTCHAR uni025E
ENCODING 606
SWIDTH 600 0
DWIDTH 12 0
BBX 12 20 0 -4
BITMAP
0000
0000
0000
0000
0000
0000
0fc0
1fe0
3870
3070
33e0
33e0
3070
3870
1fe0
0fc0
0000
0000
0000
0000
ENDCHAR
STARTCHAR uni025F
ENCODING 607
SWIDTH 600 0
DWIDTH 12 0
BBX 12 20 0 -4
BITMAP
0000
0000
0000
0000
0000
0000
0300
0300
0300
0300
0300
0300
0fc0
0fc0
0300
0300
0300
0700
0e00
0c00
ENDCHAR
STARTCHAR uni0260
ENCODING 608
SWIDTH 600 0
DWIDTH 12 0
BBX 12 20 0 -4
BITMAP
0000
0000
0030
0070
00e0
00c0
0fc0
1fc0
38c0
30c0
30c0
30c0
30c0
38c0
1fc0
0fc0
00c0
01c0
0f80
0f00
ENDCHAR
STARTCHAR uni0261
ENCODING 609
SWIDTH 600 0
DWIDTH 12 0
BBX 12 20 0 -4
BITMAP
0000
0000
0000
0000
0000
0000
0ff0
1ff0
3830
3030
3030
3030
3030
3830
1ff0
0ff0
0030
0070
0fe0
0fc0
ENDCHAR
STARTCHAR uni0262
ENCODING 610
SWIDTH 600 0
DWIDTH 12 0
BBX 12 20 0 -4
BITMAP
0000
0000
0000
0000
0000
0000
0ff0
1ff0
3800
3000
30f0
30f0
3030
3830
1ff0
0ff0
0000
0000
0000
0000
ENDCHAR
STARTCHAR uni0263
ENCODING 611
SWIDTH 600 0
DWIDTH 12 0
BBX 12 20 0 -4
BITMAP
0000
0000
0000
0000
0000
0000
3030
3870
1ce0
0cc0
0cc0
0fc0
0780
0780
0fc0
0cc0
0cc0
0fc0
0780
0300
ENDCHAR
STARTCHAR uni0264
ENCODING 612
SWIDTH 600 0
DWIDTH 12 0
BBX 12 20 0 -4
BITMAP
0000
0000
0000
0000
0000
0000
3cf0
3ff0
0780
0780
0fc0
0cc0
0cc0
0fc0
0780
0300
0000
0000
0000
0000
ENDCHAR
STARTCHAR uni0265
ENCODING 613
SWIDTH 600 0
DWIDTH 12 0
BBX 12 20 0 -4
BITMAP
0000
0000
0000
0000
0000
0000
3030
3030
3030
3030
3030
3030
3030
3830
1ff0
0ff0
0030
0030
0030
0030
ENDCHAR
STARTCHAR uni0266
ENCODING 614
SWIDTH 600 0
DWIDTH 12 0
BBX 12 20 0 -4
BITMAP
0000
0000
0f00
1f00
3800
3000
3fc0
3fe0
3070
3030
3030
3030
3030
3030
3030
3030
0000
0000
0000
0000
ENDCHAR
STARTCHAR uni0266.sc
ENCODING -1
SWIDTH 600 0
DWIDTH 12 0
BBX 12 20 0 -4
BITMAP
0000
0000
0000
0000
0000
0000
0c30
0c30
3c30
3c30
0ff0
0ff0
0c30
0c30
0c30
0c30
0000
0000
0000
0000
ENDCHAR
STARTCHAR uni0267
ENCODING 615
SWIDTH 600 0
DWIDTH 12 0
BBX 12 20 0 -4
BITMAP
0000
0000
0f00
1f00
3800
3000
3fc0
3fe0
3070
3030
3030
3030
3030
3030
3030
3030
0030
0070
03e0
03c0
ENDCHAR
STARTCHAR uni0268
ENCODING 616
SWIDTH 600 0
DWIDTH 12 0
BBX 12 20 0 -4
BITMAP
0000
0000
0300
0300
0000
0000
0f00
0f00
0300
0300
0fc0
0fc0
0300
0300
0fc0
0fc0
0000
0000
0000
0000
ENDCHAR
STARTCHAR uni0269
ENCODING 617
SWIDTH 600 0
DWIDTH 12 0
BBX 12 20 0 -4
BITMAP
0000
0000
0000
0000
0000
0000
0f00
0f00
0300
0300
0300
0300
0300
0380
01c0
00c0
0000
0000
0000
0000
ENDCHAR
STARTCHAR uni026A
ENCODING 618
SWIDTH 600 0
DWIDTH 12 0
BBX 12 20 0 -4
BITMAP
0000
0000
0000
0000
0000
0000
0fc0
0fc0
0300
0300
0300
0300
0300
0300
0fc0
0fc0
0000
0000
0000
0000
ENDCHAR
STARTCHAR uni026A.sc
ENCODING -1
SWIDTH 600 0
DWIDTH 12 0
BBX 12 20 0 -4
BITMAP
0000
0000
0000
0000
0000
0000
03c0
07e0
0e70
0c30
3f00
3f00
0c30
0e70
07e0
03c0
0000
0000
0000
0000
ENDCHAR
STARTCHAR uni026B
ENCODING 619
SWIDTH 600 0
DWIDTH 12 0
BBX 12 20 0 -4
BITMAP
0000
0000
0f00
0f00
0300
0300
0f30
1f70
3be0
33c0
0300
0300
0300
0300
0fc0
0fc0
0000
0000
0000
0000
ENDCHAR
STARTCHAR uni026C
ENCODING 620
SWIDTH 600 0
DWIDTH 12 0
BBX 12 20 0 -4
BITMAP
0000
0000
0f00
0f00
0300
0300
0f00
1f00
3b30
3b70
1fe0
0fc0
0300
0300
0fc0
0fc0
0000
0000
0000
0000
ENDCHAR
STARTCHAR uni026C.sc
ENCODING -1
SWIDTH 600 0
DWIDTH 12 0
BBX 12 20 0 -4
BITMAP
0000
0000
0000
0000
0000
0000
0f00
1f00
3b30
3b70
1fe0
0fc0
0300
0300
03f0
03f0
0000
0000
0000
0000
ENDCHAR
STARTCHAR uni026D
ENCODING 621
SWIDTH 600 0
DWIDTH 12 0
BBX 12 20 0 -4
BITMAP
0000
0000
0f00
0f00
0300
0300
0300
0300
0300
0300
0300
0300
0300
0300
0300
0300
0300
0380
01c0
00c0
ENDCHAR
STARTCHAR uni026E
ENCODING 622
SWIDTH 600 0
DWIDTH 12 0
BBX 12 20 0 -4
BITMAP
0000
0000
3c00
3c00
0c00
0c00
0ff0
0ff0
0c30
0c70
0ce0
0ce0
0c70
0c30
3f30
3f30
0030
0070
03e0
03c0
ENDCHAR
STARTCHAR uni026F
ENCODING 623
SWIDTH 600 0
DWIDTH 12 0
BBX 12 20 0 -4
BITMAP
0000
0000
0000
0000
0000
0000
3330
3330
3330
3330
3330
3330
3330
3fb0
1ff0
0cf0
0000
0000
0000
0000
ENDCHAR
STARTCHAR uni0270
ENCODING 624
SWIDTH 600 0
DWIDTH 12 0
BBX 12 20 0 -4
BITMAP
0000
0000
0000
0000
0000
0000
3330
3330
3330
3330
3330
3330
3330
3fb0
1ff0
0cf0
0030
0030
0030
0030
ENDCHAR
STARTCHAR uni0271
ENCODING 625
SWIDTH 600 0
DWIDTH 12 0
BBX 12 20 0 -4
BITMAP
0000
0000
0000
0000
0000
0000
3cc0
3fe0
37f0
3330
3330
3330
3330
3330
3330
3330
0030
0070
00e0
00c0
ENDCHAR
STARTCHAR uni0272
ENCODING 626
SWIDTH 600 0
DWIDTH 12 0
BBX 12 20 0 -4
BITMAP
0000
0000
0000
0000
0000
0000
0fc0
0fe0
0c70
0c30
0c30
0c30
0c30
0c30
0c30
0c30
0c00
1c00
3800
3000
ENDCHAR
STARTCHAR uni0273
ENCODING 627
SWIDTH 600 0
DWIDTH 12 0
BBX 12 20 0 -4
BITMAP
0000
0000
0000
0000
0000
0000
3f00
3f80
31c0
30c0
30c0
30c0
30c0
30c0
30c0
30c0
00c0
00e0
0070
0030
ENDCHAR
STARTCHAR uni0274
ENCODING 628
SWIDTH 600 0
DWIDTH 12 0
BBX 12 20 0 -4
BITMAP
0000
0000
0000
0000
0000
0000
3030
3030
3c30
3e30
3730
33b0
31f0
30f0
3030
3030
0000
0000
0000
0000
ENDCHAR
STARTCHAR uni0275
ENCODING 629
SWIDTH 600 0
DWIDTH 12 0
BBX 12 20 0 -4
BITMAP
0000
0000
0000
0000
0000
0000
0fc0
1fe0
3870
3030
3ff0
3ff0
3030
3870
1fe0
0fc0
0000
0000
0000
0000
ENDCHAR
STARTCHAR uni0276
ENCODING 630
SWIDTH 600 0
DWIDTH 12 0
BBX 12 20 0 -4
BITMAP
0000
0000
0000
0000
0000
0000
0ff0
1ff0
3b00
3300
33f0
33f0
3300
3b00
1ff0
0ff0
0000
0000
0000
0000
ENDCHAR
STARTCHAR uni0277
ENCODING 631
SWIDTH 600 0
DWIDTH 12 0
BBX 12 20 0 -4
BITMAP
0000
0000
0000
0000
0000
0000
0fc0
1fe0
3870
3030
3330
3330
3330
3ff0
1fe0
0cc0
0000
0000
0000
0000
ENDCHAR
STARTCHAR uni0278
ENCODING 632
SWIDTH 600 0
DWIDTH 12 0
BBX 12 20 0 -4
BITMAP
0000
0000
0300
0300
0300
0300
0fc0
1fe0
3b70
3330
3330
3330
3330
3b70
1fe0
0fc0
0300
0300
0300
0300
ENDCHAR
STARTCHAR uni0279
ENCODING 633
SWIDTH 600 0
DWIDTH 12 0
BBX 12 20 0 -4
BITMAP
0000
0000
0000
0000
0000
0000
00c0
00c0
00c0
00c0
00c0
00c0
03c0
07c0
3ec0
3cc0
0000
0000
0000
0000
ENDCHAR
STARTCHAR uni027A
ENCODING 634
SWIDTH 600 0
DWIDTH 12 0
BBX 12 20 0 -4
BITMAP
0000
0000
00c0
00c0
00c0
00c0
00c0
00c0
00c0
00c0
00c0
00c0
03c0
07c0
3ec0
3cc0
0000
0000
0000
0000
ENDCHAR
STARTCHAR uni027B
ENCODING 635
SWIDTH 600 0
DWIDTH 12 0
BBX 12 20 0 -4
BITMAP
0000
0000
0000
0000
0000
0000
00c0
00c0
00c0
00c0
00c0
00c0
03c0
07c0
3ec0
3cc0
00c0
00e0
0070
0030
ENDCHAR
STARTCHAR uni027C
ENCODING 636
SWIDTH 600 0
DWIDTH 12 0
BBX 12 20 0 -4
BITMAP
0000
0000
0000
0000
0000
0000
0cf0
0df0
0f80
0f00
0c00
0c00
0c00
0c00
0c00
0c00
0c00
0c00
0c00
0c00
ENDCHAR
STARTCHAR uni027D
ENCODING 637
SWIDTH 600 0
DWIDTH 12 0
BBX 12 20 0 -4
BITMAP
0000
0000
0000
0000
0000
0000
0cf0
0df0
0f80
0f00
0c00
0c00
0c00
0c00
0c00
0c00
0c00
0e00
0700
0300
ENDCHAR
STARTCHAR uni027E
ENCODING 638
SWIDTH 600 0
DWIDTH 12 0
BBX 12 20 0 -4
BITMAP
0000
0000
0000
0000
0000
0000
03c0
07e0
0e70
0c30
0c00
0c00
0c00
0c00
0c00
0c00
0000
0000
0000
0000
ENDCHAR
STARTCHAR uni0280
ENCODING 640
SWIDTH 600 0
DWIDTH 12 0
BBX 12 20 0 -4
BITMAP
0000
0000
0000
0000
0000
0000
3fc0
3fe0
3070
3070
3fe0
3fc0
30c0
30e0
3070
3030
0000
0000
0000
0000
ENDCHAR
STARTCHAR uni0281
ENCODING 641
SWIDTH 600 0
DWIDTH 12 0
BBX 12 20 0 -4
BITMAP
0000
0000
0000
0000
0000
0000
3030
3070
30e0
30c0
3fc0
3fe0
3070
3070
3fe0
3fc0
0000
0000
0000
0000
ENDCHAR
STARTCHAR uni0282
ENCODING 642
SWIDTH 600 0
DWIDTH 12 0
BBX 12 20 0 -4
BITMAP
0000
0000
0000
0000
0000
0000
0ff0
1ff0
3800
3800
1fc0
0fe0
0070
0070
3fe0
3fc0
3000
3800
1c00
0c00
ENDCHAR
STARTCHAR uni0283
ENCODING 643
SWIDTH 600 0
DWIDTH 12 0
BBX 12 20 0 -4
BITMAP
0000
0000
00c0
01c0
0380
0300
0300
0300
0300
0300
0300
0300
0300
0300
0300
0300
0300
0700
0e00
0c00
ENDCHAR
STARTCHAR uni0284
ENCODING 644
SWIDTH 600 0
DWIDTH 12 0
BBX 12 20 0 -4
BITMAP
0000
0000
00c0
01c0
0380
0300
0300
0300
0300
0300
0300
0300
0fc0
0fc0
0300
0300
0300
0700
0e00
0c00
ENDCHAR
STARTCHAR uni0286
ENCODING 646
SWIDTH 600 0
DWIDTH 12 0
BBX 12 20 0 -4
BITMAP
0000
0000
00c0
01c0
0380
0300
0300
0300
0300
0300
0300
0300
0fc0
1fc0
3b00
3300
3300
3f00
1e00
0c00
ENDCHAR
STARTCHAR uni0287
ENCODING 647
SWIDTH 600 0
DWIDTH 12 0
BBX 12 20 0 -4
BITMAP
0000
0000
0000
0000
0000
0000
0c00
0e00
0700
0300
0300
0300
0300
0300
0fc0
0fc0
0300
0300
0300
0300
ENDCHAR
STARTCHAR uni0287.small
ENCODING 62021
SWIDTH 600 0
DWIDTH 12 0
BBX 12 20 0 -4
BITMAP
0000
0000
0000
0000
0000
0000
0c00
0e00
0700
0300
0300
0300
0300
0300
0fc0
0fc0
0300
0300
0000
0000
ENDCHAR
STARTCHAR uni0287.sc
ENCODING -1
SWIDTH 600 0
DWIDTH 12 0
BBX 12 20 0 -4
BITMAP
0000
0000
0000
0000
0000
0000
0300
0300
0300
0300
0300
0300
0300
0300
3ff0
3ff0
0000
0000
0000
0000
ENDCHAR
STARTCHAR uni0288
ENCODING 648
SWIDTH 600 0
DWIDTH 12 0
BBX 12 20 0 -4
BITMAP
0000
0000
0300
0300
0300
0300
0fc0
0fc0
0300
0300
0300
0300
0300
0300
0300
0300
0300
0380
01c0
00c0
ENDCHAR
STARTCHAR uni0288.small
ENCODING 62022
SWIDTH 600 0
DWIDTH 12 0
BBX 12 20 0 -4
BITMAP
0000
0000
0000
0000
0300
0300
0fc0
0fc0
0300
0300
0300
0300
0300
0300
0300
0300
0300
0380
01c0
00c0
ENDCHAR
STARTCHAR uni0289
ENCODING 649
SWIDTH 600 0
DWIDTH 12 0
BBX 12 20 0 -4
BITMAP
0000
0000
0000
0000
0000
0000
0cc0
0cc0
3ff0
3ff0
0cc0
0cc0
0cc0
0ec0
07c0
03c0
0000
0000
0000
0000
ENDCHAR
STARTCHAR uni028A
ENCODING 650
SWIDTH 600 0
DWIDTH 12 0
BBX 12 20 0 -4
BITMAP
0000
0000
0000
0000
0000
0000
3cf0
3cf0
0cc0
1ce0
3870
3030
3030
3870
1fe0
0fc0
0000
0000
0000
0000
ENDCHAR
STARTCHAR uni028B
ENCODING 651
SWIDTH 600 0
DWIDTH 12 0
BBX 12 20 0 -4
BITMAP
0000
0000
0000
0000
0000
0000
3cc0
3ce0
0c70
0c30
0c30
0c70
0ce0
0dc0
0f80
0f00
0000
0000
0000
0000
ENDCHAR
STARTCHAR uni028C
ENCODING 652
SWIDTH 600 0
DWIDTH 12 0
BBX 12 20 0 -4
BITMAP
0000
0000
0000
0000
0000
0000
0300
0780
0fc0
0cc0
0cc0
1ce0
3870
3030
3030
3030
0000
0000
0000
0000
ENDCHAR
STARTCHAR uni028D
ENCODING 653
SWIDTH 600 0
DWIDTH 12 0
BBX 12 20 0 -4
BITMAP
0000
0000
0000
0000
0000
0000
0cc0
1fe0
3ff0
3330
3330
3330
3030
3030
3030
3030
0000
0000
0000
0000
ENDCHAR
STARTCHAR uni028E
ENCODING 654
SWIDTH 600 0
DWIDTH 12 0
BBX 12 20 0 -4
BITMAP
0000
0000
0fc0
1fc0
3800
3000
3f00
3f80
31c0
30e0
3070
3030
3030
3030
3030
3030
0000
0000
0000
0000
ENDCHAR
STARTCHAR uni028F
ENCODING 655
SWIDTH 600 0
DWIDTH 12 0
BBX 12 20 0 -4
BITMAP
0000
0000
0000
0000
0000
0000
3030
3870
1ce0
0fc0
0780
0300
0300
0300
0300
0300
0000
0000
0000
0000
ENDCHAR
STARTCHAR uni0290
ENCODING 656
SWIDTH 600 0
DWIDTH 12 0
BBX 12 20 0 -4
BITMAP
0000
0000
0000
0000
0000
0000
3fc0
3fc0
0300
0700
0e00
1c00
3800
3000
3fc0
3fc0
00c0
00e0
0070
0030
ENDCHAR
STARTCHAR uni0291
ENCODING 657
SWIDTH 600 0
DWIDTH 12 0
BBX 12 20 0 -4
BITMAP
0000
0000
0000
0000
0000
0000
3ff0
3ff0
00c0
01c0
0380
0700
0e00
0c00
3fc0
3fe0
0370
03f0
01e0
00c0
ENDCHAR
STARTCHAR uni0292
ENCODING 658
SWIDTH 600 0
DWIDTH 12 0
BBX 12 20 0 -4
BITMAP
0000
0000
0000
0000
0000
0000
3ff0
3ff0
00c0
01c0
0380
0300
0fc0
0fe0
0070
0030
3030
3870
1fe0
0fc0
ENDCHAR
STARTCHAR uni0293
ENCODING 659
SWIDTH 600 0
DWIDTH 12 0
BBX 12 20 0 -4
BITMAP
0000
0000
0000
0000
0000
0000
3ff0
3ff0
00c0
01c0
0380
0380
01c0
00e0
0c70
1e30
3f30
3b70
1fe0
0fc0
ENDCHAR
STARTCHAR uni0294
ENCODING 660
SWIDTH 600 0
DWIDTH 12 0
BBX 12 20 0 -4
BITMAP
0000
0000
0fc0
1fe0
3870
3030
0030
0070
03e0
03c0
0300
0300
0300
0300
0300
0300
0000
0000
0000
0000
ENDCHAR
STARTCHAR uni0295
ENCODING 661
SWIDTH 600 0
DWIDTH 12 0
BBX 12 20 0 -4
BITMAP
0000
0000
0fc0
1fe0
3870
3030
3000
3800
1f00
0f00
0300
0300
0300
0300
0300
0300
0000
0000
0000
0000
ENDCHAR
STARTCHAR uni0296
ENCODING 662
SWIDTH 600 0
DWIDTH 12 0
BBX 12 20 0 -4
BITMAP
0000
0000
0300
0300
0300
0300
0300
0300
03c0
03e0
0070
0030
3030
3870
1fe0
0fc0
0000
0000
0000
0000
ENDCHAR
STARTCHAR uni0297
ENCODING 663
SWIDTH 600 0
DWIDTH 12 0
BBX 12 20 0 -4
BITMAP
0000
0000
0fc0
1fe0
3870
3030
3000
3000
3000
3000
3000
3000
3000
3000
3000
3000
3030
3870
1fe0
0fc0
ENDCHAR
STARTCHAR uni0298
ENCODING 664
SWIDTH 600 0
DWIDTH 12 0
BBX 12 20 0 -4
BITMAP
0000
0000
0fc0
1fe0
3870
3030
3030
3030
3330
3330
3030
3030
3030
3870
1fe0
0fc0
0000
0000
0000
0000
ENDCHAR
STARTCHAR uni0299
ENCODING 665
SWIDTH 600 0
DWIDTH 12 0
BBX 12 20 0 -4
BITMAP
0000
0000
0000
0000
0000
0000
3fc0
3fe0
3070
3070
3fe0
3fe0
3070
3070
3fe0
3fc0
0000
0000
0000
0000
ENDCHAR
STARTCHAR uni029A
ENCODING 666
SWIDTH 600 0
DWIDTH 12 0
BBX 12 20 0 -4
BITMAP
0000
0000
0000
0000
0000
0000
0fc0
1fe0
3870
3830
1f30
1f30
3830
3870
1fe0
0fc0
0000
0000
0000
0000
ENDCHAR
STARTCHAR uni029B
ENCODING 667
SWIDTH 600 0
DWIDTH 12 0
BBX 12 20 0 -4
BITMAP
0000
0000
0030
0070
00e0
00c0
0fc0
1fc0
3800
3000
33c0
33c0
30c0
38c0
1fc0
0fc0
0000
0000
0000
0000
ENDCHAR
STARTCHAR uni029C
ENCODING 668
SWIDTH 600 0
DWIDTH 12 0
BBX 12 20 0 -4
BITMAP
0000
0000
0000
0000
0000
0000
3030
3030
3030
3030
3ff0
3ff0
3030
3030
3030
3030
0000
0000
0000
0000
ENDCHAR
STARTCHAR uni029D
ENCODING 669
SWIDTH 600 0
DWIDTH 12 0
BBX 12 20 0 -4
BITMAP
0000
0000
0300
0300
0000
0000
0300
0300
0300
0300
0300
0300
0fc0
1fc0
3b00
3300
3300
3f00
1e00
0c00
ENDCHAR
STARTCHAR uni029D.serif
ENCODING 61998
SWIDTH 600 0
DWIDTH 12 0
BBX 12 20 0 -4
BITMAP
0000
0000
0300
0300
0000
0000
0f00
0f00
0300
0300
0300
0300
0fc0
1fc0
3b00
3300
3300
3f00
1e00
0c00
ENDCHAR
STARTCHAR uni029D.sc
ENCODING -1
SWIDTH 600 0
DWIDTH 12 0
BBX 12 20 0 -4
BITMAP
0000
0000
0000
0000
0000
0000
0030
0030
0030
0030
0c30
1e30
3f30
3b70
1fe0
0fc0
0300
0300
0000
0000
ENDCHAR
STARTCHAR uni029E
ENCODING 670
SWIDTH 600 0
DWIDTH 12 0
BBX 12 20 0 -4
BITMAP
0000
0000
0000
0000
0000
0000
30c0
38c0
1cc0
0ec0
07c0
07c0
0ec0
1cc0
38c0
30c0
00c0
00c0
00c0
00c0
ENDCHAR
STARTCHAR uni029E.sc
ENCODING -1
SWIDTH 600 0
DWIDTH 12 0
BBX 12 20 0 -4
BITMAP
0000
0000
0000
0000
0000
0000
3030
3830
1c30
0e30
07f0
07f0
0e30
1c30
3830
3030
0000
0000
0000
0000
ENDCHAR
STARTCHAR uni029F
ENCODING 671
SWIDTH 600 0
DWIDTH 12 0
BBX 12 20 0 -4
BITMAP
0000
0000
0000
0000
0000
0000
3000
3000
3000
3000
3000
3000
3000
3000
3ff0
3ff0
0000
0000
0000
0000
ENDCHAR
STARTCHAR uni029F.narrow
ENCODING 61977
SWIDTH 600 0
DWIDTH 12 0
BBX 12 20 0 -4
BITMAP
0000
0000
0000
0000
0000
0000
0c00
0c00
0c00
0c00
0c00
0c00
0c00
0c00
0ff0
0ff0
0000
0000
0000
0000
ENDCHAR
STARTCHAR uni02A0
ENCODING 672
SWIDTH 600 0
DWIDTH 12 0
BBX 12 20 0 -4
BITMAP
0000
0000
03c0
03e0
0070
0030
0ff0
1ff0
3830
3030
3030
3030
3030
3830
1ff0
0ff0
0030
0030
0030
0030
ENDCHAR
STARTCHAR uni02A1
ENCODING 673
SWIDTH 600 0
DWIDTH 12 0
BBX 12 20 0 -4
BITMAP
0000
0000
0fc0
1fe0
3870
3030
0030
0070
03e0
03c0
0300
0300
0fc0
0fc0
0300
0300
0000
0000
0000
0000
ENDCHAR
STARTCHAR uni02A2
ENCODING 674
SWIDTH 600 0
DWIDTH 12 0
BBX 12 20 0 -4
BITMAP
0000
0000
0fc0
1fe0
3870
3030
3000
3800
1f00
0f00
0300
0300
0fc0
0fc0
0300
0300
0000
0000
0000
0000
ENDCHAR
STARTCHAR uni02A3
ENCODING 675
SWIDTH 600 0
DWIDTH 12 0
BBX 12 20 0 -4
BITMAP
0000
0000
0300
0300
0300
0300
0ff0
1ff0
3b30
3370
33e0
33c0
33c0
3bc0
1ff0
0ff0
0000
0000
0000
0000
ENDCHAR
STARTCHAR uni02A4
ENCODING 676
SWIDTH 600 0
DWIDTH 12 0
BBX 12 20 0 -4
BITMAP
0000
0000
0300
0300
0300
0300
0ff0
1ff0
3b30
3370
33e0
33e0
3370
3b30
1f30
0f30
0030
0070
03e0
03c0
ENDCHAR
STARTCHAR uni02A5
ENCODING 677
SWIDTH 600 0
DWIDTH 12 0
BBX 12 20 0 -4
BITMAP
0000
0000
0300
0300
0300
0300
0ff0
1ff0
3b30
3370
33e0
33c0
33c0
3bc0
1ff0
0ff0
0330
03f0
01e0
00c0
ENDCHAR
STARTCHAR uni02A6
ENCODING 678
SWIDTH 600 0
DWIDTH 12 0
BBX 12 20 0 -4
BITMAP
0000
0000
3000
3000
3000
3000
3ff0
3ff0
3300
3380
31c0
30e0
3070
3870
1fe0
0fc0
0000
0000
0000
0000
ENDCHAR
STARTCHAR uni02A6.small
ENCODING 62023
SWIDTH 600 0
DWIDTH 12 0
BBX 12 20 0 -4
BITMAP
0000
0000
0000
0000
3000
3000
3ff0
3ff0
3300
3380
31c0
30e0
3070
3870
1fe0
0fc0
0000
0000
0000
0000
ENDCHAR
STARTCHAR uni02A7
ENCODING 679
SWIDTH 600 0
DWIDTH 12 0
BBX 12 20 0 -4
BITMAP
0000
0000
0c30
0c70
0ce0
0cc0
3fc0
3fc0
0cc0
0cc0
0cc0
0cc0
0cc0
0ec0
07c0
03c0
00c0
01c0
0380
0300
ENDCHAR
STARTCHAR uni02A7.small
ENCODING 62024
SWIDTH 600 0
DWIDTH 12 0
BBX 12 20 0 -4
BITMAP
0000
0000
0030
0070
0ce0
0cc0
3fc0
3fc0
0cc0
0cc0
0cc0
0cc0
0cc0
0ec0
07c0
03c0
00c0
01c0
0380
0300
ENDCHAR
STARTCHAR uni02A8
ENCODING 680
SWIDTH 600 0
DWIDTH 12 0
BBX 12 20 0 -4
BITMAP
0000
0000
3000
3000
3c00
3c00
30f0
31f0
3380
3300
3300
3300
3300
3b00
1fc0
0fe0
0370
03f0
01e0
00c0
ENDCHAR
STARTCHAR uni02A9
ENCODING 681
SWIDTH 600 0
DWIDTH 12 0
BBX 12 20 0 -4
BITMAP
0000
0000
0c00
1c00
3800
3000
3000
3000
3fc0
3fe0
3370
3330
3330
3330
3330
3330
0030
0070
03e0
03c0
ENDCHAR
STARTCHAR uni02AA
ENCODING 682
SWIDTH 600 0
DWIDTH 12 0
BBX 12 20 0 -4
BITMAP
0000
0000
3c00
3c00
0c00
0c00
0cf0
0df0
0f80
0f80
0dc0
0ce0
0c70
0c70
3fe0
3fc0
0000
0000
0000
0000
ENDCHAR
STARTCHAR uni02AB
ENCODING 683
SWIDTH 600 0
DWIDTH 12 0
BBX 12 20 0 -4
BITMAP
0000
0000
3c00
3c00
0c00
0c00
0ff0
0ff0
0c30
0c70
0ce0
0dc0
0f80
0f00
3ff0
3ff0
0000
0000
0000
0000
ENDCHAR
STARTCHAR uni02AC
ENCODING 684
SWIDTH 600 0
DWIDTH 12 0
BBX 12 20 0 -4
BITMAP
0000
0000
0000
0000
0000
0000
3330
3ff0
1fe0
0cc0
0000
0000
3330
3ff0
1fe0
0cc0
0000
0000
0000
0000
ENDCHAR
STARTCHAR uni02AD
ENCODING 685
SWIDTH 600 0
DWIDTH 12 0
BBX 12 20 0 -4
BITMAP
0000
0000
0000
0000
0000
0000
0fc0
0fc0
0cc0
0cc0
0000
0000
0fc0
0fc0
0cc0
0cc0
0000
0000
0000
0000
ENDCHAR
STARTCHAR uni02B0
ENCODING 688
SWIDTH 600 0
DWIDTH 12 0
BBX 12 20 0 -4
BITMAP
0000
0000
3000
3000
3000
3000
3c00
3e00
3700
3300
3300
3300
0000
0000
0000
0000
0000
0000
0000
0000
ENDCHAR
STARTCHAR uni02B2
ENCODING 690
SWIDTH 600 0
DWIDTH 12 0
BBX 12 20 0 -4
BITMAP
0000
0000
0c00
0c00
0000
0000
0c00
0c00
0c00
0c00
0c00
1c00
3800
3000
0000
0000
0000
0000
0000
0000
ENDCHAR
STARTCHAR uni02B9
ENCODING 697
SWIDTH 600 0
DWIDTH 12 0
BBX 12 20 0 -4
BITMAP
0000
0000
0c00
0c00
0c00
1c00
3800
3000
3000
3000
0000
0000
0000
0000
0000
0000
0000
0000
0000
0000
ENDCHAR
STARTCHAR uni02BA
ENCODING 698
SWIDTH 600 0
DWIDTH 12 0
BBX 12 20 0 -4
BITMAP
0000
0000
0c30
0c30
0c30
1c70
38e0
30c0
30c0
30c0
0000
0000
0000
0000
0000
0000
0000
0000
0000
0000
ENDCHAR
STARTCHAR uni02BC
ENCODING 700
SWIDTH 600 0
DWIDTH 12 0
BBX 12 20 0 -4
BITMAP
0000
0000
0300
0300
0300
0700
0e00
0c00
0000
0000
0000
0000
0000
0000
0000
0000
0000
0000
0000
0000
ENDCHAR
STARTCHAR circumflex
ENCODING 710
SWIDTH 600 0
DWIDTH 12 0
BBX 12 20 0 -4
BITMAP
0000
0000
0300
0780
0fc0
0cc0
0000
0000
0000
0000
0000
0000
0000
0000
0000
0000
0000
0000
0000
0000
ENDCHAR
STARTCHAR caron
ENCODING 711
SWIDTH 600 0
DWIDTH 12 0
BBX 12 20 0 -4
BITMAP
0000
0000
0cc0
0fc0
0780
0300
0000
0000
0000
0000
0000
0000
0000
0000
0000
0000
0000
0000
0000
0000
ENDCHAR
STARTCHAR uni02C8
ENCODING 712
SWIDTH 600 0
DWIDTH 12 0
BBX 12 20 0 -4
BITMAP
0000
0000
0300
0300
0300
0300
0300
0300
0000
0000
0000
0000
0000
0000
0000
0000
0000
0000
0000
0000
ENDCHAR
STARTCHAR uni02C9
ENCODING 713
SWIDTH 600 0
DWIDTH 12 0
BBX 12 20 0 -4
BITMAP
0000
0000
0fc0
0fc0
0000
0000
0000
0000
0000
0000
0000
0000
0000
0000
0000
0000
0000
0000
0000
0000
ENDCHAR
STARTCHAR uni02CA
ENCODING 714
SWIDTH 600 0
DWIDTH 12 0
BBX 12 20 0 -4
BITMAP
0000
0000
00c0
01c0
0380
0300
0000
0000
0000
0000
0000
0000
0000
0000
0000
0000
0000
0000
0000
0000
ENDCHAR
STARTCHAR uni02CB
ENCODING 715
SWIDTH 600 0
DWIDTH 12 0
BBX 12 20 0 -4
BITMAP
0000
0000
0c00
0e00
0700
0300
0000
0000
0000
0000
0000
0000
0000
0000
0000
0000
0000
0000
0000
0000
ENDCHAR
STARTCHAR uni02CC
ENCODING 716
SWIDTH 600 0
DWIDTH 12 0
BBX 12 20 0 -4
BITMAP
0000
0000
0000
0000
0000
0000
0000
0000
0000
0000
0000
0000
0000
0000
0300
0300
0300
0300
0300
0300
ENDCHAR
STARTCHAR uni02CD
ENCODING 717
SWIDTH 600 0
DWIDTH 12 0
BBX 12 20 0 -4
BITMAP
0000
0000
0000
0000
0000
0000
0000
0000
0000
0000
0000
0000
0000
0000
0000
0000
0000
0000
0fc0
0fc0
ENDCHAR
STARTCHAR uni02CE
ENCODING 718
SWIDTH 600 0
DWIDTH 12 0
BBX 12 20 0 -4
BITMAP
0000
0000
0000
0000
0000
0000
0000
0000
0000
0000
0000
0000
0000
0000
0000
0000
0300
0380
01c0
00c0
ENDCHAR
STARTCHAR uni02CF
ENCODING 719
SWIDTH 600 0
DWIDTH 12 0
BBX 12 20 0 -4
BITMAP
0000
0000
0000
0000
0000
0000
0000
0000
0000
0000
0000
0000
0000
0000
0000
0000
0300
0700
0e00
0c00
ENDCHAR
STARTCHAR uni02D0
ENCODING 720
SWIDTH 600 0
DWIDTH 12 0
BBX 12 20 0 -4
BITMAP
0000
0000
0000
0000
0000
0000
0cc0
0fc0
0780
0300
0000
0000
0300
0780
0fc0
0cc0
0000
0000
0000
0000
ENDCHAR
STARTCHAR uni02D1
ENCODING 721
SWIDTH 600 0
DWIDTH 12 0
BBX 12 20 0 -4
BITMAP
0000
0000
0000
0000
0000
0000
0cc0
0fc0
0780
0300
0000
0000
0000
0000
0000
0000
0000
0000
0000
0000
ENDCHAR
STARTCHAR breve
ENCODING 728
SWIDTH 600 0
DWIDTH 12 0
BBX 12 20 0 -4
BITMAP
0000
0000
3030
3870
1fe0
0fc0
0000
0000
0000
0000
0000
0000
0000
0000
0000
0000
0000
0000
0000
0000
ENDCHAR
STARTCHAR dotaccent
ENCODING 729
SWIDTH 600 0
DWIDTH 12 0
BBX 12 20 0 -4
BITMAP
0000
0000
0300
0300
0000
0000
0000
0000
0000
0000
0000
0000
0000
0000
0000
0000
0000
0000
0000
0000
ENDCHAR
STARTCHAR ring
ENCODING 730
SWIDTH 600 0
DWIDTH 12 0
BBX 12 20 0 -4
BITMAP
0000
0000
0300
0780
0fc0
0fc0
0780
0300
0000
0000
0000
0000
0000
0000
0000
0000
0000
0000
0000
0000
ENDCHAR
STARTCHAR ogonek
ENCODING 731
SWIDTH 600 0
DWIDTH 12 0
BBX 12 20 0 -4
BITMAP
0000
0000
0000
0000
0000
0000
0000
0000
0000
0000
0000
0000
0000
0000
0300
0700
0e00
0e00
0700
0300
ENDCHAR
STARTCHAR tilde
ENCODING 732
SWIDTH 600 0
DWIDTH 12 0
BBX 12 20 0 -4
BITMAP
0000
0000
0330
07f0
0fe0
0cc0
0000
0000
0000
0000
0000
0000
0000
0000
0000
0000
0000
0000
0000
0000
ENDCHAR
STARTCHAR hungarumlaut
ENCODING 733
SWIDTH 600 0
DWIDTH 12 0
BBX 12 20 0 -4
BITMAP
0000
0000
0c30
1c70
38e0
30c0
0000
0000
0000
0000
0000
0000
0000
0000
0000
0000
0000
0000
0000
0000
ENDCHAR
STARTCHAR uni02E0
ENCODING 736
SWIDTH 600 0
DWIDTH 12 0
BBX 12 20 0 -4
BITMAP
0000
0000
3300
3f00
1e00
1e00
3f00
3300
3300
3f00
1e00
0c00
0000
0000
0000
0000
0000
0000
0000
0000
ENDCHAR
STARTCHAR uni02E1
ENCODING 737
SWIDTH 600 0
DWIDTH 12 0
BBX 12 20 0 -4
BITMAP
0000
0000
3c00
3c00
0c00
0c00
0c00
0c00
0c00
0c00
3f00
3f00
0000
0000
0000
0000
0000
0000
0000
0000
ENDCHAR
STARTCHAR uni02E2
ENCODING 738
SWIDTH 600 0
DWIDTH 12 0
BBX 12 20 0 -4
BITMAP
0000
0000
0000
0000
0000
0000
0f00
0f00
0c00
0c00
3c00
3c00
0000
0000
0000
0000
0000
0000
0000
0000
ENDCHAR
STARTCHAR uni02E3
ENCODING 739
SWIDTH 600 0
DWIDTH 12 0
BBX 12 20 0 -4
BITMAP
0000
0000
0000
0000
0000
0000
3300
3f00
1e00
1e00
3f00
3300
0000
0000
0000
0000
0000
0000
0000
0000
ENDCHAR
STARTCHAR uni02E4
ENCODING 740
SWIDTH 600 0
DWIDTH 12 0
BBX 12 20 0 -4
BITMAP
0000
0000
0c00
1e00
3f00
3300
3000
3800
1c00
0c00
0c00
0c00
0000
0000
0000
0000
0000
0000
0000
0000
ENDCHAR
STARTCHAR uni02E5
ENCODING 741
SWIDTH 600 0
DWIDTH 12 0
BBX 12 20 0 -4
BITMAP
0000
0000
3ff0
3ff0
0030
0030
0030
0030
0030
0030
0030
0030
0030
0030
0030
0030
0000
0000
0000
0000
ENDCHAR
STARTCHAR uni02E6
ENCODING 742
SWIDTH 600 0
DWIDTH 12 0
BBX 12 20 0 -4
BITMAP
0000
0000
0030
0030
3ff0
3ff0
0030
0030
0030
0030
0030
0030
0030
0030
0030
0030
0000
0000
0000
0000
ENDCHAR
STARTCHAR uni02E7
ENCODING 743
SWIDTH 600 0
DWIDTH 12 0
BBX 12 20 0 -4
BITMAP
0000
0000
0030
0030
0030
0030
0030
0030
3ff0
3ff0
0030
0030
0030
0030
0030
0030
0000
0000
0000
0000
ENDCHAR
STARTCHAR uni02E8
ENCODING 744
SWIDTH 600 0
DWIDTH 12 0
BBX 12 20 0 -4
BITMAP
0000
0000
0030
0030
0030
0030
0030
0030
0030
0030
0030
0030
3ff0
3ff0
0030
0030
0000
0000
0000
0000
ENDCHAR
STARTCHAR uni02E9
ENCODING 745
SWIDTH 600 0
DWIDTH 12 0
BBX 12 20 0 -4
BITMAP
0000
0000
0030
0030
0030
0030
0030
0030
0030
0030
0030
0030
0030
0030
3ff0
3ff0
0000
0000
0000
0000
ENDCHAR
STARTCHAR uni0374
ENCODING 884
SWIDTH 600 0
DWIDTH 12 0
BBX 12 20 0 -4
BITMAP
0000
0000
0c00
0c00
0c00
1c00
3800
3000
3000
3000
0000
0000
0000
0000
0000
0000
0000
0000
0000
0000
ENDCHAR
STARTCHAR uni037F
ENCODING 895
SWIDTH 600 0
DWIDTH 12 0
BBX 12 20 0 -4
BITMAP
0000
0000
0030
0030
0030
0030
0030
0030
0030
0030
0030
0030
3030
3870
1fe0
0fc0
0000
0000
0000
0000
ENDCHAR
STARTCHAR tonos
ENCODING 900
SWIDTH 600 0
DWIDTH 12 0
BBX 12 20 0 -4
BITMAP
0000
0000
0300
0300
0000
0000
0000
0000
0000
0000
0000
0000
0000
0000
0000
0000
0000
0000
0000
0000
ENDCHAR
STARTCHAR dieresistonos
ENCODING 901
SWIDTH 600 0
DWIDTH 12 0
BBX 12 20 0 -4
BITMAP
0000
0000
0300
0300
3330
3330
0000
0000
0000
0000
0000
0000
0000
0000
0000
0000
0000
0000
0000
0000
ENDCHAR
STARTCHAR Alphatonos
ENCODING 902
SWIDTH 600 0
DWIDTH 12 0
BBX 12 20 0 -4
BITMAP
0000
0000
30c0
31e0
33f0
3330
0330
0330
0330
0330
03f0
03f0
0330
0330
0330
0330
0000
0000
0000
0000
ENDCHAR
STARTCHAR Epsilontonos
ENCODING 904
SWIDTH 600 0
DWIDTH 12 0
BBX 12 20 0 -4
BITMAP
0000
0000
33f0
33f0
3300
3300
0300
0300
03c0
03c0
0300
0300
0300
0300
03f0
03f0
0000
0000
0000
0000
ENDCHAR
STARTCHAR Etatonos
ENCODING 905
SWIDTH 600 0
DWIDTH 12 0
BBX 12 20 0 -4
BITMAP
0000
0000
3330
3330
3330
3330
0330
0330
03f0
03f0
0330
0330
0330
0330
0330
0330
0000
0000
0000
0000
ENDCHAR
STARTCHAR Iotatonos
ENCODING 906
SWIDTH 600 0
DWIDTH 12 0
BBX 12 20 0 -4
BITMAP
0000
0000
33f0
33f0
30c0
30c0
00c0
00c0
00c0
00c0
00c0
00c0
00c0
00c0
03f0
03f0
0000
0000
0000
0000
ENDCHAR
STARTCHAR Omicrontonos
ENCODING 908
SWIDTH 600 0
DWIDTH 12 0
BBX 12 20 0 -4
BITMAP
0000
0000
30c0
31e0
33f0
3330
0330
0330
0330
0330
0330
0330
0330
03f0
01e0
00c0
0000
0000
0000
0000
ENDCHAR
STARTCHAR Upsilontonos
ENCODING 910
SWIDTH 600 0
DWIDTH 12 0
BBX 12 20 0 -4
BITMAP
0000
0000
3330
3330
3330
3330
0330
03f0
01e0
00c0
00c0
00c0
00c0
00c0
00c0
00c0
0000
0000
0000
0000
ENDCHAR
STARTCHAR Omegatonos
ENCODING 911
SWIDTH 600 0
DWIDTH 12 0
BBX 12 20 0 -4
BITMAP
0000
0000
30c0
31e0
33f0
3330
0330
0330
0330
0330
0330
03f0
01e0
00c0
03f0
03f0
0000
0000
0000
0000
ENDCHAR
STARTCHAR iotadieresistonos
ENCODING 912
SWIDTH 600 0
DWIDTH 12 0
BBX 12 20 0 -4
BITMAP
0000
0000
0300
0300
3330
3330
0000
0000
0f00
0f00
0300
0300
0300
0380
01c0
00c0
0000
0000
0000
0000
ENDCHAR
STARTCHAR Alpha
ENCODING 913
SWIDTH 600 0
DWIDTH 12 0
BBX 12 20 0 -4
BITMAP
0000
0000
0300
0780
0fc0
1ce0
3870
3030
3030
3030
3ff0
3ff0
3030
3030
3030
3030
0000
0000
0000
0000
ENDCHAR
STARTCHAR Beta
ENCODING 914
SWIDTH 600 0
DWIDTH 12 0
BBX 12 20 0 -4
BITMAP
0000
0000
3fc0
3fe0
3070
3030
3030
3070
3fe0
3fe0
3070
3030
3030
3070
3fe0
3fc0
0000
0000
0000
0000
ENDCHAR
STARTCHAR Gamma
ENCODING 915
SWIDTH 600 0
DWIDTH 12 0
BBX 12 20 0 -4
BITMAP
0000
0000
3ff0
3ff0
3000
3000
3000
3000
3000
3000
3000
3000
3000
3000
3000
3000
0000
0000
0000
0000
ENDCHAR
STARTCHAR uni0394
ENCODING 916
SWIDTH 600 0
DWIDTH 12 0
BBX 12 20 0 -4
BITMAP
0000
0000
0300
0300
0300
0780
0fc0
0cc0
0cc0
1ce0
3870
3030
3030
3030
3ff0
3ff0
0000
0000
0000
0000
ENDCHAR
STARTCHAR Epsilon
ENCODING 917
SWIDTH 600 0
DWIDTH 12 0
BBX 12 20 0 -4
BITMAP
0000
0000
3ff0
3ff0
3000
3000
3000
3000
3fc0
3fc0
3000
3000
3000
3000
3ff0
3ff0
0000
0000
0000
0000
ENDCHAR
STARTCHAR Zeta
ENCODING 918
SWIDTH 600 0
DWIDTH 12 0
BBX 12 20 0 -4
BITMAP
0000
0000
3ff0
3ff0
0030
0070
00e0
01c0
0380
0700
0e00
1c00
3800
3000
3ff0
3ff0
0000
0000
0000
0000
ENDCHAR
STARTCHAR Eta
ENCODING 919
SWIDTH 600 0
DWIDTH 12 0
BBX 12 20 0 -4
BITMAP
0000
0000
3030
3030
3030
3030
3030
3030
3ff0
3ff0
3030
3030
3030
3030
3030
3030
0000
0000
0000
0000
ENDCHAR
STARTCHAR Theta
ENCODING 920
SWIDTH 600 0
DWIDTH 12 0
BBX 12 20 0 -4
BITMAP
0000
0000
0fc0
1fe0
3870
3030
3030
3030
3ff0
3ff0
3030
3030
3030
3870
1fe0
0fc0
0000
0000
0000
0000
ENDCHAR
STARTCHAR Iota
ENCODING 921
SWIDTH 600 0
DWIDTH 12 0
BBX 12 20 0 -4
BITMAP
0000
0000
0fc0
0fc0
0300
0300
0300
0300
0300
0300
0300
0300
0300
0300
0fc0
0fc0
0000
0000
0000
0000
ENDCHAR
STARTCHAR Kappa
ENCODING 922
SWIDTH 600 0
DWIDTH 12 0
BBX 12 20 0 -4
BITMAP
0000
0000
3030
3070
30e0
31c0
3380
3700
3e00
3e00
3700
3380
31c0
30e0
3070
3030
0000
0000
0000
0000
ENDCHAR
STARTCHAR Lambda
ENCODING 923
SWIDTH 600 0
DWIDTH 12 0
BBX 12 20 0 -4
BITMAP
0000
0000
0300
0300
0300
0780
0fc0
0cc0
0cc0
1ce0
3870
3030
3030
3030
3030
3030
0000
0000
0000
0000
ENDCHAR
STARTCHAR Mu
ENCODING 924
SWIDTH 600 0
DWIDTH 12 0
BBX 12 20 0 -4
BITMAP
0000
0000
3030
3030
3cf0
3ff0
37b0
3330
3330
3330
3030
3030
3030
3030
3030
3030
0000
0000
0000
0000
ENDCHAR
STARTCHAR Nu
ENCODING 925
SWIDTH 600 0
DWIDTH 12 0
BBX 12 20 0 -4
BITMAP
0000
0000
3030
3030
3030
3030
3c30
3e30
3730
33b0
31f0
30f0
3030
3030
3030
3030
0000
0000
0000
0000
ENDCHAR
STARTCHAR Xi
ENCODING 926
SWIDTH 600 0
DWIDTH 12 0
BBX 12 20 0 -4
BITMAP
0000
0000
3ff0
3ff0
0000
0000
0000
0000
0fc0
0fc0
0000
0000
0000
0000
3ff0
3ff0
0000
0000
0000
0000
ENDCHAR
STARTCHAR Omicron
ENCODING 927
SWIDTH 600 0
DWIDTH 12 0
BBX 12 20 0 -4
BITMAP
0000
0000
0fc0
1fe0
3870
3030
3030
3030
3030
3030
3030
3030
3030
3870
1fe0
0fc0
0000
0000
0000
0000
ENDCHAR
STARTCHAR Pi
ENCODING 928
SWIDTH 600 0
DWIDTH 12 0
BBX 12 20 0 -4
BITMAP
0000
0000
3ff0
3ff0
3030
3030
3030
3030
3030
3030
3030
3030
3030
3030
3030
3030
0000
0000
0000
0000
ENDCHAR
STARTCHAR Rho
ENCODING 929
SWIDTH 600 0
DWIDTH 12 0
BBX 12 20 0 -4
BITMAP
0000
0000
3fc0
3fe0
3070
3030
3030
3070
3fe0
3fc0
3000
3000
3000
3000
3000
3000
0000
0000
0000
0000
ENDCHAR
STARTCHAR Sigma
ENCODING 931
SWIDTH 600 0
DWIDTH 12 0
BBX 12 20 0 -4
BITMAP
0000
0000
3ff0
3ff0
3000
3800
1c00
0e00
0700
0700
0e00
1c00
3800
3000
3ff0
3ff0
0000
0000
0000
0000
ENDCHAR
STARTCHAR Tau
ENCODING 932
SWIDTH 600 0
DWIDTH 12 0
BBX 12 20 0 -4
BITMAP
0000
0000
3ff0
3ff0
0300
0300
0300
0300
0300
0300
0300
0300
0300
0300
0300
0300
0000
0000
0000
0000
ENDCHAR
STARTCHAR Upsilon
ENCODING 933
SWIDTH 600 0
DWIDTH 12 0
BBX 12 20 0 -4
BITMAP
0000
0000
3030
3030
3030
3870
1ce0
0fc0
0780
0300
0300
0300
0300
0300
0300
0300
0000
0000
0000
0000
ENDCHAR
STARTCHAR Phi
ENCODING 934
SWIDTH 600 0
DWIDTH 12 0
BBX 12 20 0 -4
BITMAP
0000
0000
0300
0300
0fc0
1fe0
3b70
3330
3330
3330
3330
3b70
1fe0
0fc0
0300
0300
0000
0000
0000
0000
ENDCHAR
STARTCHAR Chi
ENCODING 935
SWIDTH 600 0
DWIDTH 12 0
BBX 12 20 0 -4
BITMAP
0000
0000
3030
3030
3030
3870
1ce0
0fc0
0780
0780
0fc0
1ce0
3870
3030
3030
3030
0000
0000
0000
0000
ENDCHAR
STARTCHAR Psi
ENCODING 936
SWIDTH 600 0
DWIDTH 12 0
BBX 12 20 0 -4
BITMAP
0000
0000
3330
3330
3330
3330
3330
3330
3330
3330
3330
3b70
1fe0
0fc0
0300
0300
0000
0000
0000
0000
ENDCHAR
STARTCHAR uni03A9
ENCODING 937
SWIDTH 600 0
DWIDTH 12 0
BBX 12 20 0 -4
BITMAP
0000
0000
0fc0
1fe0
3870
3030
3030
3030
3030
3030
3030
3870
1ce0
0cc0
3cf0
3cf0
0000
0000
0000
0000
ENDCHAR
STARTCHAR Iotadieresis
ENCODING 938
SWIDTH 600 0
DWIDTH 12 0
BBX 12 20 0 -4
BITMAP
0000
0000
0cc0
0cc0
0000
0000
0fc0
0fc0
0300
0300
0300
0300
0300
0300
0fc0
0fc0
0000
0000
0000
0000
ENDCHAR
STARTCHAR Upsilondieresis
ENCODING 939
SWIDTH 600 0
DWIDTH 12 0
BBX 12 20 0 -4
BITMAP
0000
0000
0cc0
0cc0
0000
0000
3030
3870
1ce0
0fc0
0780
0300
0300
0300
0300
0300
0000
0000
0000
0000
ENDCHAR
STARTCHAR alphatonos
ENCODING 940
SWIDTH 600 0
DWIDTH 12 0
BBX 12 20 0 -4
BITMAP
0000
0000
0300
0300
0000
0000
0f30
1ff0
39e0
30c0
30c0
30c0
30c0
39e0
1ff0
0f30
0000
0000
0000
0000
ENDCHAR
STARTCHAR epsilontonos
ENCODING 941
SWIDTH 600 0
DWIDTH 12 0
BBX 12 20 0 -4
BITMAP
0000
0000
0300
0300
0000
0000
0ff0
1ff0
3800
3800
1fc0
1fc0
3800
3800
1ff0
0ff0
0000
0000
0000
0000
ENDCHAR
STARTCHAR etatonos
ENCODING 942
SWIDTH 600 0
DWIDTH 12 0
BBX 12 20 0 -4
BITMAP
0000
0000
0300
0300
0000
0000
3fc0
3fe0
3070
3030
3030
3030
3030
3030
3030
3030
0030
0030
0030
0030
ENDCHAR
STARTCHAR iotatonos
ENCODING 943
SWIDTH 600 0
DWIDTH 12 0
BBX 12 20 0 -4
BITMAP
0000
0000
0300
0300
0000
0000
0f00
0f00
0300
0300
0300
0300
0300
0380
01c0
00c0
0000
0000
0000
0000
ENDCHAR
STARTCHAR upsilondieresistonos
ENCODING 944
SWIDTH 600 0
DWIDTH 12 0
BBX 12 20 0 -4
BITMAP
0000
0000
0300
0300
3330
3330
0000
0000
30c0
30e0
3070
3030
3030
3870
1fe0
0fc0
0000
0000
0000
0000
ENDCHAR
STARTCHAR alpha
ENCODING 945
SWIDTH 600 0
DWIDTH 12 0
BBX 12 20 0 -4
BITMAP
0000
0000
0000
0000
0000
0000
0f30
1ff0
39e0
30c0
30c0
30c0
30c0
39e0
1ff0
0f30
0000
0000
0000
0000
ENDCHAR
STARTCHAR beta
ENCODING 946
SWIDTH 600 0
DWIDTH 12 0
BBX 12 20 0 -4
BITMAP
0000
0000
0fc0
1fe0
3870
3030
3030
3070
3fe0
3fe0
3070
3030
3030
3070
3fe0
3fc0
3000
3000
3000
3000
ENDCHAR
STARTCHAR gamma
ENCODING 947
SWIDTH 600 0
DWIDTH 12 0
BBX 12 20 0 -4
BITMAP
0000
0000
0000
0000
0000
0000
3030
3030
3030
3870
1ce0
0cc0
0cc0
0fc0
0780
0300
0300
0300
0300
0300
ENDCHAR
STARTCHAR delta
ENCODING 948
SWIDTH 600 0
DWIDTH 12 0
BBX 12 20 0 -4
BITMAP
0000
0000
0ff0
1ff0
3800
3800
1fc0
1fe0
3870
3030
3030
3030
3030
3870
1fe0
0fc0
0000
0000
0000
0000
ENDCHAR
STARTCHAR epsilon
ENCODING 949
SWIDTH 600 0
DWIDTH 12 0
BBX 12 20 0 -4
BITMAP
0000
0000
0000
0000
0000
0000
0ff0
1ff0
3800
3800
1fc0
1fc0
3800
3800
1ff0
0ff0
0000
0000
0000
0000
ENDCHAR
STARTCHAR zeta
ENCODING 950
SWIDTH 600 0
DWIDTH 12 0
BBX 12 20 0 -4
BITMAP
0000
0000
3fc0
3fc0
00c0
01c0
0380
0700
0e00
1c00
3800
3000
3000
3800
1f00
0f80
01c0
01c0
0380
0300
ENDCHAR
STARTCHAR eta
ENCODING 951
SWIDTH 600 0
DWIDTH 12 0
BBX 12 20 0 -4
BITMAP
0000
0000
0000
0000
0000
0000
3fc0
3fe0
3070
3030
3030
3030
3030
3030
3030
3030
0030
0030
0030
0030
ENDCHAR
STARTCHAR theta
ENCODING 952
SWIDTH 600 0
DWIDTH 12 0
BBX 12 20 0 -4
BITMAP
0000
0000
0f00
1f80
39c0
30c0
30c0
30c0
3fc0
3fc0
30c0
30c0
30c0
39c0
1f80
0f00
0000
0000
0000
0000
ENDCHAR
STARTCHAR iota
ENCODING 953
SWIDTH 600 0
DWIDTH 12 0
BBX 12 20 0 -4
BITMAP
0000
0000
0000
0000
0000
0000
0f00
0f00
0300
0300
0300
0300
0300
0380
01c0
00c0
0000
0000
0000
0000
ENDCHAR
STARTCHAR kappa
ENCODING 954
SWIDTH 600 0
DWIDTH 12 0
BBX 12 20 0 -4
BITMAP
0000
0000
0000
0000
0000
0000
0c30
0c70
0ce0
0dc0
0f80
0f80
0dc0
0ce0
0c70
0c30
0000
0000
0000
0000
ENDCHAR
STARTCHAR lambda
ENCODING 955
SWIDTH 600 0
DWIDTH 12 0
BBX 12 20 0 -4
BITMAP
0000
0000
3c00
3e00
0700
0300
0300
0780
0fc0
0cc0
0cc0
1ce0
3870
3030
3030
3030
0000
0000
0000
0000
ENDCHAR
STARTCHAR uni03BC
ENCODING 956
SWIDTH 600 0
DWIDTH 12 0
BBX 12 20 0 -4
BITMAP
0000
0000
0000
0000
0000
0000
30c0
30c0
30c0
30c0
30c0
30c0
30c0
31e0
3ff0
3f30
3000
3000
3000
3000
ENDCHAR
STARTCHAR nu
ENCODING 957
SWIDTH 600 0
DWIDTH 12 0
BBX 12 20 0 -4
BITMAP
0000
0000
0000
0000
0000
0000
3030
3030
3030
3830
1c30
0c70
0ce0
0fc0
0780
0300
0000
0000
0000
0000
ENDCHAR
STARTCHAR xi
ENCODING 958
SWIDTH 600 0
DWIDTH 12 0
BBX 12 20 0 -4
BITMAP
0000
0000
0fc0
1fc0
3800
3000
3000
3800
1fc0
1fc0
3800
3000
3000
3800
1fc0
0fe0
0070
0070
00e0
00c0
ENDCHAR
STARTCHAR omicron
ENCODING 959
SWIDTH 600 0
DWIDTH 12 0
BBX 12 20 0 -4
BITMAP
0000
0000
0000
0000
0000
0000
0fc0
1fe0
3870
3030
3030
3030
3030
3870
1fe0
0fc0
0000
0000
0000
0000
ENDCHAR
STARTCHAR pi
ENCODING 960
SWIDTH 600 0
DWIDTH 12 0
BBX 12 20 0 -4
BITMAP
0000
0000
0000
0000
0000
0000
3ff0
3ff0
0cc0
0cc0
0cc0
0cc0
0cc0
0ce0
0c70
0c30
0000
0000
0000
0000
ENDCHAR
STARTCHAR rho
ENCODING 961
SWIDTH 600 0
DWIDTH 12 0
BBX 12 20 0 -4
BITMAP
0000
0000
0000
0000
0000
0000
0fc0
1fe0
3870
3030
3030
3030
3030
3070
3fe0
3fc0
3000
3000
3000
3000
ENDCHAR
STARTCHAR sigma1
ENCODING 962
SWIDTH 600 0
DWIDTH 12 0
BBX 12 20 0 -4
BITMAP
0000
0000
0000
0000
0000
0000
0ff0
1ff0
3800
3000
3000
3000
3000
3800
1fc0
0fe0
0070
0070
00e0
00c0
ENDCHAR
STARTCHAR sigma
ENCODING 963
SWIDTH 600 0
DWIDTH 12 0
BBX 12 20 0 -4
BITMAP
0000
0000
0000
0000
0000
0000
0ff0
1ff0
38c0
30e0
3070
3030
3030
3870
1fe0
0fc0
0000
0000
0000
0000
ENDCHAR
STARTCHAR tau
ENCODING 964
SWIDTH 600 0
DWIDTH 12 0
BBX 12 20 0 -4
BITMAP
0000
0000
0000
0000
0000
0000
3ff0
3ff0
0300
0300
0300
0300
0300
0380
01c0
00c0
0000
0000
0000
0000
ENDCHAR
STARTCHAR upsilon
ENCODING 965
SWIDTH 600 0
DWIDTH 12 0
BBX 12 20 0 -4
BITMAP
0000
0000
0000
0000
0000
0000
30c0
30e0
3070
3030
3030
3030
3030
3870
1fe0
0fc0
0000
0000
0000
0000
ENDCHAR
STARTCHAR phi
ENCODING 966
SWIDTH 600 0
DWIDTH 12 0
BBX 12 20 0 -4
BITMAP
0000
0000
0000
0000
0000
0000
33c0
33e0
3370
3330
3330
3330
3330
3b70
1fe0
0fc0
0300
0300
0300
0300
ENDCHAR
STARTCHAR chi
ENCODING 967
SWIDTH 600 0
DWIDTH 12 0
BBX 12 20 0 -4
BITMAP
0000
0000
0000
0000
0000
0000
3030
3830
1c30
0c70
0ce0
0fc0
0780
0780
0fc0
1cc0
38c0
30e0
3070
3030
ENDCHAR
STARTCHAR psi
ENCODING 968
SWIDTH 600 0
DWIDTH 12 0
BBX 12 20 0 -4
BITMAP
0000
0000
0000
0000
0000
0000
3330
3330
3330
3330
3330
3330
3330
3b70
1fe0
0fc0
0300
0300
0300
0300
ENDCHAR
STARTCHAR omega
ENCODING 969
SWIDTH 600 0
DWIDTH 12 0
BBX 12 20 0 -4
BITMAP
0000
0000
0000
0000
0000
0000
0cc0
1ce0
3870
3030
3330
3330
3330
3ff0
1fe0
0cc0
0000
0000
0000
0000
ENDCHAR
STARTCHAR iotadieresis
ENCODING 970
SWIDTH 600 0
DWIDTH 12 0
BBX 12 20 0 -4
BITMAP
0000
0000
0cc0
0cc0
0000
0000
0f00
0f00
0300
0300
0300
0300
0300
0380
01c0
00c0
0000
0000
0000
0000
ENDCHAR
STARTCHAR upsilondieresis
ENCODING 971
SWIDTH 600 0
DWIDTH 12 0
BBX 12 20 0 -4
BITMAP
0000
0000
0cc0
0cc0
0000
0000
30c0
30e0
3070
3030
3030
3030
3030
3870
1fe0
0fc0
0000
0000
0000
0000
ENDCHAR
STARTCHAR omicrontonos
ENCODING 972
SWIDTH 600 0
DWIDTH 12 0
BBX 12 20 0 -4
BITMAP
0000
0000
0300
0300
0000
0000
0fc0
1fe0
3870
3030
3030
3030
3030
3870
1fe0
0fc0
0000
0000
0000
0000
ENDCHAR
STARTCHAR upsilontonos
ENCODING 973
SWIDTH 600 0
DWIDTH 12 0
BBX 12 20 0 -4
BITMAP
0000
0000
0300
0300
0000
0000
30c0
30e0
3070
3030
3030
3030
3030
3870
1fe0
0fc0
0000
0000
0000
0000
ENDCHAR
STARTCHAR omegatonos
ENCODING 974
SWIDTH 600 0
DWIDTH 12 0
BBX 12 20 0 -4
BITMAP
0000
0000
0300
0300
0000
0000
0cc0
1ce0
3870
3030
3330
3330
3330
3ff0
1fe0
0cc0
0000
0000
0000
0000
ENDCHAR
STARTCHAR phi1
ENCODING 981
SWIDTH 600 0
DWIDTH 12 0
BBX 12 20 0 -4
BITMAP
0000
0000
0300
0300
0300
0300
0fc0
1fe0
3b70
3330
3330
3330
3330
3b70
1fe0
0fc0
0300
0300
0300
0300
ENDCHAR
STARTCHAR uni03F3
ENCODING 1011
SWIDTH 600 0
DWIDTH 12 0
BBX 12 20 0 -4
BITMAP
0000
0000
0300
0300
0000
0000
0300
0300
0300
0300
0300
0300
0300
0300
0300
0300
0300
0700
0e00
0c00
ENDCHAR
STARTCHAR uni0400
ENCODING 1024
SWIDTH 600 0
DWIDTH 12 0
BBX 12 20 0 -4
BITMAP
0000
0000
0c00
0e00
0700
0300
3ff0
3ff0
3000
3000
3fc0
3fc0
3000
3000
3ff0
3ff0
0000
0000
0000
0000
ENDCHAR
STARTCHAR uni0401
ENCODING 1025
SWIDTH 600 0
DWIDTH 12 0
BBX 12 20 0 -4
BITMAP
0000
0000
0cc0
0cc0
0000
0000
3ff0
3ff0
3000
3000
3fc0
3fc0
3000
3000
3ff0
3ff0
0000
0000
0000
0000
ENDCHAR
STARTCHAR uni0402
ENCODING 1026
SWIDTH 600 0
DWIDTH 12 0
BBX 12 20 0 -4
BITMAP
0000
0000
3fc0
3fc0
0c00
0c00
0c00
0c00
0fc0
0fe0
0c70
0c30
0c30
0c30
0c30
0c30
0030
0070
00e0
00c0
ENDCHAR
STARTCHAR uni0403
ENCODING 1027
SWIDTH 600 0
DWIDTH 12 0
BBX 12 20 0 -4
BITMAP
0000
0000
00c0
01c0
0380
0300
3ff0
3ff0
3000
3000
3000
3000
3000
3000
3000
3000
0000
0000
0000
0000
ENDCHAR
STARTCHAR uni0404
ENCODING 1028
SWIDTH 600 0
DWIDTH 12 0
BBX 12 20 0 -4
BITMAP
0000
0000
03c0
07e0
0e70
1c30
3800
3000
3f00
3f00
3000
3800
1c30
0e70
07e0
03c0
0000
0000
0000
0000
ENDCHAR
STARTCHAR uni0405
ENCODING 1029
SWIDTH 600 0
DWIDTH 12 0
BBX 12 20 0 -4
BITMAP
0000
0000
0fc0
1fe0
3870
3030
3000
3800
1fc0
0fe0
0070
0030
3030
3870
1fe0
0fc0
0000
0000
0000
0000
ENDCHAR
STARTCHAR uni0406
ENCODING 1030
SWIDTH 600 0
DWIDTH 12 0
BBX 12 20 0 -4
BITMAP
0000
0000
0fc0
0fc0
0300
0300
0300
0300
0300
0300
0300
0300
0300
0300
0fc0
0fc0
0000
0000
0000
0000
ENDCHAR
STARTCHAR uni0407
ENCODING 1031
SWIDTH 600 0
DWIDTH 12 0
BBX 12 20 0 -4
BITMAP
0000
0000
0cc0
0cc0
0000
0000
0fc0
0fc0
0300
0300
0300
0300
0300
0300
0fc0
0fc0
0000
0000
0000
0000
ENDCHAR
STARTCHAR uni0408
ENCODING 1032
SWIDTH 600 0
DWIDTH 12 0
BBX 12 20 0 -4
BITMAP
0000
0000
0030
0030
0030
0030
0030
0030
0030
0030
0030
0030
3030
3870
1fe0
0fc0
0000
0000
0000
0000
ENDCHAR
STARTCHAR uni0409
ENCODING 1033
SWIDTH 600 0
DWIDTH 12 0
BBX 12 20 0 -4
BITMAP
0000
0000
0f00
1f00
3b00
3300
3300
3300
33f0
33f0
3330
3330
3330
3330
33f0
33f0
0000
0000
0000
0000
ENDCHAR
STARTCHAR uni040A
ENCODING 1034
SWIDTH 600 0
DWIDTH 12 0
BBX 12 20 0 -4
BITMAP
0000
0000
3300
3300
3300
3300
3300
3300
3ff0
3ff0
3330
3330
3330
3330
33f0
33f0
0000
0000
0000
0000
ENDCHAR
STARTCHAR uni040B
ENCODING 1035
SWIDTH 600 0
DWIDTH 12 0
BBX 12 20 0 -4
BITMAP
0000
0000
3fc0
3fc0
0c00
0c00
0c00
0c00
0fc0
0fe0
0c70
0c30
0c30
0c30
0c30
0c30
0000
0000
0000
0000
ENDCHAR
STARTCHAR uni040C
ENCODING 1036
SWIDTH 600 0
DWIDTH 12 0
BBX 12 20 0 -4
BITMAP
0000
0000
00c0
01c0
0380
0300
3030
3070
30e0
31c0
3f80
3f80
31c0
30e0
3070
3030
0000
0000
0000
0000
ENDCHAR
STARTCHAR uni040D
ENCODING 1037
SWIDTH 600 0
DWIDTH 12 0
BBX 12 20 0 -4
BITMAP
0000
0000
0c00
0e00
0700
0300
3030
3030
30f0
31f0
33b0
3730
3e30
3c30
3030
3030
0000
0000
0000
0000
ENDCHAR
STARTCHAR uni040E
ENCODING 1038
SWIDTH 600 0
DWIDTH 12 0
BBX 12 20 0 -4
BITMAP
0000
0000
3330
3330
3030
3030
3030
3030
3ff0
3ff0
0030
0030
0030
0030
3ff0
3ff0
0000
0000
0000
0000
ENDCHAR
STARTCHAR uni040F
ENCODING 1039
SWIDTH 600 0
DWIDTH 12 0
BBX 12 20 0 -4
BITMAP
0000
0000
3030
3030
3030
3030
3030
3030
3030
3030
3030
3030
3030
3030
3ff0
3ff0
0300
0300
0000
0000
ENDCHAR
STARTCHAR uni0450
ENCODING 1104
SWIDTH 600 0
DWIDTH 12 0
BBX 12 20 0 -4
BITMAP
0000
0000
0c00
0e00
0700
0300
0fc0
1fe0
3870
3030
3ff0
3ff0
3000
3800
1fc0
0fc0
0000
0000
0000
0000
ENDCHAR
STARTCHAR uni0451
ENCODING 1105
SWIDTH 600 0
DWIDTH 12 0
BBX 12 20 0 -4
BITMAP
0000
0000
0cc0
0cc0
0000
0000
0fc0
1fe0
3870
3030
3ff0
3ff0
3000
3800
1fc0
0fc0
0000
0000
0000
0000
ENDCHAR
STARTCHAR uni0452
ENCODING 1106
SWIDTH 600 0
DWIDTH 12 0
BBX 12 20 0 -4
BITMAP
0000
0000
0c00
0c00
3fc0
3fc0
0c00
0c00
0fc0
0fe0
0c70
0c30
0c30
0c30
0c30
0c30
0030
0070
00e0
00c0
ENDCHAR
STARTCHAR uni0453
ENCODING 1107
SWIDTH 600 0
DWIDTH 12 0
BBX 12 20 0 -4
BITMAP
0000
0000
00c0
01c0
0380
0300
0000
0000
3ff0
3ff0
3000
3000
3000
3000
3000
3000
0000
0000
0000
0000
ENDCHAR
STARTCHAR uni0454
ENCODING 1108
SWIDTH 600 0
DWIDTH 12 0
BBX 12 20 0 -4
BITMAP
0000
0000
0000
0000
0000
0000
0f00
1f80
39c0
30c0
3c00
3c00
30c0
39c0
1f80
0f00
0000
0000
0000
0000
ENDCHAR
STARTCHAR uni0455
ENCODING 1109
SWIDTH 600 0
DWIDTH 12 0
BBX 12 20 0 -4
BITMAP
0000
0000
0000
0000
0000
0000
0ff0
1ff0
3800
3800
1fc0
0fe0
0070
0070
3fe0
3fc0
0000
0000
0000
0000
ENDCHAR
ENDFONT
